<?xml version="1.0" encoding="UTF-8" standalone="no"?><svg xmlns="http://www.w3.org/2000/svg" xmlns:xlink="http://www.w3.org/1999/xlink" contentScriptType="application/ecmascript" contentStyleType="text/css" height="226px" preserveAspectRatio="none" style="width:187px;height:226px;" version="1.1" viewBox="0 0 187 226" width="187px" zoomAndPan="magnify"><defs><filter height="300%" id="fbdzyfyzc1gko" width="300%" x="-1" y="-1"><feGaussianBlur result="blurOut" stdDeviation="2.0"/><feColorMatrix in="blurOut" result="blurOut2" type="matrix" values="0 0 0 0 0 0 0 0 0 0 0 0 0 0 0 0 0 0 .4 0"/><feOffset dx="4.0" dy="4.0" in="blurOut2" result="blurOut3"/><feBlend in="SourceGraphic" in2="blurOut3" mode="normal"/></filter></defs><g><!--MD5=[046ee6b53e5b2302dabaf81a1b2ac9e9]
class CameraMove--><rect fill="#FEFECE" filter="url(#fbdzyfyzc1gko)" height="99.2188" id="CameraMove" style="stroke: #A80036; stroke-width: 1.5;" width="170" x="6" y="116"/><ellipse cx="47.1" cy="132" fill="#ADD1B2" rx="11" ry="11" style="stroke: #A80036; stroke-width: 1.0;"/><path d="M50.0688,137.6406 Q49.4906,137.9375 48.85,138.0781 Q48.2094,138.2344 47.5063,138.2344 Q45.0063,138.2344 43.6781,136.5938 Q42.3656,134.9375 42.3656,131.8125 Q42.3656,128.6875 43.6781,127.0313 Q45.0063,125.375 47.5063,125.375 Q48.2094,125.375 48.85,125.5313 Q49.5063,125.6875 50.0688,125.9844 L50.0688,128.7031 Q49.4438,128.125 48.85,127.8594 Q48.2563,127.5781 47.6313,127.5781 Q46.2875,127.5781 45.6,128.6563 Q44.9125,129.7188 44.9125,131.8125 Q44.9125,133.9063 45.6,134.9844 Q46.2875,136.0469 47.6313,136.0469 Q48.2563,136.0469 48.85,135.7813 Q49.4438,135.5 50.0688,134.9219 L50.0688,137.6406 Z "/><text fill="#000000" font-family="sans-serif" font-size="12" lengthAdjust="spacingAndGlyphs" textLength="80" x="66.9" y="136.1543">CameraMove</text><line style="stroke: #A80036; stroke-width: 1.5;" x1="7" x2="175" y1="148" y2="148"/><ellipse cx="17" cy="159" fill="none" rx="3" ry="3" style="stroke: #038048; stroke-width: 1.0;"/><text fill="#000000" font-family="sans-serif" font-size="11" lengthAdjust="spacingAndGlyphs" textLength="138" x="26" y="162.2104">moveSpeed : int = 1000</text><ellipse cx="17" cy="171.8047" fill="none" rx="3" ry="3" style="stroke: #038048; stroke-width: 1.0;"/><text fill="#000000" font-family="sans-serif" font-size="11" lengthAdjust="spacingAndGlyphs" textLength="144" x="26" y="175.0151">zoomSpeed : int = 10000</text><line style="stroke: #A80036; stroke-width: 1.5;" x1="7" x2="175" y1="181.6094" y2="181.6094"/><text fill="#000000" font-family="sans-serif" font-size="11" lengthAdjust="spacingAndGlyphs" textLength="71" x="12" y="195.8198">Start() : void</text><text fill="#000000" font-family="sans-serif" font-size="11" lengthAdjust="spacingAndGlyphs" textLength="83" x="12" y="208.6245">Update() : void</text><!--MD5=[83b3cf3d23d77c6f1e1b5291a241bc2a]
class MonoBehaviour--><rect fill="#FEFECE" filter="url(#fbdzyfyzc1gko)" height="48" id="MonoBehaviour" style="stroke: #A80036; stroke-width: 1.5;" width="128" x="27" y="8"/><ellipse cx="42" cy="24" fill="#ADD1B2" rx="11" ry="11" style="stroke: #A80036; stroke-width: 1.0;"/><path d="M44.9688,29.6406 Q44.3906,29.9375 43.75,30.0781 Q43.1094,30.2344 42.4063,30.2344 Q39.9063,30.2344 38.5781,28.5938 Q37.2656,26.9375 37.2656,23.8125 Q37.2656,20.6875 38.5781,19.0313 Q39.9063,17.375 42.4063,17.375 Q43.1094,17.375 43.75,17.5313 Q44.4063,17.6875 44.9688,17.9844 L44.9688,20.7031 Q44.3438,20.125 43.75,19.8594 Q43.1563,19.5781 42.5313,19.5781 Q41.1875,19.5781 40.5,20.6563 Q39.8125,21.7188 39.8125,23.8125 Q39.8125,25.9063 40.5,26.9844 Q41.1875,28.0469 42.5313,28.0469 Q43.1563,28.0469 43.75,27.7813 Q44.3438,27.5 44.9688,26.9219 L44.9688,29.6406 Z "/><text fill="#000000" font-family="sans-serif" font-size="12" lengthAdjust="spacingAndGlyphs" textLength="96" x="56" y="28.1543">MonoBehaviour</text><line style="stroke: #A80036; stroke-width: 1.5;" x1="28" x2="154" y1="40" y2="40"/><line style="stroke: #A80036; stroke-width: 1.5;" x1="28" x2="154" y1="48" y2="48"/><!--MD5=[c9bce4fa77e576bcc58075a4f7d2afde]
reverse link MonoBehaviour to CameraMove--><path d="M91,76.51 C91,89.14 91,103.01 91,115.93 " fill="none" id="MonoBehaviour&lt;-CameraMove" style="stroke: #A80036; stroke-width: 1.0;"/><polygon fill="none" points="84,76.21,91,56.21,98,76.21,84,76.21" style="stroke: #A80036; stroke-width: 1.0;"/><!--MD5=[59ab69e04dcfec73315b527abdbe91f1]
@startuml
class CameraMove {
    + moveSpeed : int = 1000
    + zoomSpeed : int = 10000
    Start() : void
    Update() : void
}
MonoBehaviour <|- - CameraMove
@enduml

PlantUML version 1.2020.02(Sun Mar 01 10:22:07 GMT 2020)
(GPL source distribution)
Java Runtime: OpenJDK Runtime Environment
JVM: OpenJDK 64-Bit Server VM
Java Version: 11.0.9+11-Ubuntu-0ubuntu1
Operating System: Linux
Default Encoding: ANSI_X3.4-1968
Language: en
Country: US
--></g></svg>