<?xml version="1.0" encoding="UTF-8" standalone="no"?><svg xmlns="http://www.w3.org/2000/svg" xmlns:xlink="http://www.w3.org/1999/xlink" contentScriptType="application/ecmascript" contentStyleType="text/css" height="321px" preserveAspectRatio="none" style="width:441px;height:321px;" version="1.1" viewBox="0 0 441 321" width="441px" zoomAndPan="magnify"><defs><filter height="300%" id="f1jty79n71qtr7" width="300%" x="-1" y="-1"><feGaussianBlur result="blurOut" stdDeviation="2.0"/><feColorMatrix in="blurOut" result="blurOut2" type="matrix" values="0 0 0 0 0 0 0 0 0 0 0 0 0 0 0 0 0 0 .4 0"/><feOffset dx="4.0" dy="4.0" in="blurOut2" result="blurOut3"/><feBlend in="SourceGraphic" in2="blurOut3" mode="normal"/></filter></defs><g><!--MD5=[84cc1c7753a8a21773877d31e05212a5]
class CharacterButtonHandler--><rect fill="#FEFECE" filter="url(#f1jty79n71qtr7)" height="86.4141" id="CharacterButtonHandler" style="stroke: #A80036; stroke-width: 1.5;" width="185" x="88.68" y="116"/><ellipse cx="103.68" cy="132" fill="#ADD1B2" rx="11" ry="11" style="stroke: #A80036; stroke-width: 1.0;"/><path d="M106.6488,137.6406 Q106.0706,137.9375 105.43,138.0781 Q104.7894,138.2344 104.0863,138.2344 Q101.5863,138.2344 100.2581,136.5938 Q98.9456,134.9375 98.9456,131.8125 Q98.9456,128.6875 100.2581,127.0313 Q101.5863,125.375 104.0863,125.375 Q104.7894,125.375 105.43,125.5313 Q106.0863,125.6875 106.6488,125.9844 L106.6488,128.7031 Q106.0238,128.125 105.43,127.8594 Q104.8363,127.5781 104.2113,127.5781 Q102.8675,127.5781 102.18,128.6563 Q101.4925,129.7188 101.4925,131.8125 Q101.4925,133.9063 102.18,134.9844 Q102.8675,136.0469 104.2113,136.0469 Q104.8363,136.0469 105.43,135.7813 Q106.0238,135.5 106.6488,134.9219 L106.6488,137.6406 Z "/><text fill="#000000" font-family="sans-serif" font-size="12" lengthAdjust="spacingAndGlyphs" textLength="153" x="117.68" y="136.1543">CharacterButtonHandler</text><line style="stroke: #A80036; stroke-width: 1.5;" x1="89.68" x2="272.68" y1="148" y2="148"/><line style="stroke: #A80036; stroke-width: 1.5;" x1="89.68" x2="272.68" y1="156" y2="156"/><text fill="#000000" font-family="sans-serif" font-size="11" lengthAdjust="spacingAndGlyphs" textLength="71" x="108.68" y="170.2104">Start() : void</text><text fill="#000000" font-family="sans-serif" font-size="11" lengthAdjust="spacingAndGlyphs" textLength="83" x="108.68" y="183.0151">Update() : void</text><ellipse cx="99.68" cy="192.6094" fill="#84BE84" rx="3" ry="3" style="stroke: #038048; stroke-width: 1.0;"/><text fill="#000000" font-family="sans-serif" font-size="11" lengthAdjust="spacingAndGlyphs" textLength="156" x="108.68" y="195.8198">ShowCharacterTree() : void</text><!--MD5=[83b3cf3d23d77c6f1e1b5291a241bc2a]
class MonoBehaviour--><rect fill="#FEFECE" filter="url(#f1jty79n71qtr7)" height="48" id="MonoBehaviour" style="stroke: #A80036; stroke-width: 1.5;" width="128" x="117.18" y="8"/><ellipse cx="132.18" cy="24" fill="#ADD1B2" rx="11" ry="11" style="stroke: #A80036; stroke-width: 1.0;"/><path d="M135.1488,29.6406 Q134.5706,29.9375 133.93,30.0781 Q133.2894,30.2344 132.5863,30.2344 Q130.0863,30.2344 128.7581,28.5938 Q127.4456,26.9375 127.4456,23.8125 Q127.4456,20.6875 128.7581,19.0313 Q130.0863,17.375 132.5863,17.375 Q133.2894,17.375 133.93,17.5313 Q134.5863,17.6875 135.1488,17.9844 L135.1488,20.7031 Q134.5238,20.125 133.93,19.8594 Q133.3363,19.5781 132.7113,19.5781 Q131.3675,19.5781 130.68,20.6563 Q129.9925,21.7188 129.9925,23.8125 Q129.9925,25.9063 130.68,26.9844 Q131.3675,28.0469 132.7113,28.0469 Q133.3363,28.0469 133.93,27.7813 Q134.5238,27.5 135.1488,26.9219 L135.1488,29.6406 Z "/><text fill="#000000" font-family="sans-serif" font-size="12" lengthAdjust="spacingAndGlyphs" textLength="96" x="146.18" y="28.1543">MonoBehaviour</text><line style="stroke: #A80036; stroke-width: 1.5;" x1="118.18" x2="244.18" y1="40" y2="40"/><line style="stroke: #A80036; stroke-width: 1.5;" x1="118.18" x2="244.18" y1="48" y2="48"/><!--MD5=[064f7a74fee85463ec1a30143664ee17]
class GameObject--><rect fill="#FEFECE" filter="url(#f1jty79n71qtr7)" height="48" id="GameObject" style="stroke: #A80036; stroke-width: 1.5;" width="108" x="127.18" y="262"/><ellipse cx="142.18" cy="278" fill="#ADD1B2" rx="11" ry="11" style="stroke: #A80036; stroke-width: 1.0;"/><path d="M145.1488,283.6406 Q144.5706,283.9375 143.93,284.0781 Q143.2894,284.2344 142.5863,284.2344 Q140.0863,284.2344 138.7581,282.5938 Q137.4456,280.9375 137.4456,277.8125 Q137.4456,274.6875 138.7581,273.0313 Q140.0863,271.375 142.5863,271.375 Q143.2894,271.375 143.93,271.5313 Q144.5863,271.6875 145.1488,271.9844 L145.1488,274.7031 Q144.5238,274.125 143.93,273.8594 Q143.3363,273.5781 142.7113,273.5781 Q141.3675,273.5781 140.68,274.6563 Q139.9925,275.7188 139.9925,277.8125 Q139.9925,279.9063 140.68,280.9844 Q141.3675,282.0469 142.7113,282.0469 Q143.3363,282.0469 143.93,281.7813 Q144.5238,281.5 145.1488,280.9219 L145.1488,283.6406 Z "/><text fill="#000000" font-family="sans-serif" font-size="12" lengthAdjust="spacingAndGlyphs" textLength="76" x="156.18" y="282.1543">GameObject</text><line style="stroke: #A80036; stroke-width: 1.5;" x1="128.18" x2="234.18" y1="294" y2="294"/><line style="stroke: #A80036; stroke-width: 1.5;" x1="128.18" x2="234.18" y1="302" y2="302"/><!--MD5=[db462180693f7e61cf3217ec29875f93]
class LineRenderer--><rect fill="#FEFECE" filter="url(#f1jty79n71qtr7)" height="48" id="LineRenderer" style="stroke: #A80036; stroke-width: 1.5;" width="115" x="270.68" y="262"/><ellipse cx="285.68" cy="278" fill="#ADD1B2" rx="11" ry="11" style="stroke: #A80036; stroke-width: 1.0;"/><path d="M288.6488,283.6406 Q288.0706,283.9375 287.43,284.0781 Q286.7894,284.2344 286.0863,284.2344 Q283.5863,284.2344 282.2581,282.5938 Q280.9456,280.9375 280.9456,277.8125 Q280.9456,274.6875 282.2581,273.0313 Q283.5863,271.375 286.0863,271.375 Q286.7894,271.375 287.43,271.5313 Q288.0863,271.6875 288.6488,271.9844 L288.6488,274.7031 Q288.0238,274.125 287.43,273.8594 Q286.8363,273.5781 286.2113,273.5781 Q284.8675,273.5781 284.18,274.6563 Q283.4925,275.7188 283.4925,277.8125 Q283.4925,279.9063 284.18,280.9844 Q284.8675,282.0469 286.2113,282.0469 Q286.8363,282.0469 287.43,281.7813 Q288.0238,281.5 288.6488,280.9219 L288.6488,283.6406 Z "/><text fill="#000000" font-family="sans-serif" font-size="12" lengthAdjust="spacingAndGlyphs" textLength="83" x="299.68" y="282.1543">LineRenderer</text><line style="stroke: #A80036; stroke-width: 1.5;" x1="271.68" x2="384.68" y1="294" y2="294"/><line style="stroke: #A80036; stroke-width: 1.5;" x1="271.68" x2="384.68" y1="302" y2="302"/><!--MD5=[38960cd6c1dece5c664baece9be88ddf]
reverse link MonoBehaviour to CharacterButtonHandler--><path d="M181.18,76.27 C181.18,89.12 181.18,103.17 181.18,115.94 " fill="none" id="MonoBehaviour&lt;-CharacterButtonHandler" style="stroke: #A80036; stroke-width: 1.0;"/><polygon fill="none" points="174.18,76.22,181.18,56.22,188.18,76.22,174.18,76.22" style="stroke: #A80036; stroke-width: 1.0;"/><!--MD5=[66a0c03ffb77df45d82f0a3265484dd0]
link CharacterButtonHandler to GameObject--><path d="M144.05,202.32 C140.61,220.29 141.92,240.76 147.97,256.83 " fill="none" id="CharacterButtonHandler-&gt;GameObject" style="stroke: #A80036; stroke-width: 1.0;"/><polygon fill="#A80036" points="150,261.67,150.194,251.8231,148.0597,257.0618,142.8209,254.9275,150,261.67" style="stroke: #A80036; stroke-width: 1.0;"/><text fill="#000000" font-family="sans-serif" font-size="13" lengthAdjust="spacingAndGlyphs" textLength="129" x="-2.322" y="250.9945">dialogueNodePrefab</text><!--MD5=[66a0c03ffb77df45d82f0a3265484dd0]
link CharacterButtonHandler to GameObject--><path d="M169.04,202.32 C167.93,220.14 168.34,240.41 170.27,256.42 " fill="none" id="CharacterButtonHandler-&gt;GameObject-1" style="stroke: #A80036; stroke-width: 1.0;"/><polygon fill="#A80036" points="170.99,261.67,173.7458,252.2146,170.3189,256.7152,165.8182,253.2883,170.99,261.67" style="stroke: #A80036; stroke-width: 1.0;"/><text fill="#000000" font-family="sans-serif" font-size="13" lengthAdjust="spacingAndGlyphs" textLength="106" x="181.2784" y="250.9328">replyNodePrefab</text><!--MD5=[66a0c03ffb77df45d82f0a3265484dd0]
link CharacterButtonHandler to GameObject--><path d="M194.04,202.32 C195.21,220.14 194.78,240.41 192.73,256.42 " fill="none" id="CharacterButtonHandler-&gt;GameObject-2" style="stroke: #A80036; stroke-width: 1.0;"/><polygon fill="#A80036" points="191.97,261.67,197.2127,253.3325,192.6831,256.7211,189.2945,252.1915,191.97,261.67" style="stroke: #A80036; stroke-width: 1.0;"/><text fill="#000000" font-family="sans-serif" font-size="13" lengthAdjust="spacingAndGlyphs" textLength="151" x="-31.8288" y="254.8779">editCancelButtonPrefab</text><!--MD5=[66a0c03ffb77df45d82f0a3265484dd0]
link CharacterButtonHandler to GameObject--><path d="M219.03,202.32 C222.53,220.29 221.2,240.76 215.03,256.83 " fill="none" id="CharacterButtonHandler-&gt;GameObject-3" style="stroke: #A80036; stroke-width: 1.0;"/><polygon fill="#A80036" points="212.96,261.67,220.1642,254.9544,214.9175,257.0691,212.8028,251.8224,212.96,261.67" style="stroke: #A80036; stroke-width: 1.0;"/><text fill="#000000" font-family="sans-serif" font-size="13" lengthAdjust="spacingAndGlyphs" textLength="170" x="241.4224" y="250.9328">saveChangesButtonPrefab</text><!--MD5=[33597cd2c3809f671561db777044692f]
link CharacterButtonHandler to LineRenderer--><path d="M230.95,202.32 C252.63,220.76 277.4,241.82 296.51,258.07 " fill="none" id="CharacterButtonHandler-&gt;LineRenderer" style="stroke: #A80036; stroke-width: 1.0;"/><polygon fill="#A80036" points="300.75,261.67,296.4841,252.7929,296.9407,258.4313,291.3023,258.8879,300.75,261.67" style="stroke: #A80036; stroke-width: 1.0;"/><text fill="#000000" font-family="sans-serif" font-size="13" lengthAdjust="spacingAndGlyphs" textLength="121" x="308.8108" y="250.9945">lineRendererPrefab</text><!--MD5=[3ce898befeba102de66e91c03f46e3eb]
@startuml
class CharacterButtonHandler {
    Start() : void
    Update() : void
    + ShowCharacterTree() : void
}
MonoBehaviour <|- - CharacterButtonHandler
CharacterButtonHandler - -> "dialogueNodePrefab" GameObject
CharacterButtonHandler - -> "replyNodePrefab" GameObject
CharacterButtonHandler - -> "editCancelButtonPrefab" GameObject
CharacterButtonHandler - -> "saveChangesButtonPrefab" GameObject
CharacterButtonHandler - -> "lineRendererPrefab" LineRenderer
@enduml

PlantUML version 1.2020.02(Sun Mar 01 10:22:07 GMT 2020)
(GPL source distribution)
Java Runtime: OpenJDK Runtime Environment
JVM: OpenJDK 64-Bit Server VM
Java Version: 11.0.9+11-Ubuntu-0ubuntu1
Operating System: Linux
Default Encoding: ANSI_X3.4-1968
Language: en
Country: US
--></g></svg>