<?xml version="1.0" encoding="UTF-8" standalone="no"?><svg xmlns="http://www.w3.org/2000/svg" xmlns:xlink="http://www.w3.org/1999/xlink" contentScriptType="application/ecmascript" contentStyleType="text/css" height="187px" preserveAspectRatio="none" style="width:216px;height:187px;" version="1.1" viewBox="0 0 216 187" width="216px" zoomAndPan="magnify"><defs><filter height="300%" id="fb8faj5n6ojos" width="300%" x="-1" y="-1"><feGaussianBlur result="blurOut" stdDeviation="2.0"/><feColorMatrix in="blurOut" result="blurOut2" type="matrix" values="0 0 0 0 0 0 0 0 0 0 0 0 0 0 0 0 0 0 .4 0"/><feOffset dx="4.0" dy="4.0" in="blurOut2" result="blurOut3"/><feBlend in="SourceGraphic" in2="blurOut3" mode="normal"/></filter></defs><g><!--MD5=[36af38ab83ab8cf2c985dad5d988f2ea]
class CurrentCharacterStage--><rect fill="#FEFECE" filter="url(#fb8faj5n6ojos)" height="60.8047" id="CurrentCharacterStage" style="stroke: #A80036; stroke-width: 1.5;" width="199" x="6" y="116"/><ellipse cx="30.45" cy="132" fill="#ADD1B2" rx="11" ry="11" style="stroke: #A80036; stroke-width: 1.0;"/><path d="M33.4188,137.6406 Q32.8406,137.9375 32.2,138.0781 Q31.5594,138.2344 30.8563,138.2344 Q28.3563,138.2344 27.0281,136.5938 Q25.7156,134.9375 25.7156,131.8125 Q25.7156,128.6875 27.0281,127.0313 Q28.3563,125.375 30.8563,125.375 Q31.5594,125.375 32.2,125.5313 Q32.8563,125.6875 33.4188,125.9844 L33.4188,128.7031 Q32.7938,128.125 32.2,127.8594 Q31.6063,127.5781 30.9813,127.5781 Q29.6375,127.5781 28.95,128.6563 Q28.2625,129.7188 28.2625,131.8125 Q28.2625,133.9063 28.95,134.9844 Q29.6375,136.0469 30.9813,136.0469 Q31.6063,136.0469 32.2,135.7813 Q32.7938,135.5 33.4188,134.9219 L33.4188,137.6406 Z "/><text fill="#000000" font-family="sans-serif" font-size="12" lengthAdjust="spacingAndGlyphs" textLength="146" x="46.55" y="136.1543">CurrentCharacterStage</text><line style="stroke: #A80036; stroke-width: 1.5;" x1="7" x2="204" y1="148" y2="148"/><ellipse cx="17" cy="159" fill="none" rx="3" ry="3" style="stroke: #038048; stroke-width: 1.0;"/><text fill="#000000" font-family="sans-serif" font-size="11" lengthAdjust="spacingAndGlyphs" textLength="173" x="26" y="162.2104">currentDialogueStage : int = 0</text><line style="stroke: #A80036; stroke-width: 1.5;" x1="7" x2="204" y1="168.8047" y2="168.8047"/><!--MD5=[83b3cf3d23d77c6f1e1b5291a241bc2a]
class MonoBehaviour--><rect fill="#FEFECE" filter="url(#fb8faj5n6ojos)" height="48" id="MonoBehaviour" style="stroke: #A80036; stroke-width: 1.5;" width="128" x="41.5" y="8"/><ellipse cx="56.5" cy="24" fill="#ADD1B2" rx="11" ry="11" style="stroke: #A80036; stroke-width: 1.0;"/><path d="M59.4688,29.6406 Q58.8906,29.9375 58.25,30.0781 Q57.6094,30.2344 56.9063,30.2344 Q54.4063,30.2344 53.0781,28.5938 Q51.7656,26.9375 51.7656,23.8125 Q51.7656,20.6875 53.0781,19.0313 Q54.4063,17.375 56.9063,17.375 Q57.6094,17.375 58.25,17.5313 Q58.9063,17.6875 59.4688,17.9844 L59.4688,20.7031 Q58.8438,20.125 58.25,19.8594 Q57.6563,19.5781 57.0313,19.5781 Q55.6875,19.5781 55,20.6563 Q54.3125,21.7188 54.3125,23.8125 Q54.3125,25.9063 55,26.9844 Q55.6875,28.0469 57.0313,28.0469 Q57.6563,28.0469 58.25,27.7813 Q58.8438,27.5 59.4688,26.9219 L59.4688,29.6406 Z "/><text fill="#000000" font-family="sans-serif" font-size="12" lengthAdjust="spacingAndGlyphs" textLength="96" x="70.5" y="28.1543">MonoBehaviour</text><line style="stroke: #A80036; stroke-width: 1.5;" x1="42.5" x2="168.5" y1="40" y2="40"/><line style="stroke: #A80036; stroke-width: 1.5;" x1="42.5" x2="168.5" y1="48" y2="48"/><!--MD5=[819a20b23bd62c9182494971e129143c]
reverse link MonoBehaviour to CurrentCharacterStage--><path d="M105.5,76.11 C105.5,89.31 105.5,103.54 105.5,115.65 " fill="none" id="MonoBehaviour&lt;-CurrentCharacterStage" style="stroke: #A80036; stroke-width: 1.0;"/><polygon fill="none" points="98.5,76.04,105.5,56.04,112.5,76.04,98.5,76.04" style="stroke: #A80036; stroke-width: 1.0;"/><!--MD5=[562a9244eadf31f4ed61194e23c74755]
@startuml
class CurrentCharacterStage {
    + currentDialogueStage : int = 0
}
MonoBehaviour <|- - CurrentCharacterStage
@enduml

PlantUML version 1.2020.02(Sun Mar 01 10:22:07 GMT 2020)
(GPL source distribution)
Java Runtime: OpenJDK Runtime Environment
JVM: OpenJDK 64-Bit Server VM
Java Version: 11.0.9+11-Ubuntu-0ubuntu1
Operating System: Linux
Default Encoding: ANSI_X3.4-1968
Language: en
Country: US
--></g></svg>