<?xml version="1.0" encoding="UTF-8" standalone="no"?><svg xmlns="http://www.w3.org/2000/svg" xmlns:xlink="http://www.w3.org/1999/xlink" contentScriptType="application/ecmascript" contentStyleType="text/css" height="334px" preserveAspectRatio="none" style="width:396px;height:334px;" version="1.1" viewBox="0 0 396 334" width="396px" zoomAndPan="magnify"><defs><filter height="300%" id="f9li6rrt85kvm" width="300%" x="-1" y="-1"><feGaussianBlur result="blurOut" stdDeviation="2.0"/><feColorMatrix in="blurOut" result="blurOut2" type="matrix" values="0 0 0 0 0 0 0 0 0 0 0 0 0 0 0 0 0 0 .4 0"/><feOffset dx="4.0" dy="4.0" in="blurOut2" result="blurOut3"/><feBlend in="SourceGraphic" in2="blurOut3" mode="normal"/></filter></defs><g><!--MD5=[55bd9a43d1a6428ee963b2ef90bb9ad6]
class DialoguePreviewer--><rect fill="#FEFECE" filter="url(#f9li6rrt85kvm)" height="99.2188" id="DialoguePreviewer" style="stroke: #A80036; stroke-width: 1.5;" width="174" x="67.97" y="116"/><ellipse cx="95.12" cy="132" fill="#ADD1B2" rx="11" ry="11" style="stroke: #A80036; stroke-width: 1.0;"/><path d="M98.0888,137.6406 Q97.5106,137.9375 96.87,138.0781 Q96.2294,138.2344 95.5263,138.2344 Q93.0263,138.2344 91.6981,136.5938 Q90.3856,134.9375 90.3856,131.8125 Q90.3856,128.6875 91.6981,127.0313 Q93.0263,125.375 95.5263,125.375 Q96.2294,125.375 96.87,125.5313 Q97.5263,125.6875 98.0888,125.9844 L98.0888,128.7031 Q97.4638,128.125 96.87,127.8594 Q96.2763,127.5781 95.6513,127.5781 Q94.3075,127.5781 93.62,128.6563 Q92.9325,129.7188 92.9325,131.8125 Q92.9325,133.9063 93.62,134.9844 Q94.3075,136.0469 95.6513,136.0469 Q96.2763,136.0469 96.87,135.7813 Q97.4638,135.5 98.0888,134.9219 L98.0888,137.6406 Z "/><text fill="#000000" font-family="sans-serif" font-size="12" lengthAdjust="spacingAndGlyphs" textLength="115" x="111.82" y="136.1543">DialoguePreviewer</text><line style="stroke: #A80036; stroke-width: 1.5;" x1="68.97" x2="240.97" y1="148" y2="148"/><line style="stroke: #A80036; stroke-width: 1.5;" x1="68.97" x2="240.97" y1="156" y2="156"/><ellipse cx="78.97" cy="167" fill="#84BE84" rx="3" ry="3" style="stroke: #038048; stroke-width: 1.0;"/><text fill="#000000" font-family="sans-serif" font-size="11" lengthAdjust="spacingAndGlyphs" textLength="138" x="87.97" y="170.2104">PreviewSaveOne() : void</text><ellipse cx="78.97" cy="179.8047" fill="#84BE84" rx="3" ry="3" style="stroke: #038048; stroke-width: 1.0;"/><text fill="#000000" font-family="sans-serif" font-size="11" lengthAdjust="spacingAndGlyphs" textLength="138" x="87.97" y="183.0151">PreviewSaveTwo() : void</text><ellipse cx="78.97" cy="192.6094" fill="#84BE84" rx="3" ry="3" style="stroke: #038048; stroke-width: 1.0;"/><text fill="#000000" font-family="sans-serif" font-size="11" lengthAdjust="spacingAndGlyphs" textLength="148" x="87.97" y="195.8198">PreviewSaveThree() : void</text><ellipse cx="78.97" cy="205.4141" fill="#84BE84" rx="3" ry="3" style="stroke: #038048; stroke-width: 1.0;"/><text fill="#000000" font-family="sans-serif" font-size="11" lengthAdjust="spacingAndGlyphs" textLength="107" x="87.97" y="208.6245">ExitPreview() : void</text><!--MD5=[83b3cf3d23d77c6f1e1b5291a241bc2a]
class MonoBehaviour--><rect fill="#FEFECE" filter="url(#f9li6rrt85kvm)" height="48" id="MonoBehaviour" style="stroke: #A80036; stroke-width: 1.5;" width="128" x="90.97" y="8"/><ellipse cx="105.97" cy="24" fill="#ADD1B2" rx="11" ry="11" style="stroke: #A80036; stroke-width: 1.0;"/><path d="M108.9388,29.6406 Q108.3606,29.9375 107.72,30.0781 Q107.0794,30.2344 106.3763,30.2344 Q103.8763,30.2344 102.5481,28.5938 Q101.2356,26.9375 101.2356,23.8125 Q101.2356,20.6875 102.5481,19.0313 Q103.8763,17.375 106.3763,17.375 Q107.0794,17.375 107.72,17.5313 Q108.3763,17.6875 108.9388,17.9844 L108.9388,20.7031 Q108.3138,20.125 107.72,19.8594 Q107.1263,19.5781 106.5013,19.5781 Q105.1575,19.5781 104.47,20.6563 Q103.7825,21.7188 103.7825,23.8125 Q103.7825,25.9063 104.47,26.9844 Q105.1575,28.0469 106.5013,28.0469 Q107.1263,28.0469 107.72,27.7813 Q108.3138,27.5 108.9388,26.9219 L108.9388,29.6406 Z "/><text fill="#000000" font-family="sans-serif" font-size="12" lengthAdjust="spacingAndGlyphs" textLength="96" x="119.97" y="28.1543">MonoBehaviour</text><line style="stroke: #A80036; stroke-width: 1.5;" x1="91.97" x2="217.97" y1="40" y2="40"/><line style="stroke: #A80036; stroke-width: 1.5;" x1="91.97" x2="217.97" y1="48" y2="48"/><!--MD5=[064f7a74fee85463ec1a30143664ee17]
class GameObject--><rect fill="#FEFECE" filter="url(#f9li6rrt85kvm)" height="48" id="GameObject" style="stroke: #A80036; stroke-width: 1.5;" width="108" x="100.97" y="275"/><ellipse cx="115.97" cy="291" fill="#ADD1B2" rx="11" ry="11" style="stroke: #A80036; stroke-width: 1.0;"/><path d="M118.9388,296.6406 Q118.3606,296.9375 117.72,297.0781 Q117.0794,297.2344 116.3763,297.2344 Q113.8763,297.2344 112.5481,295.5938 Q111.2356,293.9375 111.2356,290.8125 Q111.2356,287.6875 112.5481,286.0313 Q113.8763,284.375 116.3763,284.375 Q117.0794,284.375 117.72,284.5313 Q118.3763,284.6875 118.9388,284.9844 L118.9388,287.7031 Q118.3138,287.125 117.72,286.8594 Q117.1263,286.5781 116.5013,286.5781 Q115.1575,286.5781 114.47,287.6563 Q113.7825,288.7188 113.7825,290.8125 Q113.7825,292.9063 114.47,293.9844 Q115.1575,295.0469 116.5013,295.0469 Q117.1263,295.0469 117.72,294.7813 Q118.3138,294.5 118.9388,293.9219 L118.9388,296.6406 Z "/><text fill="#000000" font-family="sans-serif" font-size="12" lengthAdjust="spacingAndGlyphs" textLength="76" x="129.97" y="295.1543">GameObject</text><line style="stroke: #A80036; stroke-width: 1.5;" x1="101.97" x2="207.97" y1="307" y2="307"/><line style="stroke: #A80036; stroke-width: 1.5;" x1="101.97" x2="207.97" y1="315" y2="315"/><!--MD5=[904907aec70c3817983bd27a243dd750]
class TextMeshProUGUI--><rect fill="#FEFECE" filter="url(#f9li6rrt85kvm)" height="48" id="TextMeshProUGUI" style="stroke: #A80036; stroke-width: 1.5;" width="142" x="243.97" y="275"/><ellipse cx="258.97" cy="291" fill="#ADD1B2" rx="11" ry="11" style="stroke: #A80036; stroke-width: 1.0;"/><path d="M261.9388,296.6406 Q261.3606,296.9375 260.72,297.0781 Q260.0794,297.2344 259.3763,297.2344 Q256.8763,297.2344 255.5481,295.5938 Q254.2356,293.9375 254.2356,290.8125 Q254.2356,287.6875 255.5481,286.0313 Q256.8763,284.375 259.3763,284.375 Q260.0794,284.375 260.72,284.5313 Q261.3763,284.6875 261.9388,284.9844 L261.9388,287.7031 Q261.3138,287.125 260.72,286.8594 Q260.1263,286.5781 259.5013,286.5781 Q258.1575,286.5781 257.47,287.6563 Q256.7825,288.7188 256.7825,290.8125 Q256.7825,292.9063 257.47,293.9844 Q258.1575,295.0469 259.5013,295.0469 Q260.1263,295.0469 260.72,294.7813 Q261.3138,294.5 261.9388,293.9219 L261.9388,296.6406 Z "/><text fill="#000000" font-family="sans-serif" font-size="12" lengthAdjust="spacingAndGlyphs" textLength="110" x="272.97" y="295.1543">TextMeshProUGUI</text><line style="stroke: #A80036; stroke-width: 1.5;" x1="244.97" x2="384.97" y1="307" y2="307"/><line style="stroke: #A80036; stroke-width: 1.5;" x1="244.97" x2="384.97" y1="315" y2="315"/><!--MD5=[ee85a0bcf89a96c097af06efb79f7b2b]
reverse link MonoBehaviour to DialoguePreviewer--><path d="M154.97,76.51 C154.97,89.14 154.97,103.01 154.97,115.93 " fill="none" id="MonoBehaviour&lt;-DialoguePreviewer" style="stroke: #A80036; stroke-width: 1.0;"/><polygon fill="none" points="147.97,76.21,154.97,56.21,161.97,76.21,147.97,76.21" style="stroke: #A80036; stroke-width: 1.0;"/><!--MD5=[cee6768e39e0232e1109f1e252a64b1f]
link DialoguePreviewer to GameObject--><path d="M142.61,215.09 C141.75,233.5 142.3,253.83 144.28,269.75 " fill="none" id="DialoguePreviewer-&gt;GameObject" style="stroke: #A80036; stroke-width: 1.0;"/><polygon fill="#A80036" points="145,274.98,147.7291,265.5168,144.3149,270.0272,139.8045,266.613,145,274.98" style="stroke: #A80036; stroke-width: 1.0;"/><text fill="#000000" font-family="sans-serif" font-size="13" lengthAdjust="spacingAndGlyphs" textLength="124" x="2.5577" y="263.9869">previewBackground</text><!--MD5=[cee6768e39e0232e1109f1e252a64b1f]
link DialoguePreviewer to GameObject--><path d="M168.05,215.09 C168.96,233.5 168.38,253.83 166.29,269.75 " fill="none" id="DialoguePreviewer-&gt;GameObject-1" style="stroke: #A80036; stroke-width: 1.0;"/><polygon fill="#A80036" points="165.52,274.98,170.7627,266.6425,166.2331,270.0311,162.8445,265.5015,165.52,274.98" style="stroke: #A80036; stroke-width: 1.0;"/><text fill="#000000" font-family="sans-serif" font-size="13" lengthAdjust="spacingAndGlyphs" textLength="82" x="178.5809" y="263.9252">returnButton</text><!--MD5=[209a86e5829d126b767e327640f1712c]
link DialoguePreviewer to TextMeshProUGUI--><path d="M214.09,215.09 C237.26,234.14 262.95,255.25 282.6,271.4 " fill="none" id="DialoguePreviewer-&gt;TextMeshProUGUI" style="stroke: #A80036; stroke-width: 1.0;"/><polygon fill="#A80036" points="286.95,274.98,282.5386,266.1743,283.0879,271.8045,277.4577,272.3538,286.95,274.98" style="stroke: #A80036; stroke-width: 1.0;"/><text fill="#000000" font-family="sans-serif" font-size="13" lengthAdjust="spacingAndGlyphs" textLength="75" x="289.3792" y="263.9869">previewText</text><!--MD5=[50ca8e8fab312a4abbcd49d00d7c217d]
@startuml
class DialoguePreviewer {
    + PreviewSaveOne() : void
    + PreviewSaveTwo() : void
    + PreviewSaveThree() : void
    + ExitPreview() : void
}
MonoBehaviour <|- - DialoguePreviewer
DialoguePreviewer - -> "previewBackground" GameObject
DialoguePreviewer - -> "returnButton" GameObject
DialoguePreviewer - -> "previewText" TextMeshProUGUI
@enduml

PlantUML version 1.2020.02(Sun Mar 01 10:22:07 GMT 2020)
(GPL source distribution)
Java Runtime: OpenJDK Runtime Environment
JVM: OpenJDK 64-Bit Server VM
Java Version: 11.0.9+11-Ubuntu-0ubuntu1
Operating System: Linux
Default Encoding: ANSI_X3.4-1968
Language: en
Country: US
--></g></svg>