<?xml version="1.0" encoding="UTF-8" standalone="no"?><svg xmlns="http://www.w3.org/2000/svg" xmlns:xlink="http://www.w3.org/1999/xlink" contentScriptType="application/ecmascript" contentStyleType="text/css" height="296px" preserveAspectRatio="none" style="width:250px;height:296px;" version="1.1" viewBox="0 0 250 296" width="250px" zoomAndPan="magnify"><defs><filter height="300%" id="f14pr9ufxcxt04" width="300%" x="-1" y="-1"><feGaussianBlur result="blurOut" stdDeviation="2.0"/><feColorMatrix in="blurOut" result="blurOut2" type="matrix" values="0 0 0 0 0 0 0 0 0 0 0 0 0 0 0 0 0 0 .4 0"/><feOffset dx="4.0" dy="4.0" in="blurOut2" result="blurOut3"/><feBlend in="SourceGraphic" in2="blurOut3" mode="normal"/></filter></defs><g><!--MD5=[9a7a1278bed73895f88fbac16bced356]
class DialogueTreeShapeSetter--><rect fill="#FEFECE" filter="url(#f14pr9ufxcxt04)" height="60.8047" id="DialogueTreeShapeSetter" style="stroke: #A80036; stroke-width: 1.5;" width="194" x="45" y="116"/><ellipse cx="60" cy="132" fill="#ADD1B2" rx="11" ry="11" style="stroke: #A80036; stroke-width: 1.0;"/><path d="M62.9688,137.6406 Q62.3906,137.9375 61.75,138.0781 Q61.1094,138.2344 60.4063,138.2344 Q57.9063,138.2344 56.5781,136.5938 Q55.2656,134.9375 55.2656,131.8125 Q55.2656,128.6875 56.5781,127.0313 Q57.9063,125.375 60.4063,125.375 Q61.1094,125.375 61.75,125.5313 Q62.4063,125.6875 62.9688,125.9844 L62.9688,128.7031 Q62.3438,128.125 61.75,127.8594 Q61.1563,127.5781 60.5313,127.5781 Q59.1875,127.5781 58.5,128.6563 Q57.8125,129.7188 57.8125,131.8125 Q57.8125,133.9063 58.5,134.9844 Q59.1875,136.0469 60.5313,136.0469 Q61.1563,136.0469 61.75,135.7813 Q62.3438,135.5 62.9688,134.9219 L62.9688,137.6406 Z "/><text fill="#000000" font-family="sans-serif" font-size="12" lengthAdjust="spacingAndGlyphs" textLength="162" x="74" y="136.1543">DialogueTreeShapeSetter</text><line style="stroke: #A80036; stroke-width: 1.5;" x1="46" x2="238" y1="148" y2="148"/><line style="stroke: #A80036; stroke-width: 1.5;" x1="46" x2="238" y1="156" y2="156"/><ellipse cx="56" cy="167" fill="#84BE84" rx="3" ry="3" style="stroke: #038048; stroke-width: 1.0;"/><text fill="#000000" font-family="sans-serif" font-size="11" lengthAdjust="spacingAndGlyphs" textLength="98" x="65" y="170.2104">SetShape() : void</text><!--MD5=[83b3cf3d23d77c6f1e1b5291a241bc2a]
class MonoBehaviour--><rect fill="#FEFECE" filter="url(#f14pr9ufxcxt04)" height="48" id="MonoBehaviour" style="stroke: #A80036; stroke-width: 1.5;" width="128" x="78" y="8"/><ellipse cx="93" cy="24" fill="#ADD1B2" rx="11" ry="11" style="stroke: #A80036; stroke-width: 1.0;"/><path d="M95.9688,29.6406 Q95.3906,29.9375 94.75,30.0781 Q94.1094,30.2344 93.4063,30.2344 Q90.9063,30.2344 89.5781,28.5938 Q88.2656,26.9375 88.2656,23.8125 Q88.2656,20.6875 89.5781,19.0313 Q90.9063,17.375 93.4063,17.375 Q94.1094,17.375 94.75,17.5313 Q95.4063,17.6875 95.9688,17.9844 L95.9688,20.7031 Q95.3438,20.125 94.75,19.8594 Q94.1563,19.5781 93.5313,19.5781 Q92.1875,19.5781 91.5,20.6563 Q90.8125,21.7188 90.8125,23.8125 Q90.8125,25.9063 91.5,26.9844 Q92.1875,28.0469 93.5313,28.0469 Q94.1563,28.0469 94.75,27.7813 Q95.3438,27.5 95.9688,26.9219 L95.9688,29.6406 Z "/><text fill="#000000" font-family="sans-serif" font-size="12" lengthAdjust="spacingAndGlyphs" textLength="96" x="107" y="28.1543">MonoBehaviour</text><line style="stroke: #A80036; stroke-width: 1.5;" x1="79" x2="205" y1="40" y2="40"/><line style="stroke: #A80036; stroke-width: 1.5;" x1="79" x2="205" y1="48" y2="48"/><!--MD5=[db462180693f7e61cf3217ec29875f93]
class LineRenderer--><rect fill="#FEFECE" filter="url(#f14pr9ufxcxt04)" height="48" id="LineRenderer" style="stroke: #A80036; stroke-width: 1.5;" width="115" x="84.5" y="237"/><ellipse cx="99.5" cy="253" fill="#ADD1B2" rx="11" ry="11" style="stroke: #A80036; stroke-width: 1.0;"/><path d="M102.4688,258.6406 Q101.8906,258.9375 101.25,259.0781 Q100.6094,259.2344 99.9063,259.2344 Q97.4063,259.2344 96.0781,257.5938 Q94.7656,255.9375 94.7656,252.8125 Q94.7656,249.6875 96.0781,248.0313 Q97.4063,246.375 99.9063,246.375 Q100.6094,246.375 101.25,246.5313 Q101.9063,246.6875 102.4688,246.9844 L102.4688,249.7031 Q101.8438,249.125 101.25,248.8594 Q100.6563,248.5781 100.0313,248.5781 Q98.6875,248.5781 98,249.6563 Q97.3125,250.7188 97.3125,252.8125 Q97.3125,254.9063 98,255.9844 Q98.6875,257.0469 100.0313,257.0469 Q100.6563,257.0469 101.25,256.7813 Q101.8438,256.5 102.4688,255.9219 L102.4688,258.6406 Z "/><text fill="#000000" font-family="sans-serif" font-size="12" lengthAdjust="spacingAndGlyphs" textLength="83" x="113.5" y="257.1543">LineRenderer</text><line style="stroke: #A80036; stroke-width: 1.5;" x1="85.5" x2="198.5" y1="269" y2="269"/><line style="stroke: #A80036; stroke-width: 1.5;" x1="85.5" x2="198.5" y1="277" y2="277"/><!--MD5=[edbcd3a3ee59da88f90ad00cb7dfd88c]
reverse link MonoBehaviour to DialogueTreeShapeSetter--><path d="M142,76.11 C142,89.31 142,103.54 142,115.65 " fill="none" id="MonoBehaviour&lt;-DialogueTreeShapeSetter" style="stroke: #A80036; stroke-width: 1.0;"/><polygon fill="none" points="135,76.04,142,56.04,149,76.04,135,76.04" style="stroke: #A80036; stroke-width: 1.0;"/><!--MD5=[ff256212ba0d1f45d3161a1d8b49234f]
link DialogueTreeShapeSetter to LineRenderer--><path d="M142,177.06 C142,193.93 142,214.98 142,231.65 " fill="none" id="DialogueTreeShapeSetter-&gt;LineRenderer" style="stroke: #A80036; stroke-width: 1.0;"/><polygon fill="#A80036" points="142,236.67,146,227.67,142,231.67,138,227.67,142,236.67" style="stroke: #A80036; stroke-width: 1.0;"/><text fill="#000000" font-family="sans-serif" font-size="13" lengthAdjust="spacingAndGlyphs" textLength="121" x="6.2531" y="225.9945">lineRendererPrefab</text><!--MD5=[f8f5fe61fbc415a0b696aa7ae75ffc9b]
@startuml
class DialogueTreeShapeSetter {
    + SetShape() : void
}
MonoBehaviour <|- - DialogueTreeShapeSetter
DialogueTreeShapeSetter - -> "lineRendererPrefab" LineRenderer
@enduml

PlantUML version 1.2020.02(Sun Mar 01 10:22:07 GMT 2020)
(GPL source distribution)
Java Runtime: OpenJDK Runtime Environment
JVM: OpenJDK 64-Bit Server VM
Java Version: 11.0.9+11-Ubuntu-0ubuntu1
Operating System: Linux
Default Encoding: ANSI_X3.4-1968
Language: en
Country: US
--></g></svg>