<?xml version="1.0" encoding="UTF-8" standalone="no"?><svg xmlns="http://www.w3.org/2000/svg" xmlns:xlink="http://www.w3.org/1999/xlink" contentScriptType="application/ecmascript" contentStyleType="text/css" height="239px" preserveAspectRatio="none" style="width:181px;height:239px;" version="1.1" viewBox="0 0 181 239" width="181px" zoomAndPan="magnify"><defs><filter height="300%" id="frqk70ej8h0xq" width="300%" x="-1" y="-1"><feGaussianBlur result="blurOut" stdDeviation="2.0"/><feColorMatrix in="blurOut" result="blurOut2" type="matrix" values="0 0 0 0 0 0 0 0 0 0 0 0 0 0 0 0 0 0 .4 0"/><feOffset dx="4.0" dy="4.0" in="blurOut2" result="blurOut3"/><feBlend in="SourceGraphic" in2="blurOut3" mode="normal"/></filter></defs><g><!--MD5=[f9184af29134a1f40e1f61756671f923]
class DialogueLoader--><rect fill="#FEFECE" filter="url(#frqk70ej8h0xq)" height="112.0234" id="DialogueLoader" style="stroke: #A80036; stroke-width: 1.5;" width="164" x="6" y="116"/><ellipse cx="36.3" cy="132" fill="#ADD1B2" rx="11" ry="11" style="stroke: #A80036; stroke-width: 1.0;"/><path d="M39.2688,137.6406 Q38.6906,137.9375 38.05,138.0781 Q37.4094,138.2344 36.7063,138.2344 Q34.2063,138.2344 32.8781,136.5938 Q31.5656,134.9375 31.5656,131.8125 Q31.5656,128.6875 32.8781,127.0313 Q34.2063,125.375 36.7063,125.375 Q37.4094,125.375 38.05,125.5313 Q38.7063,125.6875 39.2688,125.9844 L39.2688,128.7031 Q38.6438,128.125 38.05,127.8594 Q37.4563,127.5781 36.8313,127.5781 Q35.4875,127.5781 34.8,128.6563 Q34.1125,129.7188 34.1125,131.8125 Q34.1125,133.9063 34.8,134.9844 Q35.4875,136.0469 36.8313,136.0469 Q37.4563,136.0469 38.05,135.7813 Q38.6438,135.5 39.2688,134.9219 L39.2688,137.6406 Z "/><text fill="#000000" font-family="sans-serif" font-size="12" lengthAdjust="spacingAndGlyphs" textLength="98" x="53.7" y="136.1543">DialogueLoader</text><line style="stroke: #A80036; stroke-width: 1.5;" x1="7" x2="169" y1="148" y2="148"/><line style="stroke: #A80036; stroke-width: 1.5;" x1="7" x2="169" y1="156" y2="156"/><text fill="#000000" font-family="sans-serif" font-size="11" lengthAdjust="spacingAndGlyphs" textLength="71" x="26" y="170.2104">Start() : void</text><ellipse cx="17" cy="179.8047" fill="#84BE84" rx="3" ry="3" style="stroke: #038048; stroke-width: 1.0;"/><text fill="#000000" font-family="sans-serif" font-size="11" lengthAdjust="spacingAndGlyphs" textLength="138" x="26" y="183.0151">LoadSaveDefault() : void</text><ellipse cx="17" cy="192.6094" fill="#84BE84" rx="3" ry="3" style="stroke: #038048; stroke-width: 1.0;"/><text fill="#000000" font-family="sans-serif" font-size="11" lengthAdjust="spacingAndGlyphs" textLength="121" x="26" y="195.8198">LoadSaveOne() : void</text><ellipse cx="17" cy="205.4141" fill="#84BE84" rx="3" ry="3" style="stroke: #038048; stroke-width: 1.0;"/><text fill="#000000" font-family="sans-serif" font-size="11" lengthAdjust="spacingAndGlyphs" textLength="121" x="26" y="208.6245">LoadSaveTwo() : void</text><ellipse cx="17" cy="218.2188" fill="#84BE84" rx="3" ry="3" style="stroke: #038048; stroke-width: 1.0;"/><text fill="#000000" font-family="sans-serif" font-size="11" lengthAdjust="spacingAndGlyphs" textLength="131" x="26" y="221.4292">LoadSaveThree() : void</text><!--MD5=[83b3cf3d23d77c6f1e1b5291a241bc2a]
class MonoBehaviour--><rect fill="#FEFECE" filter="url(#frqk70ej8h0xq)" height="48" id="MonoBehaviour" style="stroke: #A80036; stroke-width: 1.5;" width="128" x="24" y="8"/><ellipse cx="39" cy="24" fill="#ADD1B2" rx="11" ry="11" style="stroke: #A80036; stroke-width: 1.0;"/><path d="M41.9688,29.6406 Q41.3906,29.9375 40.75,30.0781 Q40.1094,30.2344 39.4063,30.2344 Q36.9063,30.2344 35.5781,28.5938 Q34.2656,26.9375 34.2656,23.8125 Q34.2656,20.6875 35.5781,19.0313 Q36.9063,17.375 39.4063,17.375 Q40.1094,17.375 40.75,17.5313 Q41.4063,17.6875 41.9688,17.9844 L41.9688,20.7031 Q41.3438,20.125 40.75,19.8594 Q40.1563,19.5781 39.5313,19.5781 Q38.1875,19.5781 37.5,20.6563 Q36.8125,21.7188 36.8125,23.8125 Q36.8125,25.9063 37.5,26.9844 Q38.1875,28.0469 39.5313,28.0469 Q40.1563,28.0469 40.75,27.7813 Q41.3438,27.5 41.9688,26.9219 L41.9688,29.6406 Z "/><text fill="#000000" font-family="sans-serif" font-size="12" lengthAdjust="spacingAndGlyphs" textLength="96" x="53" y="28.1543">MonoBehaviour</text><line style="stroke: #A80036; stroke-width: 1.5;" x1="25" x2="151" y1="40" y2="40"/><line style="stroke: #A80036; stroke-width: 1.5;" x1="25" x2="151" y1="48" y2="48"/><!--MD5=[e0d14308d36c5baf74cce622bd38e5fd]
reverse link MonoBehaviour to DialogueLoader--><path d="M88,76.25 C88,88.82 88,102.73 88,115.93 " fill="none" id="MonoBehaviour&lt;-DialogueLoader" style="stroke: #A80036; stroke-width: 1.0;"/><polygon fill="none" points="81,76.1,88,56.1,95,76.1,81,76.1" style="stroke: #A80036; stroke-width: 1.0;"/><!--MD5=[e8bb95a54dae315adef52fc8fed8081e]
@startuml
class DialogueLoader {
    Start() : void
    + LoadSaveDefault() : void
    + LoadSaveOne() : void
    + LoadSaveTwo() : void
    + LoadSaveThree() : void
}
MonoBehaviour <|- - DialogueLoader
@enduml

PlantUML version 1.2020.02(Sun Mar 01 10:22:07 GMT 2020)
(GPL source distribution)
Java Runtime: OpenJDK Runtime Environment
JVM: OpenJDK 64-Bit Server VM
Java Version: 11.0.9+11-Ubuntu-0ubuntu1
Operating System: Linux
Default Encoding: ANSI_X3.4-1968
Language: en
Country: US
--></g></svg>