<?xml version="1.0" encoding="UTF-8" standalone="no"?><svg xmlns="http://www.w3.org/2000/svg" xmlns:xlink="http://www.w3.org/1999/xlink" contentScriptType="application/ecmascript" contentStyleType="text/css" height="437px" preserveAspectRatio="none" style="width:682px;height:437px;" version="1.1" viewBox="0 0 682 437" width="682px" zoomAndPan="magnify"><defs><filter height="300%" id="f1hednt49tls4m" width="300%" x="-1" y="-1"><feGaussianBlur result="blurOut" stdDeviation="2.0"/><feColorMatrix in="blurOut" result="blurOut2" type="matrix" values="0 0 0 0 0 0 0 0 0 0 0 0 0 0 0 0 0 0 .4 0"/><feOffset dx="4.0" dy="4.0" in="blurOut2" result="blurOut3"/><feBlend in="SourceGraphic" in2="blurOut3" mode="normal"/></filter></defs><g><!--MD5=[4700e99c8aec9fdb5bc3cbac07fa5051]
class DialogueEditor--><rect fill="#FEFECE" filter="url(#f1hednt49tls4m)" height="201.6563" id="DialogueEditor" style="stroke: #A80036; stroke-width: 1.5;" width="265" x="17.5" y="116"/><ellipse cx="99.75" cy="132" fill="#ADD1B2" rx="11" ry="11" style="stroke: #A80036; stroke-width: 1.0;"/><path d="M102.7188,137.6406 Q102.1406,137.9375 101.5,138.0781 Q100.8594,138.2344 100.1563,138.2344 Q97.6563,138.2344 96.3281,136.5938 Q95.0156,134.9375 95.0156,131.8125 Q95.0156,128.6875 96.3281,127.0313 Q97.6563,125.375 100.1563,125.375 Q100.8594,125.375 101.5,125.5313 Q102.1563,125.6875 102.7188,125.9844 L102.7188,128.7031 Q102.0938,128.125 101.5,127.8594 Q100.9063,127.5781 100.2813,127.5781 Q98.9375,127.5781 98.25,128.6563 Q97.5625,129.7188 97.5625,131.8125 Q97.5625,133.9063 98.25,134.9844 Q98.9375,136.0469 100.2813,136.0469 Q100.9063,136.0469 101.5,135.7813 Q102.0938,135.5 102.7188,134.9219 L102.7188,137.6406 Z "/><text fill="#000000" font-family="sans-serif" font-size="12" lengthAdjust="spacingAndGlyphs" textLength="92" x="120.25" y="136.1543">DialogueEditor</text><line style="stroke: #A80036; stroke-width: 1.5;" x1="18.5" x2="281.5" y1="148" y2="148"/><ellipse cx="28.5" cy="159" fill="none" rx="3" ry="3" style="stroke: #038048; stroke-width: 1.0;"/><text fill="#000000" font-family="sans-serif" font-size="11" lengthAdjust="spacingAndGlyphs" textLength="90" x="37.5" y="162.2104">editable : string</text><line style="stroke: #A80036; stroke-width: 1.5;" x1="18.5" x2="281.5" y1="168.8047" y2="168.8047"/><text fill="#000000" font-family="sans-serif" font-size="11" lengthAdjust="spacingAndGlyphs" textLength="71" x="37.5" y="183.0151">Start() : void</text><text fill="#000000" font-family="sans-serif" font-size="11" lengthAdjust="spacingAndGlyphs" textLength="83" x="37.5" y="195.8198">Update() : void</text><ellipse cx="28.5" cy="205.4141" fill="#84BE84" rx="3" ry="3" style="stroke: #038048; stroke-width: 1.0;"/><text fill="#000000" font-family="sans-serif" font-size="11" lengthAdjust="spacingAndGlyphs" textLength="174" x="37.5" y="208.6245">CreateCharacterButton() : void</text><ellipse cx="28.5" cy="218.2188" fill="#84BE84" rx="3" ry="3" style="stroke: #038048; stroke-width: 1.0;"/><text fill="#000000" font-family="sans-serif" font-size="11" lengthAdjust="spacingAndGlyphs" textLength="120" x="37.5" y="221.4292">AddCharacter() : void</text><ellipse cx="28.5" cy="231.0234" fill="#84BE84" rx="3" ry="3" style="stroke: #038048; stroke-width: 1.0;"/><text fill="#000000" font-family="sans-serif" font-size="11" lengthAdjust="spacingAndGlyphs" textLength="161" x="37.5" y="234.2339">CancelNewCharacter() : void</text><ellipse cx="28.5" cy="243.8281" fill="#84BE84" rx="3" ry="3" style="stroke: #038048; stroke-width: 1.0;"/><text fill="#000000" font-family="sans-serif" font-size="11" lengthAdjust="spacingAndGlyphs" textLength="203" x="37.5" y="247.0386">InstantiateCharacterButtons() : void</text><ellipse cx="28.5" cy="256.6328" fill="#84BE84" rx="3" ry="3" style="stroke: #038048; stroke-width: 1.0;"/><text fill="#000000" font-family="sans-serif" font-size="11" lengthAdjust="spacingAndGlyphs" textLength="187" x="37.5" y="259.8433">DestroyCharacterButtons() : void</text><text fill="#000000" font-family="sans-serif" font-size="11" lengthAdjust="spacingAndGlyphs" textLength="239" x="37.5" y="272.6479">readTextFile(filePath:string) : List&lt;string&gt;</text><ellipse cx="28.5" cy="282.2422" fill="#84BE84" rx="3" ry="3" style="stroke: #038048; stroke-width: 1.0;"/><text fill="#000000" font-family="sans-serif" font-size="11" lengthAdjust="spacingAndGlyphs" textLength="127" x="37.5" y="285.4526">ToSaveFileOne() : void</text><ellipse cx="28.5" cy="295.0469" fill="#84BE84" rx="3" ry="3" style="stroke: #038048; stroke-width: 1.0;"/><text fill="#000000" font-family="sans-serif" font-size="11" lengthAdjust="spacingAndGlyphs" textLength="127" x="37.5" y="298.2573">ToSaveFileTwo() : void</text><ellipse cx="28.5" cy="307.8516" fill="#84BE84" rx="3" ry="3" style="stroke: #038048; stroke-width: 1.0;"/><text fill="#000000" font-family="sans-serif" font-size="11" lengthAdjust="spacingAndGlyphs" textLength="137" x="37.5" y="311.062">ToSaveFileThree() : void</text><!--MD5=[e644022de7dea015dd09463c37421447]
class List`1--><rect fill="#FEFECE" filter="url(#f1hednt49tls4m)" height="48" id="List`1" style="stroke: #A80036; stroke-width: 1.5;" width="78" x="318" y="193"/><ellipse cx="333" cy="209" fill="#ADD1B2" rx="11" ry="11" style="stroke: #A80036; stroke-width: 1.0;"/><path d="M335.9688,214.6406 Q335.3906,214.9375 334.75,215.0781 Q334.1094,215.2344 333.4063,215.2344 Q330.9063,215.2344 329.5781,213.5938 Q328.2656,211.9375 328.2656,208.8125 Q328.2656,205.6875 329.5781,204.0313 Q330.9063,202.375 333.4063,202.375 Q334.1094,202.375 334.75,202.5313 Q335.4063,202.6875 335.9688,202.9844 L335.9688,205.7031 Q335.3438,205.125 334.75,204.8594 Q334.1563,204.5781 333.5313,204.5781 Q332.1875,204.5781 331.5,205.6563 Q330.8125,206.7188 330.8125,208.8125 Q330.8125,210.9063 331.5,211.9844 Q332.1875,213.0469 333.5313,213.0469 Q334.1563,213.0469 334.75,212.7813 Q335.3438,212.5 335.9688,211.9219 L335.9688,214.6406 Z "/><text fill="#000000" font-family="sans-serif" font-size="12" lengthAdjust="spacingAndGlyphs" textLength="35" x="347" y="213.1543">List`1</text><rect fill="#FFFFFF" height="15.9688" style="stroke: #000000; stroke-width: 1.0; stroke-dasharray: 2.0,2.0;" width="9" x="390" y="190"/><text fill="#000000" font-family="sans-serif" font-size="12" font-style="italic" lengthAdjust="spacingAndGlyphs" textLength="7" x="391" y="202.1387">T</text><line style="stroke: #A80036; stroke-width: 1.5;" x1="319" x2="395" y1="225" y2="225"/><line style="stroke: #A80036; stroke-width: 1.5;" x1="319" x2="395" y1="233" y2="233"/><!--MD5=[83b3cf3d23d77c6f1e1b5291a241bc2a]
class MonoBehaviour--><rect fill="#FEFECE" filter="url(#f1hednt49tls4m)" height="48" id="MonoBehaviour" style="stroke: #A80036; stroke-width: 1.5;" width="128" x="86" y="8"/><ellipse cx="101" cy="24" fill="#ADD1B2" rx="11" ry="11" style="stroke: #A80036; stroke-width: 1.0;"/><path d="M103.9688,29.6406 Q103.3906,29.9375 102.75,30.0781 Q102.1094,30.2344 101.4063,30.2344 Q98.9063,30.2344 97.5781,28.5938 Q96.2656,26.9375 96.2656,23.8125 Q96.2656,20.6875 97.5781,19.0313 Q98.9063,17.375 101.4063,17.375 Q102.1094,17.375 102.75,17.5313 Q103.4063,17.6875 103.9688,17.9844 L103.9688,20.7031 Q103.3438,20.125 102.75,19.8594 Q102.1563,19.5781 101.5313,19.5781 Q100.1875,19.5781 99.5,20.6563 Q98.8125,21.7188 98.8125,23.8125 Q98.8125,25.9063 99.5,26.9844 Q100.1875,28.0469 101.5313,28.0469 Q102.1563,28.0469 102.75,27.7813 Q103.3438,27.5 103.9688,26.9219 L103.9688,29.6406 Z "/><text fill="#000000" font-family="sans-serif" font-size="12" lengthAdjust="spacingAndGlyphs" textLength="96" x="115" y="28.1543">MonoBehaviour</text><line style="stroke: #A80036; stroke-width: 1.5;" x1="87" x2="213" y1="40" y2="40"/><line style="stroke: #A80036; stroke-width: 1.5;" x1="87" x2="213" y1="48" y2="48"/><!--MD5=[064f7a74fee85463ec1a30143664ee17]
class GameObject--><rect fill="#FEFECE" filter="url(#f1hednt49tls4m)" height="48" id="GameObject" style="stroke: #A80036; stroke-width: 1.5;" width="108" x="96" y="378"/><ellipse cx="111" cy="394" fill="#ADD1B2" rx="11" ry="11" style="stroke: #A80036; stroke-width: 1.0;"/><path d="M113.9688,399.6406 Q113.3906,399.9375 112.75,400.0781 Q112.1094,400.2344 111.4063,400.2344 Q108.9063,400.2344 107.5781,398.5938 Q106.2656,396.9375 106.2656,393.8125 Q106.2656,390.6875 107.5781,389.0313 Q108.9063,387.375 111.4063,387.375 Q112.1094,387.375 112.75,387.5313 Q113.4063,387.6875 113.9688,387.9844 L113.9688,390.7031 Q113.3438,390.125 112.75,389.8594 Q112.1563,389.5781 111.5313,389.5781 Q110.1875,389.5781 109.5,390.6563 Q108.8125,391.7188 108.8125,393.8125 Q108.8125,395.9063 109.5,396.9844 Q110.1875,398.0469 111.5313,398.0469 Q112.1563,398.0469 112.75,397.7813 Q113.3438,397.5 113.9688,396.9219 L113.9688,399.6406 Z "/><text fill="#000000" font-family="sans-serif" font-size="12" lengthAdjust="spacingAndGlyphs" textLength="76" x="125" y="398.1543">GameObject</text><line style="stroke: #A80036; stroke-width: 1.5;" x1="97" x2="203" y1="410" y2="410"/><line style="stroke: #A80036; stroke-width: 1.5;" x1="97" x2="203" y1="418" y2="418"/><!--MD5=[004b1d6c4ca8aad4ba8b586a335ed4f3]
class Transform--><rect fill="#FEFECE" filter="url(#f1hednt49tls4m)" height="48" id="Transform" style="stroke: #A80036; stroke-width: 1.5;" width="95" x="239.5" y="378"/><ellipse cx="254.5" cy="394" fill="#ADD1B2" rx="11" ry="11" style="stroke: #A80036; stroke-width: 1.0;"/><path d="M257.4688,399.6406 Q256.8906,399.9375 256.25,400.0781 Q255.6094,400.2344 254.9063,400.2344 Q252.4063,400.2344 251.0781,398.5938 Q249.7656,396.9375 249.7656,393.8125 Q249.7656,390.6875 251.0781,389.0313 Q252.4063,387.375 254.9063,387.375 Q255.6094,387.375 256.25,387.5313 Q256.9063,387.6875 257.4688,387.9844 L257.4688,390.7031 Q256.8438,390.125 256.25,389.8594 Q255.6563,389.5781 255.0313,389.5781 Q253.6875,389.5781 253,390.6563 Q252.3125,391.7188 252.3125,393.8125 Q252.3125,395.9063 253,396.9844 Q253.6875,398.0469 255.0313,398.0469 Q255.6563,398.0469 256.25,397.7813 Q256.8438,397.5 257.4688,396.9219 L257.4688,399.6406 Z "/><text fill="#000000" font-family="sans-serif" font-size="12" lengthAdjust="spacingAndGlyphs" textLength="63" x="268.5" y="398.1543">Transform</text><line style="stroke: #A80036; stroke-width: 1.5;" x1="240.5" x2="333.5" y1="410" y2="410"/><line style="stroke: #A80036; stroke-width: 1.5;" x1="240.5" x2="333.5" y1="418" y2="418"/><!--MD5=[c05919f88dab9d999cd7bd146db477c0]
class TMP_InputField--><rect fill="#FEFECE" filter="url(#f1hednt49tls4m)" height="48" id="TMP_InputField" style="stroke: #A80036; stroke-width: 1.5;" width="124" x="370" y="378"/><ellipse cx="385" cy="394" fill="#ADD1B2" rx="11" ry="11" style="stroke: #A80036; stroke-width: 1.0;"/><path d="M387.9688,399.6406 Q387.3906,399.9375 386.75,400.0781 Q386.1094,400.2344 385.4063,400.2344 Q382.9063,400.2344 381.5781,398.5938 Q380.2656,396.9375 380.2656,393.8125 Q380.2656,390.6875 381.5781,389.0313 Q382.9063,387.375 385.4063,387.375 Q386.1094,387.375 386.75,387.5313 Q387.4063,387.6875 387.9688,387.9844 L387.9688,390.7031 Q387.3438,390.125 386.75,389.8594 Q386.1563,389.5781 385.5313,389.5781 Q384.1875,389.5781 383.5,390.6563 Q382.8125,391.7188 382.8125,393.8125 Q382.8125,395.9063 383.5,396.9844 Q384.1875,398.0469 385.5313,398.0469 Q386.1563,398.0469 386.75,397.7813 Q387.3438,397.5 387.9688,396.9219 L387.9688,399.6406 Z "/><text fill="#000000" font-family="sans-serif" font-size="12" lengthAdjust="spacingAndGlyphs" textLength="92" x="399" y="398.1543">TMP_InputField</text><line style="stroke: #A80036; stroke-width: 1.5;" x1="371" x2="493" y1="410" y2="410"/><line style="stroke: #A80036; stroke-width: 1.5;" x1="371" x2="493" y1="418" y2="418"/><!--MD5=[904907aec70c3817983bd27a243dd750]
class TextMeshProUGUI--><rect fill="#FEFECE" filter="url(#f1hednt49tls4m)" height="48" id="TextMeshProUGUI" style="stroke: #A80036; stroke-width: 1.5;" width="142" x="529" y="378"/><ellipse cx="544" cy="394" fill="#ADD1B2" rx="11" ry="11" style="stroke: #A80036; stroke-width: 1.0;"/><path d="M546.9688,399.6406 Q546.3906,399.9375 545.75,400.0781 Q545.1094,400.2344 544.4063,400.2344 Q541.9063,400.2344 540.5781,398.5938 Q539.2656,396.9375 539.2656,393.8125 Q539.2656,390.6875 540.5781,389.0313 Q541.9063,387.375 544.4063,387.375 Q545.1094,387.375 545.75,387.5313 Q546.4063,387.6875 546.9688,387.9844 L546.9688,390.7031 Q546.3438,390.125 545.75,389.8594 Q545.1563,389.5781 544.5313,389.5781 Q543.1875,389.5781 542.5,390.6563 Q541.8125,391.7188 541.8125,393.8125 Q541.8125,395.9063 542.5,396.9844 Q543.1875,398.0469 544.5313,398.0469 Q545.1563,398.0469 545.75,397.7813 Q546.3438,397.5 546.9688,396.9219 L546.9688,399.6406 Z "/><text fill="#000000" font-family="sans-serif" font-size="12" lengthAdjust="spacingAndGlyphs" textLength="110" x="558" y="398.1543">TextMeshProUGUI</text><line style="stroke: #A80036; stroke-width: 1.5;" x1="530" x2="670" y1="410" y2="410"/><line style="stroke: #A80036; stroke-width: 1.5;" x1="530" x2="670" y1="418" y2="418"/><!--MD5=[7c2fd7f66cacf137e405e710a183579a]
reverse link MonoBehaviour to DialogueEditor--><path d="M150,76.46 C150,88.49 150,102.06 150,115.9 " fill="none" id="MonoBehaviour&lt;-DialogueEditor" style="stroke: #A80036; stroke-width: 1.0;"/><polygon fill="none" points="143,76.18,150,56.18,157,76.18,143,76.18" style="stroke: #A80036; stroke-width: 1.0;"/><!--MD5=[cf35115fedd1a7a1862fe44dae42a5dd]
link DialogueEditor to GameObject--><path d="M97.71,318.07 C98.68,338.33 103.11,358.03 111.01,373.15 " fill="none" id="DialogueEditor-&gt;GameObject" style="stroke: #A80036; stroke-width: 1.0;"/><polygon fill="#A80036" points="113.57,377.68,112.6195,367.8771,111.1078,373.3283,105.6567,371.8166,113.57,377.68" style="stroke: #A80036; stroke-width: 1.0;"/><text fill="#000000" font-family="sans-serif" font-size="13" lengthAdjust="spacingAndGlyphs" textLength="91" x="2.5996" y="367.007">dialogueEditor</text><!--MD5=[cf35115fedd1a7a1862fe44dae42a5dd]
link DialogueEditor to GameObject--><path d="M123.85,318.07 C124.33,338.16 126.52,357.69 130.4,372.75 " fill="none" id="DialogueEditor-&gt;GameObject-1" style="stroke: #A80036; stroke-width: 1.0;"/><polygon fill="#A80036" points="131.78,377.68,133.2148,367.9362,130.4366,372.8638,125.509,370.0856,131.78,377.68" style="stroke: #A80036; stroke-width: 1.0;"/><text fill="#000000" font-family="sans-serif" font-size="13" lengthAdjust="spacingAndGlyphs" textLength="145" x="144.9022" y="366.9452">characterButtonPrefab</text><!--MD5=[cf35115fedd1a7a1862fe44dae42a5dd]
link DialogueEditor to GameObject--><path d="M150,318.07 C150,337.98 150,357.35 150,372.36 " fill="none" id="DialogueEditor-&gt;GameObject-2" style="stroke: #A80036; stroke-width: 1.0;"/><polygon fill="#A80036" points="150,377.68,154,368.68,150,372.68,146,368.68,150,377.68" style="stroke: #A80036; stroke-width: 1.0;"/><text fill="#000000" font-family="sans-serif" font-size="13" lengthAdjust="spacingAndGlyphs" textLength="129" x="-41.8875" y="373.4121">dialogueNodePrefab</text><!--MD5=[cf35115fedd1a7a1862fe44dae42a5dd]
link DialogueEditor to GameObject--><path d="M176.15,318.07 C175.67,338.16 173.48,357.69 169.6,372.75 " fill="none" id="DialogueEditor-&gt;GameObject-3" style="stroke: #A80036; stroke-width: 1.0;"/><polygon fill="#A80036" points="168.22,377.68,174.491,370.0856,169.5634,372.8638,166.7852,367.9362,168.22,377.68" style="stroke: #A80036; stroke-width: 1.0;"/><text fill="#000000" font-family="sans-serif" font-size="13" lengthAdjust="spacingAndGlyphs" textLength="130" x="188.4525" y="366.9452">addCharacterButton</text><!--MD5=[cf35115fedd1a7a1862fe44dae42a5dd]
link DialogueEditor to GameObject--><path d="M202.29,318.07 C201.32,338.33 196.89,358.03 188.99,373.15 " fill="none" id="DialogueEditor-&gt;GameObject-4" style="stroke: #A80036; stroke-width: 1.0;"/><polygon fill="#A80036" points="186.43,377.68,194.3433,371.8166,188.8922,373.3283,187.3805,367.8771,186.43,377.68" style="stroke: #A80036; stroke-width: 1.0;"/><text fill="#000000" font-family="sans-serif" font-size="13" lengthAdjust="spacingAndGlyphs" textLength="77" x="202.722" y="366.9437">abortButton</text><!--MD5=[1cf3a2926af162bbdc2ee9b20fe2dc2a]
link DialogueEditor to List`1--><path d="M282.61,286.76 C300.3,279.48 317.99,265.55 335.68,244.99 " fill="none" id="DialogueEditor-&gt;List`1" style="stroke: #A80036; stroke-width: 1.0;"/><polygon fill="#A80036" points="338.98,241.08,330.1202,245.3816,335.7567,244.9023,336.2359,250.5389,338.98,241.08" style="stroke: #A80036; stroke-width: 1.0;"/><text fill="#000000" font-family="sans-serif" font-size="13" lengthAdjust="spacingAndGlyphs" textLength="166" x="355.6311" y="261.2563">characterIdentity&lt;string&gt;</text><!--MD5=[1cf3a2926af162bbdc2ee9b20fe2dc2a]
link DialogueEditor to List`1--><path d="M294.61,217 C294.61,217 301.75,217 304.72,217 " fill="none" id="DialogueEditor-List`1" style="stroke: #A80036; stroke-width: 1.0;"/><polygon fill="#A80036" points="317.77,217,308.77,213,312.77,217,308.77,221,317.77,217" style="stroke: #A80036; stroke-width: 1.0;"/><line style="stroke: #A80036; stroke-width: 1.0;" x1="312.77" x2="304.77" y1="217" y2="217"/><polygon fill="#FFFFFF" points="282.61,217,288.61,221,294.61,217,288.61,213,282.61,217" style="stroke: #A80036; stroke-width: 1.0;"/><text fill="#000000" font-family="sans-serif" font-size="13" lengthAdjust="spacingAndGlyphs" textLength="152" x="404.1795" y="196.5979">editableDialogues&lt;int&gt;</text><!--MD5=[1cf3a2926af162bbdc2ee9b20fe2dc2a]
link DialogueEditor to List`1--><path d="M293.3615,152.5696 C293.3615,152.5696 318.36,169.99 330.3,182.95 " fill="none" id="DialogueEditor-List`1-1" style="stroke: #A80036; stroke-width: 1.0;"/><polygon fill="#A80036" points="338.98,192.92,336.0813,183.5074,335.6945,189.151,330.0509,188.7642,338.98,192.92" style="stroke: #A80036; stroke-width: 1.0;"/><line style="stroke: #A80036; stroke-width: 1.0;" x1="335.6945" x2="330.44" y1="189.151" y2="183.12"/><polygon fill="#FFFFFF" points="282.61,147.24,286.2092,153.4886,293.3615,152.5696,289.7623,146.321,282.61,147.24" style="stroke: #A80036; stroke-width: 1.0;"/><text fill="#000000" font-family="sans-serif" font-size="13" lengthAdjust="spacingAndGlyphs" textLength="134" x="351.5311" y="181.9115">editableReplies&lt;int&gt;</text><!--MD5=[e6c30284382356600d739169d81f69c0]
link DialogueEditor to Transform--><path d="M224.91,318.07 C240.22,338.51 255.09,358.37 266.44,373.54 " fill="none" id="DialogueEditor-&gt;Transform" style="stroke: #A80036; stroke-width: 1.0;"/><polygon fill="#A80036" points="269.54,377.68,267.34,368.08,266.54,373.68,260.94,372.88,269.54,377.68" style="stroke: #A80036; stroke-width: 1.0;"/><text fill="#000000" font-family="sans-serif" font-size="13" lengthAdjust="spacingAndGlyphs" textLength="124" x="280.2566" y="366.9452">buttonStartPosition</text><!--MD5=[8d0b7ba14bc6c0104465d080cbee57cf]
link DialogueEditor to TMP_InputField--><path d="M282.89,306.22 C289,310.21 295.06,314.15 301,318 C330.9,337.37 364.9,358.9 390.77,375.17 " fill="none" id="DialogueEditor-&gt;TMP_InputField" style="stroke: #A80036; stroke-width: 1.0;"/><polygon fill="#A80036" points="395.17,377.94,389.6778,369.7647,390.9364,375.2797,385.4214,376.5384,395.17,377.94" style="stroke: #A80036; stroke-width: 1.0;"/><text fill="#000000" font-family="sans-serif" font-size="13" lengthAdjust="spacingAndGlyphs" textLength="132" x="402.4396" y="366.8748">characterNameInput</text><!--MD5=[c55947798742ce8ddf2e1250f2685754]
link DialogueEditor to TextMeshProUGUI--><path d="M282.5,308.94 C288.67,312.16 294.85,315.2 301,318 C311.36,322.73 438.54,357.44 523.66,380.45 " fill="none" id="DialogueEditor-&gt;TextMeshProUGUI" style="stroke: #A80036; stroke-width: 1.0;"/><polygon fill="#A80036" points="528.69,381.81,521.0394,375.6078,523.8619,380.5101,518.9596,383.3327,528.69,381.81" style="stroke: #A80036; stroke-width: 1.0;"/><text fill="#000000" font-family="sans-serif" font-size="13" lengthAdjust="spacingAndGlyphs" textLength="127" x="525.2731" y="366.7916">characterNameText</text><!--MD5=[67bda3f98b03aea91003e0ba3db49e69]
@startuml
class DialogueEditor {
    + editable : string
    Start() : void
    Update() : void
    + CreateCharacterButton() : void
    + AddCharacter() : void
    + CancelNewCharacter() : void
    + InstantiateCharacterButtons() : void
    + DestroyCharacterButtons() : void
    readTextFile(filePath:string) : List<string>
    + ToSaveFileOne() : void
    + ToSaveFileTwo() : void
    + ToSaveFileThree() : void
}
class "List`1"<T> {
}
MonoBehaviour <|- - DialogueEditor
DialogueEditor - -> "dialogueEditor" GameObject
DialogueEditor - -> "characterIdentity<string>" "List`1"
DialogueEditor o-> "editableDialogues<int>" "List`1"
DialogueEditor o-> "editableReplies<int>" "List`1"
DialogueEditor - -> "buttonStartPosition" Transform
DialogueEditor - -> "characterNameInput" TMP_InputField
DialogueEditor - -> "characterNameText" TextMeshProUGUI
DialogueEditor - -> "characterButtonPrefab" GameObject
DialogueEditor - -> "dialogueNodePrefab" GameObject
DialogueEditor - -> "addCharacterButton" GameObject
DialogueEditor - -> "abortButton" GameObject
@enduml

PlantUML version 1.2020.02(Sun Mar 01 10:22:07 GMT 2020)
(GPL source distribution)
Java Runtime: OpenJDK Runtime Environment
JVM: OpenJDK 64-Bit Server VM
Java Version: 11.0.9+11-Ubuntu-0ubuntu1
Operating System: Linux
Default Encoding: ANSI_X3.4-1968
Language: en
Country: US
--></g></svg>