<?xml version="1.0" encoding="UTF-8" standalone="no"?><svg xmlns="http://www.w3.org/2000/svg" xmlns:xlink="http://www.w3.org/1999/xlink" contentScriptType="application/ecmascript" contentStyleType="text/css" height="407px" preserveAspectRatio="none" style="width:819px;height:407px;" version="1.1" viewBox="0 0 819 407" width="819px" zoomAndPan="magnify"><defs><filter height="300%" id="fyh8y350pg7kb" width="300%" x="-1" y="-1"><feGaussianBlur result="blurOut" stdDeviation="2.0"/><feColorMatrix in="blurOut" result="blurOut2" type="matrix" values="0 0 0 0 0 0 0 0 0 0 0 0 0 0 0 0 0 0 .4 0"/><feOffset dx="4.0" dy="4.0" in="blurOut2" result="blurOut3"/><feBlend in="SourceGraphic" in2="blurOut3" mode="normal"/></filter></defs><g><!--MD5=[64eb4c3d472a7f194cc216c4804035db]
class DialogueSystem--><rect fill="#FEFECE" filter="url(#fyh8y350pg7kb)" height="150.4375" id="DialogueSystem" style="stroke: #A80036; stroke-width: 1.5;" width="247" x="82.79" y="116"/><ellipse cx="152.04" cy="132" fill="#ADD1B2" rx="11" ry="11" style="stroke: #A80036; stroke-width: 1.0;"/><path d="M155.0088,137.6406 Q154.4306,137.9375 153.79,138.0781 Q153.1494,138.2344 152.4463,138.2344 Q149.9463,138.2344 148.6181,136.5938 Q147.3056,134.9375 147.3056,131.8125 Q147.3056,128.6875 148.6181,127.0313 Q149.9463,125.375 152.4463,125.375 Q153.1494,125.375 153.79,125.5313 Q154.4463,125.6875 155.0088,125.9844 L155.0088,128.7031 Q154.3838,128.125 153.79,127.8594 Q153.1963,127.5781 152.5713,127.5781 Q151.2275,127.5781 150.54,128.6563 Q149.8525,129.7188 149.8525,131.8125 Q149.8525,133.9063 150.54,134.9844 Q151.2275,136.0469 152.5713,136.0469 Q153.1963,136.0469 153.79,135.7813 Q154.3838,135.5 155.0088,134.9219 L155.0088,137.6406 Z "/><text fill="#000000" font-family="sans-serif" font-size="12" lengthAdjust="spacingAndGlyphs" textLength="100" x="172.54" y="136.1543">DialogueSystem</text><line style="stroke: #A80036; stroke-width: 1.5;" x1="83.79" x2="328.79" y1="148" y2="148"/><ellipse cx="93.79" cy="159" fill="none" rx="3" ry="3" style="stroke: #038048; stroke-width: 1.0;"/><text fill="#000000" font-family="sans-serif" font-size="11" lengthAdjust="spacingAndGlyphs" textLength="110" x="102.79" y="162.2104">observerStage : int</text><ellipse cx="93.79" cy="171.8047" fill="none" rx="3" ry="3" style="stroke: #038048; stroke-width: 1.0;"/><text fill="#000000" font-family="sans-serif" font-size="11" lengthAdjust="spacingAndGlyphs" textLength="125" x="102.79" y="175.0151">greetingBotStage : int</text><ellipse cx="93.79" cy="184.6094" fill="none" rx="3" ry="3" style="stroke: #038048; stroke-width: 1.0;"/><text fill="#000000" font-family="sans-serif" font-size="11" lengthAdjust="spacingAndGlyphs" textLength="145" x="102.79" y="187.8198">missionControlStage : int</text><line style="stroke: #A80036; stroke-width: 1.5;" x1="83.79" x2="328.79" y1="194.4141" y2="194.4141"/><text fill="#000000" font-family="sans-serif" font-size="11" lengthAdjust="spacingAndGlyphs" textLength="71" x="102.79" y="208.6245">Start() : void</text><text fill="#000000" font-family="sans-serif" font-size="11" lengthAdjust="spacingAndGlyphs" textLength="83" x="102.79" y="221.4292">Update() : void</text><text fill="#000000" font-family="sans-serif" font-size="11" lengthAdjust="spacingAndGlyphs" textLength="221" x="102.79" y="234.2339">DialogueChoice(character:string) : void</text><ellipse cx="93.79" cy="243.8281" fill="#84BE84" rx="3" ry="3" style="stroke: #038048; stroke-width: 1.0;"/><text fill="#000000" font-family="sans-serif" font-size="11" lengthAdjust="spacingAndGlyphs" textLength="140" x="102.79" y="247.0386">loadNewDialogue() : void</text><ellipse cx="93.79" cy="256.6328" fill="#84BE84" rx="3" ry="3" style="stroke: #038048; stroke-width: 1.0;"/><text fill="#000000" font-family="sans-serif" font-size="11" lengthAdjust="spacingAndGlyphs" textLength="209" x="102.79" y="259.8433">readTextFile(filePath:string) : string[]</text><!--MD5=[e644022de7dea015dd09463c37421447]
class List`1--><rect fill="#FEFECE" filter="url(#fyh8y350pg7kb)" height="48" id="List`1" style="stroke: #A80036; stroke-width: 1.5;" width="78" x="167.29" y="326"/><ellipse cx="182.29" cy="342" fill="#ADD1B2" rx="11" ry="11" style="stroke: #A80036; stroke-width: 1.0;"/><path d="M185.2588,347.6406 Q184.6806,347.9375 184.04,348.0781 Q183.3994,348.2344 182.6963,348.2344 Q180.1963,348.2344 178.8681,346.5938 Q177.5556,344.9375 177.5556,341.8125 Q177.5556,338.6875 178.8681,337.0313 Q180.1963,335.375 182.6963,335.375 Q183.3994,335.375 184.04,335.5313 Q184.6963,335.6875 185.2588,335.9844 L185.2588,338.7031 Q184.6338,338.125 184.04,337.8594 Q183.4463,337.5781 182.8213,337.5781 Q181.4775,337.5781 180.79,338.6563 Q180.1025,339.7188 180.1025,341.8125 Q180.1025,343.9063 180.79,344.9844 Q181.4775,346.0469 182.8213,346.0469 Q183.4463,346.0469 184.04,345.7813 Q184.6338,345.5 185.2588,344.9219 L185.2588,347.6406 Z "/><text fill="#000000" font-family="sans-serif" font-size="12" lengthAdjust="spacingAndGlyphs" textLength="35" x="196.29" y="346.1543">List`1</text><rect fill="#FFFFFF" height="15.9688" style="stroke: #000000; stroke-width: 1.0; stroke-dasharray: 2.0,2.0;" width="9" x="239.29" y="323"/><text fill="#000000" font-family="sans-serif" font-size="12" font-style="italic" lengthAdjust="spacingAndGlyphs" textLength="7" x="240.29" y="335.1387">T</text><line style="stroke: #A80036; stroke-width: 1.5;" x1="168.29" x2="244.29" y1="358" y2="358"/><line style="stroke: #A80036; stroke-width: 1.5;" x1="168.29" x2="244.29" y1="366" y2="366"/><!--MD5=[83b3cf3d23d77c6f1e1b5291a241bc2a]
class MonoBehaviour--><rect fill="#FEFECE" filter="url(#fyh8y350pg7kb)" height="48" id="MonoBehaviour" style="stroke: #A80036; stroke-width: 1.5;" width="128" x="142.29" y="8"/><ellipse cx="157.29" cy="24" fill="#ADD1B2" rx="11" ry="11" style="stroke: #A80036; stroke-width: 1.0;"/><path d="M160.2588,29.6406 Q159.6806,29.9375 159.04,30.0781 Q158.3994,30.2344 157.6963,30.2344 Q155.1963,30.2344 153.8681,28.5938 Q152.5556,26.9375 152.5556,23.8125 Q152.5556,20.6875 153.8681,19.0313 Q155.1963,17.375 157.6963,17.375 Q158.3994,17.375 159.04,17.5313 Q159.6963,17.6875 160.2588,17.9844 L160.2588,20.7031 Q159.6338,20.125 159.04,19.8594 Q158.4463,19.5781 157.8213,19.5781 Q156.4775,19.5781 155.79,20.6563 Q155.1025,21.7188 155.1025,23.8125 Q155.1025,25.9063 155.79,26.9844 Q156.4775,28.0469 157.8213,28.0469 Q158.4463,28.0469 159.04,27.7813 Q159.6338,27.5 160.2588,26.9219 L160.2588,29.6406 Z "/><text fill="#000000" font-family="sans-serif" font-size="12" lengthAdjust="spacingAndGlyphs" textLength="96" x="171.29" y="28.1543">MonoBehaviour</text><line style="stroke: #A80036; stroke-width: 1.5;" x1="143.29" x2="269.29" y1="40" y2="40"/><line style="stroke: #A80036; stroke-width: 1.5;" x1="143.29" x2="269.29" y1="48" y2="48"/><!--MD5=[91b737a0aa6758b352ed748d11ff2125]
class PlayerController--><rect fill="#FEFECE" filter="url(#fyh8y350pg7kb)" height="48" id="PlayerController" style="stroke: #A80036; stroke-width: 1.5;" width="131" x="280.79" y="326"/><ellipse cx="295.79" cy="342" fill="#ADD1B2" rx="11" ry="11" style="stroke: #A80036; stroke-width: 1.0;"/><path d="M298.7588,347.6406 Q298.1806,347.9375 297.54,348.0781 Q296.8994,348.2344 296.1963,348.2344 Q293.6963,348.2344 292.3681,346.5938 Q291.0556,344.9375 291.0556,341.8125 Q291.0556,338.6875 292.3681,337.0313 Q293.6963,335.375 296.1963,335.375 Q296.8994,335.375 297.54,335.5313 Q298.1963,335.6875 298.7588,335.9844 L298.7588,338.7031 Q298.1338,338.125 297.54,337.8594 Q296.9463,337.5781 296.3213,337.5781 Q294.9775,337.5781 294.29,338.6563 Q293.6025,339.7188 293.6025,341.8125 Q293.6025,343.9063 294.29,344.9844 Q294.9775,346.0469 296.3213,346.0469 Q296.9463,346.0469 297.54,345.7813 Q298.1338,345.5 298.7588,344.9219 L298.7588,347.6406 Z "/><text fill="#000000" font-family="sans-serif" font-size="12" lengthAdjust="spacingAndGlyphs" textLength="99" x="309.79" y="346.1543">PlayerController</text><line style="stroke: #A80036; stroke-width: 1.5;" x1="281.79" x2="410.79" y1="358" y2="358"/><line style="stroke: #A80036; stroke-width: 1.5;" x1="281.79" x2="410.79" y1="366" y2="366"/><!--MD5=[628cc5a2753cca06eb1ffef55c386535]
class Parser--><rect fill="#FEFECE" filter="url(#fyh8y350pg7kb)" height="48" id="Parser" style="stroke: #A80036; stroke-width: 1.5;" width="73" x="446.79" y="326"/><ellipse cx="461.79" cy="342" fill="#ADD1B2" rx="11" ry="11" style="stroke: #A80036; stroke-width: 1.0;"/><path d="M464.7588,347.6406 Q464.1806,347.9375 463.54,348.0781 Q462.8994,348.2344 462.1963,348.2344 Q459.6963,348.2344 458.3681,346.5938 Q457.0556,344.9375 457.0556,341.8125 Q457.0556,338.6875 458.3681,337.0313 Q459.6963,335.375 462.1963,335.375 Q462.8994,335.375 463.54,335.5313 Q464.1963,335.6875 464.7588,335.9844 L464.7588,338.7031 Q464.1338,338.125 463.54,337.8594 Q462.9463,337.5781 462.3213,337.5781 Q460.9775,337.5781 460.29,338.6563 Q459.6025,339.7188 459.6025,341.8125 Q459.6025,343.9063 460.29,344.9844 Q460.9775,346.0469 462.3213,346.0469 Q462.9463,346.0469 463.54,345.7813 Q464.1338,345.5 464.7588,344.9219 L464.7588,347.6406 Z "/><text fill="#000000" font-family="sans-serif" font-size="12" lengthAdjust="spacingAndGlyphs" textLength="41" x="475.79" y="346.1543">Parser</text><line style="stroke: #A80036; stroke-width: 1.5;" x1="447.79" x2="518.79" y1="358" y2="358"/><line style="stroke: #A80036; stroke-width: 1.5;" x1="447.79" x2="518.79" y1="366" y2="366"/><!--MD5=[904907aec70c3817983bd27a243dd750]
class TextMeshProUGUI--><rect fill="#FEFECE" filter="url(#fyh8y350pg7kb)" height="48" id="TextMeshProUGUI" style="stroke: #A80036; stroke-width: 1.5;" width="142" x="555.29" y="326"/><ellipse cx="570.29" cy="342" fill="#ADD1B2" rx="11" ry="11" style="stroke: #A80036; stroke-width: 1.0;"/><path d="M573.2588,347.6406 Q572.6806,347.9375 572.04,348.0781 Q571.3994,348.2344 570.6963,348.2344 Q568.1963,348.2344 566.8681,346.5938 Q565.5556,344.9375 565.5556,341.8125 Q565.5556,338.6875 566.8681,337.0313 Q568.1963,335.375 570.6963,335.375 Q571.3994,335.375 572.04,335.5313 Q572.6963,335.6875 573.2588,335.9844 L573.2588,338.7031 Q572.6338,338.125 572.04,337.8594 Q571.4463,337.5781 570.8213,337.5781 Q569.4775,337.5781 568.79,338.6563 Q568.1025,339.7188 568.1025,341.8125 Q568.1025,343.9063 568.79,344.9844 Q569.4775,346.0469 570.8213,346.0469 Q571.4463,346.0469 572.04,345.7813 Q572.6338,345.5 573.2588,344.9219 L573.2588,347.6406 Z "/><text fill="#000000" font-family="sans-serif" font-size="12" lengthAdjust="spacingAndGlyphs" textLength="110" x="584.29" y="346.1543">TextMeshProUGUI</text><line style="stroke: #A80036; stroke-width: 1.5;" x1="556.29" x2="696.29" y1="358" y2="358"/><line style="stroke: #A80036; stroke-width: 1.5;" x1="556.29" x2="696.29" y1="366" y2="366"/><!--MD5=[940dcaa192183963c8846437b9eeffbe]
reverse link MonoBehaviour to DialogueSystem--><path d="M206.29,76.38 C206.29,88.67 206.29,102.4 206.29,115.96 " fill="none" id="MonoBehaviour&lt;-DialogueSystem" style="stroke: #A80036; stroke-width: 1.0;"/><polygon fill="none" points="199.29,76.17,206.29,56.17,213.29,76.17,199.29,76.17" style="stroke: #A80036; stroke-width: 1.0;"/><!--MD5=[9a1b97a4c5e403e63ad875e8a8f34f47]
link DialogueSystem to PlayerController--><path d="M272.6,266.36 C290.33,286.24 308.36,306.46 322.16,321.93 " fill="none" id="DialogueSystem-&gt;PlayerController" style="stroke: #A80036; stroke-width: 1.0;"/><polygon fill="#A80036" points="325.57,325.76,322.5603,316.3823,322.2402,322.0301,316.5924,321.7099,325.57,325.76" style="stroke: #A80036; stroke-width: 1.0;"/><text fill="#000000" font-family="sans-serif" font-size="13" lengthAdjust="spacingAndGlyphs" textLength="39" x="276.7664" y="315.1065">player</text><!--MD5=[2ddb6b1f1bb3653a5ee17995256e9f03]
link DialogueSystem to Parser--><path d="M329.81,262.01 C370.07,284.83 412.04,308.61 441.9,325.54 " fill="none" id="DialogueSystem-&gt;Parser" style="stroke: #A80036; stroke-width: 1.0;"/><polygon fill="#A80036" points="446.58,328.19,440.7055,320.2849,442.2248,325.7339,436.7758,327.2533,446.58,328.19" style="stroke: #A80036; stroke-width: 1.0;"/><text fill="#000000" font-family="sans-serif" font-size="13" lengthAdjust="spacingAndGlyphs" textLength="41" x="397.7564" y="329.1196">parser</text><!--MD5=[73ca97bdc3d5f3984fa259449b25f301]
link DialogueSystem to DialogueSystem--><path d="M329.9,163.47 C350.55,167.32 364.79,176.5 364.79,191 C364.79,204.26 352.89,213.07 335.08,217.42 " fill="none" id="DialogueSystem-&gt;DialogueSystem" style="stroke: #A80036; stroke-width: 1.0;"/><polygon fill="#A80036" points="329.9,218.53,339.5412,220.542,334.7875,217.4755,337.854,212.7219,329.9,218.53" style="stroke: #A80036; stroke-width: 1.0;"/><text fill="#000000" font-family="sans-serif" font-size="13" lengthAdjust="spacingAndGlyphs" textLength="54" x="337.6658" y="216.6218">instance</text><!--MD5=[585ec3c1b26f0d4aa434c873cae911e3]
link DialogueSystem to TextMeshProUGUI--><path d="M330,252.48 C401.42,280.26 488.18,311.22 550.27,330.41 " fill="none" id="DialogueSystem-&gt;TextMeshProUGUI" style="stroke: #A80036; stroke-width: 1.0;"/><polygon fill="#A80036" points="555.08,331.89,547.6584,325.4154,550.302,330.4166,545.3009,333.0602,555.08,331.89" style="stroke: #A80036; stroke-width: 1.0;"/><text fill="#000000" font-family="sans-serif" font-size="13" lengthAdjust="spacingAndGlyphs" textLength="100" x="543.6796" y="315.2272">characterName</text><!--MD5=[585ec3c1b26f0d4aa434c873cae911e3]
link DialogueSystem to TextMeshProUGUI--><path d="M330.06,242.76 C401.55,270.04 489.08,302.46 550.49,324.25 " fill="none" id="DialogueSystem-&gt;TextMeshProUGUI-1" style="stroke: #A80036; stroke-width: 1.0;"/><polygon fill="#A80036" points="555.23,325.93,548.084,319.1525,550.5174,324.2592,545.4107,326.6926,555.23,325.93" style="stroke: #A80036; stroke-width: 1.0;"/><text fill="#000000" font-family="sans-serif" font-size="13" lengthAdjust="spacingAndGlyphs" textLength="71" x="493.5678" y="314.9241">displayText</text><!--MD5=[585ec3c1b26f0d4aa434c873cae911e3]
link DialogueSystem to TextMeshProUGUI--><path d="M329.82,233.66 C409.19,262.44 508.39,299.75 569.68,324.03 " fill="none" id="DialogueSystem-&gt;TextMeshProUGUI-2" style="stroke: #A80036; stroke-width: 1.0;"/><polygon fill="#A80036" points="574.39,325.9,567.5006,318.8618,569.7427,324.0554,564.5492,326.2975,574.39,325.9" style="stroke: #A80036; stroke-width: 1.0;"/><text fill="#000000" font-family="sans-serif" font-size="13" lengthAdjust="spacingAndGlyphs" textLength="76" x="570.8281" y="314.8864">choice1Text</text><!--MD5=[585ec3c1b26f0d4aa434c873cae911e3]
link DialogueSystem to TextMeshProUGUI--><path d="M330,225.78 C418.17,255.19 529.4,297.16 588.86,323.74 " fill="none" id="DialogueSystem-&gt;TextMeshProUGUI-3" style="stroke: #A80036; stroke-width: 1.0;"/><polygon fill="#A80036" points="593.75,325.95,587.1928,318.6013,589.1928,323.8928,583.9013,325.8929,593.75,325.95" style="stroke: #A80036; stroke-width: 1.0;"/><text fill="#000000" font-family="sans-serif" font-size="13" lengthAdjust="spacingAndGlyphs" textLength="76" x="521.7161" y="314.8862">choice2Text</text><!--MD5=[fdfdd2d8ba4bb66a5a2a8bb050eda21f]
link DialogueSystem to List`1--><path d="M101.42,266.36 C99.46,297.58 119.69,329.66 162.11,342.81 " fill="none" id="DialogueSystem-&gt;List`1" style="stroke: #A80036; stroke-width: 1.0;"/><polygon fill="#A80036" points="167.12,344.25,159.5652,337.9314,162.3124,342.8764,157.3674,345.6236,167.12,344.25" style="stroke: #A80036; stroke-width: 1.0;"/><text fill="#000000" font-family="sans-serif" font-size="13" lengthAdjust="spacingAndGlyphs" textLength="137" x="22.213" y="356.4503">characterStage&lt;int&gt;</text><!--MD5=[fdfdd2d8ba4bb66a5a2a8bb050eda21f]
link DialogueSystem to List`1--><path d="M127.64,266.36 C126.34,293.93 138.03,322.19 162.7,337.47 " fill="none" id="DialogueSystem-&gt;List`1-1" style="stroke: #A80036; stroke-width: 1.0;"/><polygon fill="#A80036" points="167.11,339.99,161.286,332.0477,162.7705,337.5062,157.312,338.9908,167.11,339.99" style="stroke: #A80036; stroke-width: 1.0;"/><text fill="#000000" font-family="sans-serif" font-size="13" lengthAdjust="spacingAndGlyphs" textLength="138" x="21.1655" y="335.7759">replyOptions&lt;string&gt;</text><!--MD5=[fdfdd2d8ba4bb66a5a2a8bb050eda21f]
link DialogueSystem to List`1--><path d="M153.86,266.36 C153.25,285.9 156.98,305.78 165.06,321.14 " fill="none" id="DialogueSystem-&gt;List`1-2" style="stroke: #A80036; stroke-width: 1.0;"/><polygon fill="#A80036" points="167.71,325.76,166.7108,315.962,165.2262,321.4205,159.7677,319.936,167.71,325.76" style="stroke: #A80036; stroke-width: 1.0;"/><text fill="#000000" font-family="sans-serif" font-size="13" lengthAdjust="spacingAndGlyphs" textLength="107" x="170.7775" y="314.9218">replyStage&lt;int&gt;</text><!--MD5=[fdfdd2d8ba4bb66a5a2a8bb050eda21f]
link DialogueSystem to List`1--><path d="M180.08,266.36 C179.77,285.73 181.6,305.44 185.57,320.74 " fill="none" id="DialogueSystem-&gt;List`1-3" style="stroke: #A80036; stroke-width: 1.0;"/><polygon fill="#A80036" points="187,325.76,188.3736,316.0074,185.6264,320.9524,180.6814,318.2052,187,325.76" style="stroke: #A80036; stroke-width: 1.0;"/><text fill="#000000" font-family="sans-serif" font-size="13" lengthAdjust="spacingAndGlyphs" textLength="166" x="-3.9332" y="315.1065">characterIdentity&lt;string&gt;</text><!--MD5=[fdfdd2d8ba4bb66a5a2a8bb050eda21f]
link DialogueSystem to List`1--><path d="M206.29,266.36 C206.29,285.73 206.29,305.44 206.29,320.74 " fill="none" id="DialogueSystem-&gt;List`1-4" style="stroke: #A80036; stroke-width: 1.0;"/><polygon fill="#A80036" points="206.29,325.76,210.29,316.76,206.29,320.76,202.29,316.76,206.29,325.76" style="stroke: #A80036; stroke-width: 1.0;"/><text fill="#000000" font-family="sans-serif" font-size="13" lengthAdjust="spacingAndGlyphs" textLength="190" x="229.3439" y="314.9218">observerDialogue&lt;Dialogue&gt;</text><!--MD5=[fdfdd2d8ba4bb66a5a2a8bb050eda21f]
link DialogueSystem to List`1--><path d="M232.51,266.36 C232.82,285.73 230.98,305.44 227.02,320.74 " fill="none" id="DialogueSystem-&gt;List`1-5" style="stroke: #A80036; stroke-width: 1.0;"/><polygon fill="#A80036" points="225.59,325.76,231.9027,318.2002,226.9598,320.9513,224.2087,316.0085,225.59,325.76" style="stroke: #A80036; stroke-width: 1.0;"/><text fill="#000000" font-family="sans-serif" font-size="13" lengthAdjust="spacingAndGlyphs" textLength="209" x="147.6275" y="314.9007">greetingBotDialogue&lt;Dialogue&gt;</text><!--MD5=[fdfdd2d8ba4bb66a5a2a8bb050eda21f]
link DialogueSystem to List`1--><path d="M258.73,266.36 C259.34,285.9 255.61,305.78 247.53,321.14 " fill="none" id="DialogueSystem-&gt;List`1-6" style="stroke: #A80036; stroke-width: 1.0;"/><polygon fill="#A80036" points="244.88,325.76,252.8223,319.936,247.3638,321.4205,245.8792,315.962,244.88,325.76" style="stroke: #A80036; stroke-width: 1.0;"/><text fill="#000000" font-family="sans-serif" font-size="13" lengthAdjust="spacingAndGlyphs" textLength="229" x="257.0348" y="314.8737">missionControlDialogue&lt;Dialogue&gt;</text><!--MD5=[fdfdd2d8ba4bb66a5a2a8bb050eda21f]
link DialogueSystem to List`1--><path d="M284.95,266.36 C286.24,293.93 274.56,322.19 249.89,337.47 " fill="none" id="DialogueSystem-&gt;List`1-7" style="stroke: #A80036; stroke-width: 1.0;"/><polygon fill="#A80036" points="245.47,339.99,255.2705,339.0151,249.8156,337.517,251.3137,332.0621,245.47,339.99" style="stroke: #A80036; stroke-width: 1.0;"/><text fill="#000000" font-family="sans-serif" font-size="13" lengthAdjust="spacingAndGlyphs" textLength="178" x="-19.715" y="347.7806">parsedDialogue&lt;Dialogue&gt;</text><!--MD5=[fdfdd2d8ba4bb66a5a2a8bb050eda21f]
link DialogueSystem to List`1--><path d="M311.16,266.36 C313.12,297.58 292.89,329.66 250.48,342.81 " fill="none" id="DialogueSystem-&gt;List`1-8" style="stroke: #A80036; stroke-width: 1.0;"/><polygon fill="#A80036" points="245.47,344.25,255.2226,345.6236,250.2776,342.8764,253.0248,337.9314,245.47,344.25" style="stroke: #A80036; stroke-width: 1.0;"/><text fill="#000000" font-family="sans-serif" font-size="13" lengthAdjust="spacingAndGlyphs" textLength="263" x="544.5822" y="394.1683">previewedparsedDialogueFile&lt;Dialogue&gt;</text><!--MD5=[6861872cebd9c2262251d8985d92ca29]
@startuml
class DialogueSystem {
    + observerStage : int
    + greetingBotStage : int
    + missionControlStage : int
    Start() : void
    Update() : void
    DialogueChoice(character:string) : void
    + loadNewDialogue() : void
    + readTextFile(filePath:string) : string[]
}
class "List`1"<T> {
}
MonoBehaviour <|- - DialogueSystem
DialogueSystem - -> "player" PlayerController
DialogueSystem - -> "parser" Parser
DialogueSystem - -> "instance" DialogueSystem
DialogueSystem - -> "characterName" TextMeshProUGUI
DialogueSystem - -> "displayText" TextMeshProUGUI
DialogueSystem - -> "choice1Text" TextMeshProUGUI
DialogueSystem - -> "choice2Text" TextMeshProUGUI
DialogueSystem - -> "characterStage<int>" "List`1"
DialogueSystem - -> "replyOptions<string>" "List`1"
DialogueSystem - -> "replyStage<int>" "List`1"
DialogueSystem - -> "characterIdentity<string>" "List`1"
DialogueSystem - -> "observerDialogue<Dialogue>" "List`1"
DialogueSystem - -> "greetingBotDialogue<Dialogue>" "List`1"
DialogueSystem - -> "missionControlDialogue<Dialogue>" "List`1"
DialogueSystem - -> "parsedDialogue<Dialogue>" "List`1"
DialogueSystem - -> "previewedparsedDialogueFile<Dialogue>" "List`1"
@enduml

PlantUML version 1.2020.02(Sun Mar 01 10:22:07 GMT 2020)
(GPL source distribution)
Java Runtime: OpenJDK Runtime Environment
JVM: OpenJDK 64-Bit Server VM
Java Version: 11.0.9+11-Ubuntu-0ubuntu1
Operating System: Linux
Default Encoding: ANSI_X3.4-1968
Language: en
Country: US
--></g></svg>