<?xml version="1.0" encoding="UTF-8" standalone="no"?><svg xmlns="http://www.w3.org/2000/svg" xmlns:xlink="http://www.w3.org/1999/xlink" contentScriptType="application/ecmascript" contentStyleType="text/css" height="309px" preserveAspectRatio="none" style="width:337px;height:309px;" version="1.1" viewBox="0 0 337 309" width="337px" zoomAndPan="magnify"><defs><filter height="300%" id="fuv7zqgw7h9mv" width="300%" x="-1" y="-1"><feGaussianBlur result="blurOut" stdDeviation="2.0"/><feColorMatrix in="blurOut" result="blurOut2" type="matrix" values="0 0 0 0 0 0 0 0 0 0 0 0 0 0 0 0 0 0 .4 0"/><feOffset dx="4.0" dy="4.0" in="blurOut2" result="blurOut3"/><feBlend in="SourceGraphic" in2="blurOut3" mode="normal"/></filter></defs><g><!--MD5=[f9594eb3d6d209463b88d73fe6926968]
class DialogueDisplay--><rect fill="#FEFECE" filter="url(#fuv7zqgw7h9mv)" height="73.6094" id="DialogueDisplay" style="stroke: #A80036; stroke-width: 1.5;" width="131" x="117.52" y="116"/><ellipse cx="132.52" cy="132" fill="#ADD1B2" rx="11" ry="11" style="stroke: #A80036; stroke-width: 1.0;"/><path d="M135.4887,137.6406 Q134.9106,137.9375 134.27,138.0781 Q133.6294,138.2344 132.9262,138.2344 Q130.4262,138.2344 129.0981,136.5938 Q127.7856,134.9375 127.7856,131.8125 Q127.7856,128.6875 129.0981,127.0313 Q130.4262,125.375 132.9262,125.375 Q133.6294,125.375 134.27,125.5313 Q134.9262,125.6875 135.4887,125.9844 L135.4887,128.7031 Q134.8637,128.125 134.27,127.8594 Q133.6762,127.5781 133.0512,127.5781 Q131.7075,127.5781 131.02,128.6563 Q130.3325,129.7188 130.3325,131.8125 Q130.3325,133.9063 131.02,134.9844 Q131.7075,136.0469 133.0512,136.0469 Q133.6762,136.0469 134.27,135.7813 Q134.8637,135.5 135.4887,134.9219 L135.4887,137.6406 Z "/><text fill="#000000" font-family="sans-serif" font-size="12" lengthAdjust="spacingAndGlyphs" textLength="99" x="146.52" y="136.1543">DialogueDisplay</text><line style="stroke: #A80036; stroke-width: 1.5;" x1="118.52" x2="247.52" y1="148" y2="148"/><line style="stroke: #A80036; stroke-width: 1.5;" x1="118.52" x2="247.52" y1="156" y2="156"/><text fill="#000000" font-family="sans-serif" font-size="11" lengthAdjust="spacingAndGlyphs" textLength="71" x="123.52" y="170.2104">Start() : void</text><text fill="#000000" font-family="sans-serif" font-size="11" lengthAdjust="spacingAndGlyphs" textLength="83" x="123.52" y="183.0151">Update() : void</text><!--MD5=[83b3cf3d23d77c6f1e1b5291a241bc2a]
class MonoBehaviour--><rect fill="#FEFECE" filter="url(#fuv7zqgw7h9mv)" height="48" id="MonoBehaviour" style="stroke: #A80036; stroke-width: 1.5;" width="128" x="119.02" y="8"/><ellipse cx="134.02" cy="24" fill="#ADD1B2" rx="11" ry="11" style="stroke: #A80036; stroke-width: 1.0;"/><path d="M136.9887,29.6406 Q136.4106,29.9375 135.77,30.0781 Q135.1294,30.2344 134.4262,30.2344 Q131.9262,30.2344 130.5981,28.5938 Q129.2856,26.9375 129.2856,23.8125 Q129.2856,20.6875 130.5981,19.0313 Q131.9262,17.375 134.4262,17.375 Q135.1294,17.375 135.77,17.5313 Q136.4262,17.6875 136.9887,17.9844 L136.9887,20.7031 Q136.3637,20.125 135.77,19.8594 Q135.1762,19.5781 134.5512,19.5781 Q133.2075,19.5781 132.52,20.6563 Q131.8325,21.7188 131.8325,23.8125 Q131.8325,25.9063 132.52,26.9844 Q133.2075,28.0469 134.5512,28.0469 Q135.1762,28.0469 135.77,27.7813 Q136.3637,27.5 136.9887,26.9219 L136.9887,29.6406 Z "/><text fill="#000000" font-family="sans-serif" font-size="12" lengthAdjust="spacingAndGlyphs" textLength="96" x="148.02" y="28.1543">MonoBehaviour</text><line style="stroke: #A80036; stroke-width: 1.5;" x1="120.02" x2="246.02" y1="40" y2="40"/><line style="stroke: #A80036; stroke-width: 1.5;" x1="120.02" x2="246.02" y1="48" y2="48"/><!--MD5=[064f7a74fee85463ec1a30143664ee17]
class GameObject--><rect fill="#FEFECE" filter="url(#fuv7zqgw7h9mv)" height="48" id="GameObject" style="stroke: #A80036; stroke-width: 1.5;" width="108" x="52.02" y="250"/><ellipse cx="67.02" cy="266" fill="#ADD1B2" rx="11" ry="11" style="stroke: #A80036; stroke-width: 1.0;"/><path d="M69.9888,271.6406 Q69.4106,271.9375 68.77,272.0781 Q68.1294,272.2344 67.4263,272.2344 Q64.9263,272.2344 63.5981,270.5938 Q62.2856,268.9375 62.2856,265.8125 Q62.2856,262.6875 63.5981,261.0313 Q64.9263,259.375 67.4263,259.375 Q68.1294,259.375 68.77,259.5313 Q69.4263,259.6875 69.9888,259.9844 L69.9888,262.7031 Q69.3638,262.125 68.77,261.8594 Q68.1763,261.5781 67.5513,261.5781 Q66.2075,261.5781 65.52,262.6563 Q64.8325,263.7188 64.8325,265.8125 Q64.8325,267.9063 65.52,268.9844 Q66.2075,270.0469 67.5513,270.0469 Q68.1763,270.0469 68.77,269.7813 Q69.3638,269.5 69.9888,268.9219 L69.9888,271.6406 Z "/><text fill="#000000" font-family="sans-serif" font-size="12" lengthAdjust="spacingAndGlyphs" textLength="76" x="81.02" y="270.1543">GameObject</text><line style="stroke: #A80036; stroke-width: 1.5;" x1="53.02" x2="159.02" y1="282" y2="282"/><line style="stroke: #A80036; stroke-width: 1.5;" x1="53.02" x2="159.02" y1="290" y2="290"/><!--MD5=[91b737a0aa6758b352ed748d11ff2125]
class PlayerController--><rect fill="#FEFECE" filter="url(#fuv7zqgw7h9mv)" height="48" id="PlayerController" style="stroke: #A80036; stroke-width: 1.5;" width="131" x="195.52" y="250"/><ellipse cx="210.52" cy="266" fill="#ADD1B2" rx="11" ry="11" style="stroke: #A80036; stroke-width: 1.0;"/><path d="M213.4888,271.6406 Q212.9106,271.9375 212.27,272.0781 Q211.6294,272.2344 210.9263,272.2344 Q208.4263,272.2344 207.0981,270.5938 Q205.7856,268.9375 205.7856,265.8125 Q205.7856,262.6875 207.0981,261.0313 Q208.4263,259.375 210.9263,259.375 Q211.6294,259.375 212.27,259.5313 Q212.9263,259.6875 213.4888,259.9844 L213.4888,262.7031 Q212.8638,262.125 212.27,261.8594 Q211.6763,261.5781 211.0513,261.5781 Q209.7075,261.5781 209.02,262.6563 Q208.3325,263.7188 208.3325,265.8125 Q208.3325,267.9063 209.02,268.9844 Q209.7075,270.0469 211.0513,270.0469 Q211.6763,270.0469 212.27,269.7813 Q212.8638,269.5 213.4888,268.9219 L213.4888,271.6406 Z "/><text fill="#000000" font-family="sans-serif" font-size="12" lengthAdjust="spacingAndGlyphs" textLength="99" x="224.52" y="270.1543">PlayerController</text><line style="stroke: #A80036; stroke-width: 1.5;" x1="196.52" x2="325.52" y1="282" y2="282"/><line style="stroke: #A80036; stroke-width: 1.5;" x1="196.52" x2="325.52" y1="290" y2="290"/><!--MD5=[099916350c489ba7ae42a8fd80babc53]
reverse link MonoBehaviour to DialogueDisplay--><path d="M183.02,76.43 C183.02,89.33 183.02,103.32 183.02,115.71 " fill="none" id="MonoBehaviour&lt;-DialogueDisplay" style="stroke: #A80036; stroke-width: 1.0;"/><polygon fill="none" points="176.02,76.23,183.02,56.23,190.02,76.23,176.02,76.23" style="stroke: #A80036; stroke-width: 1.0;"/><!--MD5=[d70595167c64905a621a92f7c1ba9d6c]
link DialogueDisplay to GameObject--><path d="M159.71,190.03 C148.22,207.79 134.58,228.87 123.92,245.33 " fill="none" id="DialogueDisplay-&gt;GameObject" style="stroke: #A80036; stroke-width: 1.0;"/><polygon fill="#A80036" points="121,249.85,129.2445,244.4622,123.7139,245.6506,122.5255,240.12,121,249.85" style="stroke: #A80036; stroke-width: 1.0;"/><text fill="#000000" font-family="sans-serif" font-size="13" lengthAdjust="spacingAndGlyphs" textLength="100" x="12.0261" y="238.8236">characterName</text><!--MD5=[88b755492d5bd1600d59a9ffc1f02cf0]
link DialogueDisplay to PlayerController--><path d="M206.64,190.03 C218.27,207.79 232.09,228.87 242.89,245.33 " fill="none" id="DialogueDisplay-&gt;PlayerController" style="stroke: #A80036; stroke-width: 1.0;"/><polygon fill="#A80036" points="245.85,249.85,244.2628,240.1299,243.1095,245.6679,237.5715,244.5146,245.85,249.85" style="stroke: #A80036; stroke-width: 1.0;"/><text fill="#000000" font-family="sans-serif" font-size="13" lengthAdjust="spacingAndGlyphs" textLength="39" x="197.9658" y="238.8236">player</text><!--MD5=[6139ea90630886504905985780c90c71]
@startuml
class DialogueDisplay {
    Start() : void
    Update() : void
}
MonoBehaviour <|- - DialogueDisplay
DialogueDisplay - -> "characterName" GameObject
DialogueDisplay - -> "player" PlayerController
@enduml

PlantUML version 1.2020.02(Sun Mar 01 10:22:07 GMT 2020)
(GPL source distribution)
Java Runtime: OpenJDK Runtime Environment
JVM: OpenJDK 64-Bit Server VM
Java Version: 11.0.9+11-Ubuntu-0ubuntu1
Operating System: Linux
Default Encoding: ANSI_X3.4-1968
Language: en
Country: US
--></g></svg>