<?xml version="1.0" encoding="UTF-8" standalone="no"?><svg xmlns="http://www.w3.org/2000/svg" xmlns:xlink="http://www.w3.org/1999/xlink" contentScriptType="application/ecmascript" contentStyleType="text/css" height="360px" preserveAspectRatio="none" style="width:746px;height:360px;" version="1.1" viewBox="0 0 746 360" width="746px" zoomAndPan="magnify"><defs><filter height="300%" id="f1p1lbgst16znx" width="300%" x="-1" y="-1"><feGaussianBlur result="blurOut" stdDeviation="2.0"/><feColorMatrix in="blurOut" result="blurOut2" type="matrix" values="0 0 0 0 0 0 0 0 0 0 0 0 0 0 0 0 0 0 .4 0"/><feOffset dx="4.0" dy="4.0" in="blurOut2" result="blurOut3"/><feBlend in="SourceGraphic" in2="blurOut3" mode="normal"/></filter></defs><g><!--MD5=[0f3ca1e2bb0b4c7f0ebd832d1fa5ccc0]
class DialogueSystemNew--><rect fill="#FEFECE" filter="url(#f1p1lbgst16znx)" height="124.8281" id="DialogueSystemNew" style="stroke: #A80036; stroke-width: 1.5;" width="265" x="112.27" y="116"/><ellipse cx="177.52" cy="132" fill="#ADD1B2" rx="11" ry="11" style="stroke: #A80036; stroke-width: 1.0;"/><path d="M180.4887,137.6406 Q179.9106,137.9375 179.27,138.0781 Q178.6294,138.2344 177.9262,138.2344 Q175.4262,138.2344 174.0981,136.5938 Q172.7856,134.9375 172.7856,131.8125 Q172.7856,128.6875 174.0981,127.0313 Q175.4262,125.375 177.9262,125.375 Q178.6294,125.375 179.27,125.5313 Q179.9262,125.6875 180.4887,125.9844 L180.4887,128.7031 Q179.8637,128.125 179.27,127.8594 Q178.6762,127.5781 178.0512,127.5781 Q176.7075,127.5781 176.02,128.6563 Q175.3325,129.7188 175.3325,131.8125 Q175.3325,133.9063 176.02,134.9844 Q176.7075,136.0469 178.0512,136.0469 Q178.6762,136.0469 179.27,135.7813 Q179.8637,135.5 180.4887,134.9219 L180.4887,137.6406 Z "/><text fill="#000000" font-family="sans-serif" font-size="12" lengthAdjust="spacingAndGlyphs" textLength="126" x="198.02" y="136.1543">DialogueSystemNew</text><line style="stroke: #A80036; stroke-width: 1.5;" x1="113.27" x2="376.27" y1="148" y2="148"/><ellipse cx="123.27" cy="159" fill="none" rx="3" ry="3" style="stroke: #038048; stroke-width: 1.0;"/><text fill="#000000" font-family="sans-serif" font-size="11" lengthAdjust="spacingAndGlyphs" textLength="100" x="132.27" y="162.2104">currentStage : int</text><line style="stroke: #A80036; stroke-width: 1.5;" x1="113.27" x2="376.27" y1="168.8047" y2="168.8047"/><text fill="#000000" font-family="sans-serif" font-size="11" lengthAdjust="spacingAndGlyphs" textLength="71" x="132.27" y="183.0151">Start() : void</text><text fill="#000000" font-family="sans-serif" font-size="11" lengthAdjust="spacingAndGlyphs" textLength="83" x="132.27" y="195.8198">Update() : void</text><ellipse cx="123.27" cy="205.4141" fill="#84BE84" rx="3" ry="3" style="stroke: #038048; stroke-width: 1.0;"/><text fill="#000000" font-family="sans-serif" font-size="11" lengthAdjust="spacingAndGlyphs" textLength="221" x="132.27" y="208.6245">DialogueChoice(character:string) : void</text><ellipse cx="123.27" cy="218.2188" fill="#84BE84" rx="3" ry="3" style="stroke: #038048; stroke-width: 1.0;"/><text fill="#000000" font-family="sans-serif" font-size="11" lengthAdjust="spacingAndGlyphs" textLength="140" x="132.27" y="221.4292">loadNewDialogue() : void</text><ellipse cx="123.27" cy="231.0234" fill="#84BE84" rx="3" ry="3" style="stroke: #038048; stroke-width: 1.0;"/><text fill="#000000" font-family="sans-serif" font-size="11" lengthAdjust="spacingAndGlyphs" textLength="239" x="132.27" y="234.2339">readTextFile(filePath:string) : List&lt;string&gt;</text><!--MD5=[e644022de7dea015dd09463c37421447]
class List`1--><rect fill="#FEFECE" filter="url(#f1p1lbgst16znx)" height="48" id="List`1" style="stroke: #A80036; stroke-width: 1.5;" width="78" x="205.77" y="301"/><ellipse cx="220.77" cy="317" fill="#ADD1B2" rx="11" ry="11" style="stroke: #A80036; stroke-width: 1.0;"/><path d="M223.7388,322.6406 Q223.1606,322.9375 222.52,323.0781 Q221.8794,323.2344 221.1763,323.2344 Q218.6763,323.2344 217.3481,321.5938 Q216.0356,319.9375 216.0356,316.8125 Q216.0356,313.6875 217.3481,312.0313 Q218.6763,310.375 221.1763,310.375 Q221.8794,310.375 222.52,310.5313 Q223.1763,310.6875 223.7388,310.9844 L223.7388,313.7031 Q223.1138,313.125 222.52,312.8594 Q221.9263,312.5781 221.3013,312.5781 Q219.9575,312.5781 219.27,313.6563 Q218.5825,314.7188 218.5825,316.8125 Q218.5825,318.9063 219.27,319.9844 Q219.9575,321.0469 221.3013,321.0469 Q221.9263,321.0469 222.52,320.7813 Q223.1138,320.5 223.7388,319.9219 L223.7388,322.6406 Z "/><text fill="#000000" font-family="sans-serif" font-size="12" lengthAdjust="spacingAndGlyphs" textLength="35" x="234.77" y="321.1543">List`1</text><rect fill="#FFFFFF" height="15.9688" style="stroke: #000000; stroke-width: 1.0; stroke-dasharray: 2.0,2.0;" width="9" x="277.77" y="298"/><text fill="#000000" font-family="sans-serif" font-size="12" font-style="italic" lengthAdjust="spacingAndGlyphs" textLength="7" x="278.77" y="310.1387">T</text><line style="stroke: #A80036; stroke-width: 1.5;" x1="206.77" x2="282.77" y1="333" y2="333"/><line style="stroke: #A80036; stroke-width: 1.5;" x1="206.77" x2="282.77" y1="341" y2="341"/><!--MD5=[83b3cf3d23d77c6f1e1b5291a241bc2a]
class MonoBehaviour--><rect fill="#FEFECE" filter="url(#f1p1lbgst16znx)" height="48" id="MonoBehaviour" style="stroke: #A80036; stroke-width: 1.5;" width="128" x="180.77" y="8"/><ellipse cx="195.77" cy="24" fill="#ADD1B2" rx="11" ry="11" style="stroke: #A80036; stroke-width: 1.0;"/><path d="M198.7388,29.6406 Q198.1606,29.9375 197.52,30.0781 Q196.8794,30.2344 196.1763,30.2344 Q193.6763,30.2344 192.3481,28.5938 Q191.0356,26.9375 191.0356,23.8125 Q191.0356,20.6875 192.3481,19.0313 Q193.6763,17.375 196.1763,17.375 Q196.8794,17.375 197.52,17.5313 Q198.1763,17.6875 198.7388,17.9844 L198.7388,20.7031 Q198.1138,20.125 197.52,19.8594 Q196.9263,19.5781 196.3013,19.5781 Q194.9575,19.5781 194.27,20.6563 Q193.5825,21.7188 193.5825,23.8125 Q193.5825,25.9063 194.27,26.9844 Q194.9575,28.0469 196.3013,28.0469 Q196.9263,28.0469 197.52,27.7813 Q198.1138,27.5 198.7388,26.9219 L198.7388,29.6406 Z "/><text fill="#000000" font-family="sans-serif" font-size="12" lengthAdjust="spacingAndGlyphs" textLength="96" x="209.77" y="28.1543">MonoBehaviour</text><line style="stroke: #A80036; stroke-width: 1.5;" x1="181.77" x2="307.77" y1="40" y2="40"/><line style="stroke: #A80036; stroke-width: 1.5;" x1="181.77" x2="307.77" y1="48" y2="48"/><!--MD5=[91b737a0aa6758b352ed748d11ff2125]
class PlayerController--><rect fill="#FEFECE" filter="url(#f1p1lbgst16znx)" height="48" id="PlayerController" style="stroke: #A80036; stroke-width: 1.5;" width="131" x="319.27" y="301"/><ellipse cx="334.27" cy="317" fill="#ADD1B2" rx="11" ry="11" style="stroke: #A80036; stroke-width: 1.0;"/><path d="M337.2388,322.6406 Q336.6606,322.9375 336.02,323.0781 Q335.3794,323.2344 334.6763,323.2344 Q332.1763,323.2344 330.8481,321.5938 Q329.5356,319.9375 329.5356,316.8125 Q329.5356,313.6875 330.8481,312.0313 Q332.1763,310.375 334.6763,310.375 Q335.3794,310.375 336.02,310.5313 Q336.6763,310.6875 337.2388,310.9844 L337.2388,313.7031 Q336.6138,313.125 336.02,312.8594 Q335.4263,312.5781 334.8013,312.5781 Q333.4575,312.5781 332.77,313.6563 Q332.0825,314.7188 332.0825,316.8125 Q332.0825,318.9063 332.77,319.9844 Q333.4575,321.0469 334.8013,321.0469 Q335.4263,321.0469 336.02,320.7813 Q336.6138,320.5 337.2388,319.9219 L337.2388,322.6406 Z "/><text fill="#000000" font-family="sans-serif" font-size="12" lengthAdjust="spacingAndGlyphs" textLength="99" x="348.27" y="321.1543">PlayerController</text><line style="stroke: #A80036; stroke-width: 1.5;" x1="320.27" x2="449.27" y1="333" y2="333"/><line style="stroke: #A80036; stroke-width: 1.5;" x1="320.27" x2="449.27" y1="341" y2="341"/><!--MD5=[628cc5a2753cca06eb1ffef55c386535]
class Parser--><rect fill="#FEFECE" filter="url(#f1p1lbgst16znx)" height="48" id="Parser" style="stroke: #A80036; stroke-width: 1.5;" width="73" x="485.27" y="301"/><ellipse cx="500.27" cy="317" fill="#ADD1B2" rx="11" ry="11" style="stroke: #A80036; stroke-width: 1.0;"/><path d="M503.2388,322.6406 Q502.6606,322.9375 502.02,323.0781 Q501.3794,323.2344 500.6763,323.2344 Q498.1763,323.2344 496.8481,321.5938 Q495.5356,319.9375 495.5356,316.8125 Q495.5356,313.6875 496.8481,312.0313 Q498.1763,310.375 500.6763,310.375 Q501.3794,310.375 502.02,310.5313 Q502.6763,310.6875 503.2388,310.9844 L503.2388,313.7031 Q502.6138,313.125 502.02,312.8594 Q501.4263,312.5781 500.8013,312.5781 Q499.4575,312.5781 498.77,313.6563 Q498.0825,314.7188 498.0825,316.8125 Q498.0825,318.9063 498.77,319.9844 Q499.4575,321.0469 500.8013,321.0469 Q501.4263,321.0469 502.02,320.7813 Q502.6138,320.5 503.2388,319.9219 L503.2388,322.6406 Z "/><text fill="#000000" font-family="sans-serif" font-size="12" lengthAdjust="spacingAndGlyphs" textLength="41" x="514.27" y="321.1543">Parser</text><line style="stroke: #A80036; stroke-width: 1.5;" x1="486.27" x2="557.27" y1="333" y2="333"/><line style="stroke: #A80036; stroke-width: 1.5;" x1="486.27" x2="557.27" y1="341" y2="341"/><!--MD5=[904907aec70c3817983bd27a243dd750]
class TextMeshProUGUI--><rect fill="#FEFECE" filter="url(#f1p1lbgst16znx)" height="48" id="TextMeshProUGUI" style="stroke: #A80036; stroke-width: 1.5;" width="142" x="593.77" y="301"/><ellipse cx="608.77" cy="317" fill="#ADD1B2" rx="11" ry="11" style="stroke: #A80036; stroke-width: 1.0;"/><path d="M611.7388,322.6406 Q611.1606,322.9375 610.52,323.0781 Q609.8794,323.2344 609.1763,323.2344 Q606.6763,323.2344 605.3481,321.5938 Q604.0356,319.9375 604.0356,316.8125 Q604.0356,313.6875 605.3481,312.0313 Q606.6763,310.375 609.1763,310.375 Q609.8794,310.375 610.52,310.5313 Q611.1763,310.6875 611.7388,310.9844 L611.7388,313.7031 Q611.1138,313.125 610.52,312.8594 Q609.9263,312.5781 609.3013,312.5781 Q607.9575,312.5781 607.27,313.6563 Q606.5825,314.7188 606.5825,316.8125 Q606.5825,318.9063 607.27,319.9844 Q607.9575,321.0469 609.3013,321.0469 Q609.9263,321.0469 610.52,320.7813 Q611.1138,320.5 611.7388,319.9219 L611.7388,322.6406 Z "/><text fill="#000000" font-family="sans-serif" font-size="12" lengthAdjust="spacingAndGlyphs" textLength="110" x="622.77" y="321.1543">TextMeshProUGUI</text><line style="stroke: #A80036; stroke-width: 1.5;" x1="594.77" x2="734.77" y1="333" y2="333"/><line style="stroke: #A80036; stroke-width: 1.5;" x1="594.77" x2="734.77" y1="341" y2="341"/><!--MD5=[b045b876a689164d96bf81dae925b668]
reverse link MonoBehaviour to DialogueSystemNew--><path d="M244.77,76.67 C244.77,89.05 244.77,102.77 244.77,115.99 " fill="none" id="MonoBehaviour&lt;-DialogueSystemNew" style="stroke: #A80036; stroke-width: 1.0;"/><polygon fill="none" points="237.77,76.22,244.77,56.22,251.77,76.22,237.77,76.22" style="stroke: #A80036; stroke-width: 1.0;"/><!--MD5=[746e3491c9476d364c63477c628daa8b]
link DialogueSystemNew to PlayerController--><path d="M304.55,241.2 C323.46,260.72 343.39,281.28 358.65,297.04 " fill="none" id="DialogueSystemNew-&gt;PlayerController" style="stroke: #A80036; stroke-width: 1.0;"/><polygon fill="#A80036" points="362.43,300.94,359.0622,291.6849,358.9593,297.3408,353.3034,297.2379,362.43,300.94" style="stroke: #A80036; stroke-width: 1.0;"/><text fill="#000000" font-family="sans-serif" font-size="13" lengthAdjust="spacingAndGlyphs" textLength="39" x="361.7023" y="289.9367">player</text><!--MD5=[3345745046c314a668ce2f184ab3b40f]
link DialogueSystemNew to Parser--><path d="M363.05,241.2 C404.96,263.06 449.39,286.24 480.55,302.49 " fill="none" id="DialogueSystemNew-&gt;Parser" style="stroke: #A80036; stroke-width: 1.0;"/><polygon fill="#A80036" points="485.05,304.84,478.9261,297.1265,480.6186,302.5242,475.2209,304.2167,485.05,304.84" style="stroke: #A80036; stroke-width: 1.0;"/><text fill="#000000" font-family="sans-serif" font-size="13" lengthAdjust="spacingAndGlyphs" textLength="41" x="448.8526" y="289.8805">parser</text><!--MD5=[5d107de89cb2e568d96b7856a13572ab]
link DialogueSystemNew to DialogueSystemNew--><path d="M377.47,153.41 C398.16,157.16 412.27,165.53 412.27,178.5 C412.27,190.36 400.48,198.37 382.65,202.52 " fill="none" id="DialogueSystemNew-&gt;DialogueSystemNew" style="stroke: #A80036; stroke-width: 1.0;"/><polygon fill="#A80036" points="377.47,203.59,387.094,205.6827,382.3662,202.5765,385.4724,197.8487,377.47,203.59" style="stroke: #A80036; stroke-width: 1.0;"/><text fill="#000000" font-family="sans-serif" font-size="13" lengthAdjust="spacingAndGlyphs" textLength="54" x="385.2055" y="201.5163">instance</text><!--MD5=[fb16bdff9da0675a2d80e2806b91261a]
link DialogueSystemNew to TextMeshProUGUI--><path d="M377.51,238.38 C447.02,263.06 529.06,289.9 588.54,306.83 " fill="none" id="DialogueSystemNew-&gt;TextMeshProUGUI" style="stroke: #A80036; stroke-width: 1.0;"/><polygon fill="#A80036" points="593.5,308.23,585.9402,301.9173,588.6913,306.8602,583.7485,309.6113,593.5,308.23" style="stroke: #A80036; stroke-width: 1.0;"/><text fill="#000000" font-family="sans-serif" font-size="13" lengthAdjust="spacingAndGlyphs" textLength="100" x="507.3529" y="289.8671">characterName</text><!--MD5=[fb16bdff9da0675a2d80e2806b91261a]
link DialogueSystemNew to TextMeshProUGUI--><path d="M377.42,229.33 C447.1,253.74 529.92,281.94 588.8,301.17 " fill="none" id="DialogueSystemNew-&gt;TextMeshProUGUI-1" style="stroke: #A80036; stroke-width: 1.0;"/><polygon fill="#A80036" points="593.71,302.77,586.4009,296.1687,588.9581,301.2146,583.9122,303.7718,593.71,302.77" style="stroke: #A80036; stroke-width: 1.0;"/><text fill="#000000" font-family="sans-serif" font-size="13" lengthAdjust="spacingAndGlyphs" textLength="71" x="581.9308" y="290.0108">displayText</text><!--MD5=[fb16bdff9da0675a2d80e2806b91261a]
link DialogueSystemNew to TextMeshProUGUI--><path d="M377.47,220.91 C452.93,246.18 543.76,277.64 602.94,299.12 " fill="none" id="DialogueSystemNew-&gt;TextMeshProUGUI-2" style="stroke: #A80036; stroke-width: 1.0;"/><polygon fill="#A80036" points="607.86,300.91,600.7755,294.0682,603.1627,299.1967,598.0342,301.5839,607.86,300.91" style="stroke: #A80036; stroke-width: 1.0;"/><text fill="#000000" font-family="sans-serif" font-size="13" lengthAdjust="spacingAndGlyphs" textLength="76" x="603.0143" y="289.899">choice1Text</text><!--MD5=[fb16bdff9da0675a2d80e2806b91261a]
link DialogueSystemNew to TextMeshProUGUI--><path d="M377.52,213.38 C461.97,239.59 564.61,275.28 622.94,298.95 " fill="none" id="DialogueSystemNew-&gt;TextMeshProUGUI-3" style="stroke: #A80036; stroke-width: 1.0;"/><polygon fill="#A80036" points="627.75,300.92,620.9244,293.82,623.1195,299.0335,617.906,301.2287,627.75,300.92" style="stroke: #A80036; stroke-width: 1.0;"/><text fill="#000000" font-family="sans-serif" font-size="13" lengthAdjust="spacingAndGlyphs" textLength="76" x="564.8349" y="289.9531">choice2Text</text><!--MD5=[f16f0a27eeba07d33cc34876ac52110b]
link DialogueSystemNew to List`1--><path d="M166.77,241.2 C162.85,268.58 174.3,298.02 201.11,313.35 " fill="none" id="DialogueSystemNew-&gt;List`1" style="stroke: #A80036; stroke-width: 1.0;"/><polygon fill="#A80036" points="205.55,315.68,199.4456,307.951,201.1245,313.353,195.7225,315.0319,205.55,315.68" style="stroke: #A80036; stroke-width: 1.0;"/><text fill="#000000" font-family="sans-serif" font-size="13" lengthAdjust="spacingAndGlyphs" textLength="178" x="19.7366" y="311.726">loadedDialogueFile&lt;string&gt;</text><!--MD5=[f16f0a27eeba07d33cc34876ac52110b]
link DialogueSystemNew to List`1--><path d="M192.77,241.2 C190.88,260.97 194.34,281.82 203.14,297.65 " fill="none" id="DialogueSystemNew-&gt;List`1-1" style="stroke: #A80036; stroke-width: 1.0;"/><polygon fill="#A80036" points="205.76,301.98,204.5356,292.2075,203.177,297.6988,197.6857,296.3403,205.76,301.98" style="stroke: #A80036; stroke-width: 1.0;"/><text fill="#000000" font-family="sans-serif" font-size="13" lengthAdjust="spacingAndGlyphs" textLength="137" x="213.9453" y="289.9165">characterStage&lt;int&gt;</text><!--MD5=[f16f0a27eeba07d33cc34876ac52110b]
link DialogueSystemNew to List`1--><path d="M218.77,241.2 C217.86,260.22 219.43,280.24 223.47,295.83 " fill="none" id="DialogueSystemNew-&gt;List`1-2" style="stroke: #A80036; stroke-width: 1.0;"/><polygon fill="#A80036" points="224.93,300.94,226.3113,291.1885,223.5602,296.1313,218.6173,293.3802,224.93,300.94" style="stroke: #A80036; stroke-width: 1.0;"/><text fill="#000000" font-family="sans-serif" font-size="13" lengthAdjust="spacingAndGlyphs" textLength="138" x="64.1648" y="289.9367">replyOptions&lt;string&gt;</text><!--MD5=[f16f0a27eeba07d33cc34876ac52110b]
link DialogueSystemNew to List`1--><path d="M244.77,241.2 C244.77,260.22 244.77,280.24 244.77,295.83 " fill="none" id="DialogueSystemNew-&gt;List`1-3" style="stroke: #A80036; stroke-width: 1.0;"/><polygon fill="#A80036" points="244.77,300.94,248.77,291.94,244.77,295.94,240.77,291.94,244.77,300.94" style="stroke: #A80036; stroke-width: 1.0;"/><text fill="#000000" font-family="sans-serif" font-size="13" lengthAdjust="spacingAndGlyphs" textLength="107" x="280.4204" y="289.8772">replyStage&lt;int&gt;</text><!--MD5=[f16f0a27eeba07d33cc34876ac52110b]
link DialogueSystemNew to List`1--><path d="M270.77,241.2 C271.68,260.22 270.12,280.24 266.08,295.83 " fill="none" id="DialogueSystemNew-&gt;List`1-4" style="stroke: #A80036; stroke-width: 1.0;"/><polygon fill="#A80036" points="264.62,300.94,270.9327,293.3802,265.9898,296.1313,263.2387,291.1885,264.62,300.94" style="stroke: #A80036; stroke-width: 1.0;"/><text fill="#000000" font-family="sans-serif" font-size="13" lengthAdjust="spacingAndGlyphs" textLength="166" x="290.9584" y="289.8748">characterIdentity&lt;string&gt;</text><!--MD5=[f16f0a27eeba07d33cc34876ac52110b]
link DialogueSystemNew to List`1--><path d="M296.77,241.2 C298.66,260.97 295.21,281.82 286.41,297.65 " fill="none" id="DialogueSystemNew-&gt;List`1-5" style="stroke: #A80036; stroke-width: 1.0;"/><polygon fill="#A80036" points="283.78,301.98,291.8626,296.3522,286.3693,297.7027,285.0189,292.2094,283.78,301.98" style="stroke: #A80036; stroke-width: 1.0;"/><text fill="#000000" font-family="sans-serif" font-size="13" lengthAdjust="spacingAndGlyphs" textLength="178" x="285.6107" y="289.7419">parsedDialogue&lt;Dialogue&gt;</text><!--MD5=[f16f0a27eeba07d33cc34876ac52110b]
link DialogueSystemNew to List`1--><path d="M322.77,241.2 C326.69,268.58 315.25,298.02 288.44,313.35 " fill="none" id="DialogueSystemNew-&gt;List`1-6" style="stroke: #A80036; stroke-width: 1.0;"/><polygon fill="#A80036" points="284,315.68,293.8275,315.0319,288.4255,313.353,290.1044,307.951,284,315.68" style="stroke: #A80036; stroke-width: 1.0;"/><text fill="#000000" font-family="sans-serif" font-size="13" lengthAdjust="spacingAndGlyphs" textLength="263" x="-64.3498" y="326.1248">previewedparsedDialogueFile&lt;Dialogue&gt;</text><!--MD5=[2273f4a4b124d9e9fe714ac842e8be55]
@startuml
class DialogueSystemNew {
    + currentStage : int
    Start() : void
    Update() : void
    + DialogueChoice(character:string) : void
    + loadNewDialogue() : void
    + readTextFile(filePath:string) : List<string>
}
class "List`1"<T> {
}
MonoBehaviour <|- - DialogueSystemNew
DialogueSystemNew - -> "player" PlayerController
DialogueSystemNew - -> "parser" Parser
DialogueSystemNew - -> "instance" DialogueSystemNew
DialogueSystemNew - -> "characterName" TextMeshProUGUI
DialogueSystemNew - -> "displayText" TextMeshProUGUI
DialogueSystemNew - -> "choice1Text" TextMeshProUGUI
DialogueSystemNew - -> "choice2Text" TextMeshProUGUI
DialogueSystemNew - -> "loadedDialogueFile<string>" "List`1"
DialogueSystemNew - -> "characterStage<int>" "List`1"
DialogueSystemNew - -> "replyOptions<string>" "List`1"
DialogueSystemNew - -> "replyStage<int>" "List`1"
DialogueSystemNew - -> "characterIdentity<string>" "List`1"
DialogueSystemNew - -> "parsedDialogue<Dialogue>" "List`1"
DialogueSystemNew - -> "previewedparsedDialogueFile<Dialogue>" "List`1"
@enduml

PlantUML version 1.2020.02(Sun Mar 01 10:22:07 GMT 2020)
(GPL source distribution)
Java Runtime: OpenJDK Runtime Environment
JVM: OpenJDK 64-Bit Server VM
Java Version: 11.0.9+11-Ubuntu-0ubuntu1
Operating System: Linux
Default Encoding: ANSI_X3.4-1968
Language: en
Country: US
--></g></svg>