<?xml version="1.0" encoding="UTF-8" standalone="no"?><svg xmlns="http://www.w3.org/2000/svg" xmlns:xlink="http://www.w3.org/1999/xlink" contentScriptType="application/ecmascript" contentStyleType="text/css" height="334px" preserveAspectRatio="none" style="width:396px;height:334px;" version="1.1" viewBox="0 0 396 334" width="396px" zoomAndPan="magnify"><defs><filter height="300%" id="f13pamci4bbfjo" width="300%" x="-1" y="-1"><feGaussianBlur result="blurOut" stdDeviation="2.0"/><feColorMatrix in="blurOut" result="blurOut2" type="matrix" values="0 0 0 0 0 0 0 0 0 0 0 0 0 0 0 0 0 0 .4 0"/><feOffset dx="4.0" dy="4.0" in="blurOut2" result="blurOut3"/><feBlend in="SourceGraphic" in2="blurOut3" mode="normal"/></filter></defs><g><!--MD5=[98e3f99955e62baeb95c7fddfa2eb6dd]
class HUDUIManager--><rect fill="#FEFECE" filter="url(#f13pamci4bbfjo)" height="99.2188" id="HUDUIManager" style="stroke: #A80036; stroke-width: 1.5;" width="135" x="127.59" y="116"/><ellipse cx="146.64" cy="132" fill="#ADD1B2" rx="11" ry="11" style="stroke: #A80036; stroke-width: 1.0;"/><path d="M149.6088,137.6406 Q149.0306,137.9375 148.39,138.0781 Q147.7494,138.2344 147.0463,138.2344 Q144.5463,138.2344 143.2181,136.5938 Q141.9056,134.9375 141.9056,131.8125 Q141.9056,128.6875 143.2181,127.0313 Q144.5463,125.375 147.0463,125.375 Q147.7494,125.375 148.39,125.5313 Q149.0463,125.6875 149.6088,125.9844 L149.6088,128.7031 Q148.9838,128.125 148.39,127.8594 Q147.7963,127.5781 147.1713,127.5781 Q145.8275,127.5781 145.14,128.6563 Q144.4525,129.7188 144.4525,131.8125 Q144.4525,133.9063 145.14,134.9844 Q145.8275,136.0469 147.1713,136.0469 Q147.7963,136.0469 148.39,135.7813 Q148.9838,135.5 149.6088,134.9219 L149.6088,137.6406 Z "/><text fill="#000000" font-family="sans-serif" font-size="12" lengthAdjust="spacingAndGlyphs" textLength="94" x="161.54" y="136.1543">HUDUIManager</text><line style="stroke: #A80036; stroke-width: 1.5;" x1="128.59" x2="261.59" y1="148" y2="148"/><line style="stroke: #A80036; stroke-width: 1.5;" x1="128.59" x2="261.59" y1="156" y2="156"/><text fill="#000000" font-family="sans-serif" font-size="11" lengthAdjust="spacingAndGlyphs" textLength="71" x="147.59" y="170.2104">Start() : void</text><ellipse cx="138.59" cy="179.8047" fill="#84BE84" rx="3" ry="3" style="stroke: #038048; stroke-width: 1.0;"/><text fill="#000000" font-family="sans-serif" font-size="11" lengthAdjust="spacingAndGlyphs" textLength="109" x="147.59" y="183.0151">ShowSaves() : void</text><ellipse cx="138.59" cy="192.6094" fill="#84BE84" rx="3" ry="3" style="stroke: #038048; stroke-width: 1.0;"/><text fill="#000000" font-family="sans-serif" font-size="11" lengthAdjust="spacingAndGlyphs" textLength="108" x="147.59" y="195.8198">ShowLoads() : void</text><ellipse cx="138.59" cy="205.4141" fill="#84BE84" rx="3" ry="3" style="stroke: #038048; stroke-width: 1.0;"/><text fill="#000000" font-family="sans-serif" font-size="11" lengthAdjust="spacingAndGlyphs" textLength="68" x="147.59" y="208.6245">Hide() : void</text><!--MD5=[83b3cf3d23d77c6f1e1b5291a241bc2a]
class MonoBehaviour--><rect fill="#FEFECE" filter="url(#f13pamci4bbfjo)" height="48" id="MonoBehaviour" style="stroke: #A80036; stroke-width: 1.5;" width="128" x="131.09" y="8"/><ellipse cx="146.09" cy="24" fill="#ADD1B2" rx="11" ry="11" style="stroke: #A80036; stroke-width: 1.0;"/><path d="M149.0588,29.6406 Q148.4806,29.9375 147.84,30.0781 Q147.1994,30.2344 146.4963,30.2344 Q143.9963,30.2344 142.6681,28.5938 Q141.3556,26.9375 141.3556,23.8125 Q141.3556,20.6875 142.6681,19.0313 Q143.9963,17.375 146.4963,17.375 Q147.1994,17.375 147.84,17.5313 Q148.4963,17.6875 149.0588,17.9844 L149.0588,20.7031 Q148.4338,20.125 147.84,19.8594 Q147.2463,19.5781 146.6213,19.5781 Q145.2775,19.5781 144.59,20.6563 Q143.9025,21.7188 143.9025,23.8125 Q143.9025,25.9063 144.59,26.9844 Q145.2775,28.0469 146.6213,28.0469 Q147.2463,28.0469 147.84,27.7813 Q148.4338,27.5 149.0588,26.9219 L149.0588,29.6406 Z "/><text fill="#000000" font-family="sans-serif" font-size="12" lengthAdjust="spacingAndGlyphs" textLength="96" x="160.09" y="28.1543">MonoBehaviour</text><line style="stroke: #A80036; stroke-width: 1.5;" x1="132.09" x2="258.09" y1="40" y2="40"/><line style="stroke: #A80036; stroke-width: 1.5;" x1="132.09" x2="258.09" y1="48" y2="48"/><!--MD5=[064f7a74fee85463ec1a30143664ee17]
class GameObject--><rect fill="#FEFECE" filter="url(#f13pamci4bbfjo)" height="48" id="GameObject" style="stroke: #A80036; stroke-width: 1.5;" width="108" x="141.09" y="275"/><ellipse cx="156.09" cy="291" fill="#ADD1B2" rx="11" ry="11" style="stroke: #A80036; stroke-width: 1.0;"/><path d="M159.0588,296.6406 Q158.4806,296.9375 157.84,297.0781 Q157.1994,297.2344 156.4963,297.2344 Q153.9963,297.2344 152.6681,295.5938 Q151.3556,293.9375 151.3556,290.8125 Q151.3556,287.6875 152.6681,286.0313 Q153.9963,284.375 156.4963,284.375 Q157.1994,284.375 157.84,284.5313 Q158.4963,284.6875 159.0588,284.9844 L159.0588,287.7031 Q158.4338,287.125 157.84,286.8594 Q157.2463,286.5781 156.6213,286.5781 Q155.2775,286.5781 154.59,287.6563 Q153.9025,288.7188 153.9025,290.8125 Q153.9025,292.9063 154.59,293.9844 Q155.2775,295.0469 156.6213,295.0469 Q157.2463,295.0469 157.84,294.7813 Q158.4338,294.5 159.0588,293.9219 L159.0588,296.6406 Z "/><text fill="#000000" font-family="sans-serif" font-size="12" lengthAdjust="spacingAndGlyphs" textLength="76" x="170.09" y="295.1543">GameObject</text><line style="stroke: #A80036; stroke-width: 1.5;" x1="142.09" x2="248.09" y1="307" y2="307"/><line style="stroke: #A80036; stroke-width: 1.5;" x1="142.09" x2="248.09" y1="315" y2="315"/><!--MD5=[3fa4fec329080613eef790fd53703749]
reverse link MonoBehaviour to HUDUIManager--><path d="M195.09,76.51 C195.09,89.14 195.09,103.01 195.09,115.93 " fill="none" id="MonoBehaviour&lt;-HUDUIManager" style="stroke: #A80036; stroke-width: 1.0;"/><polygon fill="none" points="188.09,76.21,195.09,56.21,202.09,76.21,188.09,76.21" style="stroke: #A80036; stroke-width: 1.0;"/><!--MD5=[9999233c764572e18633cce432edbffb]
link HUDUIManager to GameObject--><path d="M127.42,197 C109.95,222.06 113.14,256.83 136.99,278.34 " fill="none" id="HUDUIManager-&gt;GameObject" style="stroke: #A80036; stroke-width: 1.0;"/><polygon fill="#A80036" points="141,281.68,136.6435,272.847,137.1577,278.4805,131.5243,278.9947,141,281.68" style="stroke: #A80036; stroke-width: 1.0;"/><text fill="#000000" font-family="sans-serif" font-size="13" lengthAdjust="spacingAndGlyphs" textLength="120" x="12.978" y="277.0064">saveFileOneButton</text><!--MD5=[9999233c764572e18633cce432edbffb]
link HUDUIManager to GameObject--><path d="M144.21,215.09 C140.6,233.82 143.03,254.54 151.5,270.58 " fill="none" id="HUDUIManager-&gt;GameObject-1" style="stroke: #A80036; stroke-width: 1.0;"/><polygon fill="#A80036" points="154.05,274.98,152.9884,265.1885,151.5386,270.6565,146.0707,269.2067,154.05,274.98" style="stroke: #A80036; stroke-width: 1.0;"/><text fill="#000000" font-family="sans-serif" font-size="13" lengthAdjust="spacingAndGlyphs" textLength="118" x="158.6523" y="263.9869">saveFileTwoButton</text><!--MD5=[9999233c764572e18633cce432edbffb]
link HUDUIManager to GameObject--><path d="M169.65,215.09 C167.86,233.66 169.04,254.18 173.19,270.17 " fill="none" id="HUDUIManager-&gt;GameObject-2" style="stroke: #A80036; stroke-width: 1.0;"/><polygon fill="#A80036" points="174.57,274.98,175.9168,265.2237,173.1832,270.1762,168.2307,267.4426,174.57,274.98" style="stroke: #A80036; stroke-width: 1.0;"/><text fill="#000000" font-family="sans-serif" font-size="13" lengthAdjust="spacingAndGlyphs" textLength="130" x="237.954" y="263.6005">saveFileThreeButton</text><!--MD5=[9999233c764572e18633cce432edbffb]
link HUDUIManager to GameObject--><path d="M195.09,215.09 C195.09,233.5 195.09,253.83 195.09,269.75 " fill="none" id="HUDUIManager-&gt;GameObject-3" style="stroke: #A80036; stroke-width: 1.0;"/><polygon fill="#A80036" points="195.09,274.98,199.09,265.98,195.09,269.98,191.09,265.98,195.09,274.98" style="stroke: #A80036; stroke-width: 1.0;"/><text fill="#000000" font-family="sans-serif" font-size="13" lengthAdjust="spacingAndGlyphs" textLength="117" x="63.0994" y="263.9869">loadFileOneButton</text><!--MD5=[9999233c764572e18633cce432edbffb]
link HUDUIManager to GameObject--><path d="M220.53,215.09 C222.32,233.66 221.14,254.18 216.99,270.17 " fill="none" id="HUDUIManager-&gt;GameObject-4" style="stroke: #A80036; stroke-width: 1.0;"/><polygon fill="#A80036" points="215.61,274.98,221.9434,267.4376,216.993,270.1751,214.2555,265.2247,215.61,274.98" style="stroke: #A80036; stroke-width: 1.0;"/><text fill="#000000" font-family="sans-serif" font-size="13" lengthAdjust="spacingAndGlyphs" textLength="115" x="235.6026" y="263.9869">loadFileTwoButton</text><!--MD5=[9999233c764572e18633cce432edbffb]
link HUDUIManager to GameObject--><path d="M245.97,215.09 C249.59,233.82 247.16,254.54 238.68,270.58 " fill="none" id="HUDUIManager-&gt;GameObject-5" style="stroke: #A80036; stroke-width: 1.0;"/><polygon fill="#A80036" points="236.13,274.98,244.1176,269.2182,238.6476,270.6601,237.2057,265.1901,236.13,274.98" style="stroke: #A80036; stroke-width: 1.0;"/><text fill="#000000" font-family="sans-serif" font-size="13" lengthAdjust="spacingAndGlyphs" textLength="127" x="257.6914" y="265.5596">loadFileThreeButton</text><!--MD5=[9999233c764572e18633cce432edbffb]
link HUDUIManager to GameObject--><path d="M262.77,197 C280.23,222.06 277.04,256.83 253.19,278.34 " fill="none" id="HUDUIManager-&gt;GameObject-6" style="stroke: #A80036; stroke-width: 1.0;"/><polygon fill="#A80036" points="249.18,281.68,258.6557,278.9947,253.0223,278.4805,253.5365,272.847,249.18,281.68" style="stroke: #A80036; stroke-width: 1.0;"/><text fill="#000000" font-family="sans-serif" font-size="13" lengthAdjust="spacingAndGlyphs" textLength="84" x="257.1375" y="292.9392">cancelButton</text><!--MD5=[93ef10d580616a380b1f89611009c150]
@startuml
class HUDUIManager {
    Start() : void
    + ShowSaves() : void
    + ShowLoads() : void
    + Hide() : void
}
MonoBehaviour <|- - HUDUIManager
HUDUIManager - -> "saveFileOneButton" GameObject
HUDUIManager - -> "saveFileTwoButton" GameObject
HUDUIManager - -> "saveFileThreeButton" GameObject
HUDUIManager - -> "loadFileOneButton" GameObject
HUDUIManager - -> "loadFileTwoButton" GameObject
HUDUIManager - -> "loadFileThreeButton" GameObject
HUDUIManager - -> "cancelButton" GameObject
@enduml

PlantUML version 1.2020.02(Sun Mar 01 10:22:07 GMT 2020)
(GPL source distribution)
Java Runtime: OpenJDK Runtime Environment
JVM: OpenJDK 64-Bit Server VM
Java Version: 11.0.9+11-Ubuntu-0ubuntu1
Operating System: Linux
Default Encoding: ANSI_X3.4-1968
Language: en
Country: US
--></g></svg>