<?xml version="1.0" encoding="UTF-8" standalone="no"?><svg xmlns="http://www.w3.org/2000/svg" xmlns:xlink="http://www.w3.org/1999/xlink" contentScriptType="application/ecmascript" contentStyleType="text/css" height="283px" preserveAspectRatio="none" style="width:201px;height:283px;" version="1.1" viewBox="0 0 201 283" width="201px" zoomAndPan="magnify"><defs><filter height="300%" id="f18g4abhyapgu4" width="300%" x="-1" y="-1"><feGaussianBlur result="blurOut" stdDeviation="2.0"/><feColorMatrix in="blurOut" result="blurOut2" type="matrix" values="0 0 0 0 0 0 0 0 0 0 0 0 0 0 0 0 0 0 .4 0"/><feOffset dx="4.0" dy="4.0" in="blurOut2" result="blurOut3"/><feBlend in="SourceGraphic" in2="blurOut3" mode="normal"/></filter></defs><g><!--MD5=[c9e299fef67abd0608ce0e538bb5140e]
class LineInformation--><rect fill="#FEFECE" filter="url(#f18g4abhyapgu4)" height="48" id="LineInformation" style="stroke: #A80036; stroke-width: 1.5;" width="128" x="38.77" y="116"/><ellipse cx="53.77" cy="132" fill="#ADD1B2" rx="11" ry="11" style="stroke: #A80036; stroke-width: 1.0;"/><path d="M56.7387,137.6406 Q56.1606,137.9375 55.52,138.0781 Q54.8794,138.2344 54.1762,138.2344 Q51.6762,138.2344 50.3481,136.5938 Q49.0356,134.9375 49.0356,131.8125 Q49.0356,128.6875 50.3481,127.0313 Q51.6762,125.375 54.1762,125.375 Q54.8794,125.375 55.52,125.5313 Q56.1762,125.6875 56.7387,125.9844 L56.7387,128.7031 Q56.1137,128.125 55.52,127.8594 Q54.9262,127.5781 54.3012,127.5781 Q52.9575,127.5781 52.27,128.6563 Q51.5825,129.7188 51.5825,131.8125 Q51.5825,133.9063 52.27,134.9844 Q52.9575,136.0469 54.3012,136.0469 Q54.9262,136.0469 55.52,135.7813 Q56.1137,135.5 56.7387,134.9219 L56.7387,137.6406 Z "/><text fill="#000000" font-family="sans-serif" font-size="12" lengthAdjust="spacingAndGlyphs" textLength="96" x="67.77" y="136.1543">LineInformation</text><line style="stroke: #A80036; stroke-width: 1.5;" x1="39.77" x2="165.77" y1="148" y2="148"/><line style="stroke: #A80036; stroke-width: 1.5;" x1="39.77" x2="165.77" y1="156" y2="156"/><!--MD5=[83b3cf3d23d77c6f1e1b5291a241bc2a]
class MonoBehaviour--><rect fill="#FEFECE" filter="url(#f18g4abhyapgu4)" height="48" id="MonoBehaviour" style="stroke: #A80036; stroke-width: 1.5;" width="128" x="38.77" y="8"/><ellipse cx="53.77" cy="24" fill="#ADD1B2" rx="11" ry="11" style="stroke: #A80036; stroke-width: 1.0;"/><path d="M56.7387,29.6406 Q56.1606,29.9375 55.52,30.0781 Q54.8794,30.2344 54.1762,30.2344 Q51.6762,30.2344 50.3481,28.5938 Q49.0356,26.9375 49.0356,23.8125 Q49.0356,20.6875 50.3481,19.0313 Q51.6762,17.375 54.1762,17.375 Q54.8794,17.375 55.52,17.5313 Q56.1762,17.6875 56.7387,17.9844 L56.7387,20.7031 Q56.1137,20.125 55.52,19.8594 Q54.9262,19.5781 54.3012,19.5781 Q52.9575,19.5781 52.27,20.6563 Q51.5825,21.7188 51.5825,23.8125 Q51.5825,25.9063 52.27,26.9844 Q52.9575,28.0469 54.3012,28.0469 Q54.9262,28.0469 55.52,27.7813 Q56.1137,27.5 56.7387,26.9219 L56.7387,29.6406 Z "/><text fill="#000000" font-family="sans-serif" font-size="12" lengthAdjust="spacingAndGlyphs" textLength="96" x="67.77" y="28.1543">MonoBehaviour</text><line style="stroke: #A80036; stroke-width: 1.5;" x1="39.77" x2="165.77" y1="40" y2="40"/><line style="stroke: #A80036; stroke-width: 1.5;" x1="39.77" x2="165.77" y1="48" y2="48"/><!--MD5=[064f7a74fee85463ec1a30143664ee17]
class GameObject--><rect fill="#FEFECE" filter="url(#f18g4abhyapgu4)" height="48" id="GameObject" style="stroke: #A80036; stroke-width: 1.5;" width="108" x="48.77" y="224"/><ellipse cx="63.77" cy="240" fill="#ADD1B2" rx="11" ry="11" style="stroke: #A80036; stroke-width: 1.0;"/><path d="M66.7388,245.6406 Q66.1606,245.9375 65.52,246.0781 Q64.8794,246.2344 64.1763,246.2344 Q61.6762,246.2344 60.3481,244.5938 Q59.0356,242.9375 59.0356,239.8125 Q59.0356,236.6875 60.3481,235.0313 Q61.6762,233.375 64.1763,233.375 Q64.8794,233.375 65.52,233.5313 Q66.1763,233.6875 66.7388,233.9844 L66.7388,236.7031 Q66.1138,236.125 65.52,235.8594 Q64.9263,235.5781 64.3013,235.5781 Q62.9575,235.5781 62.27,236.6563 Q61.5825,237.7188 61.5825,239.8125 Q61.5825,241.9063 62.27,242.9844 Q62.9575,244.0469 64.3013,244.0469 Q64.9263,244.0469 65.52,243.7813 Q66.1138,243.5 66.7388,242.9219 L66.7388,245.6406 Z "/><text fill="#000000" font-family="sans-serif" font-size="12" lengthAdjust="spacingAndGlyphs" textLength="76" x="77.77" y="244.1543">GameObject</text><line style="stroke: #A80036; stroke-width: 1.5;" x1="49.77" x2="155.77" y1="256" y2="256"/><line style="stroke: #A80036; stroke-width: 1.5;" x1="49.77" x2="155.77" y1="264" y2="264"/><!--MD5=[6fec3453641bca0ec5b45b0143f7c37f]
reverse link MonoBehaviour to LineInformation--><path d="M102.77,76.02 C102.77,89.58 102.77,104.04 102.77,115.68 " fill="none" id="MonoBehaviour&lt;-LineInformation" style="stroke: #A80036; stroke-width: 1.0;"/><polygon fill="none" points="95.77,76,102.77,56,109.77,76,95.77,76" style="stroke: #A80036; stroke-width: 1.0;"/><!--MD5=[46d045882fdeaa6a95e565dd6ffe05dc]
link LineInformation to GameObject--><path d="M92.05,164 C89.62,180 89.38,201.45 91.32,218.53 " fill="none" id="LineInformation-&gt;GameObject" style="stroke: #A80036; stroke-width: 1.0;"/><polygon fill="#A80036" points="92,223.68,94.7861,214.2334,91.3448,218.7231,86.8551,215.2818,92,223.68" style="stroke: #A80036; stroke-width: 1.0;"/><text fill="#000000" font-family="sans-serif" font-size="13" lengthAdjust="spacingAndGlyphs" textLength="71" x="9.7217" y="213.007">startObject</text><!--MD5=[46d045882fdeaa6a95e565dd6ffe05dc]
link LineInformation to GameObject--><path d="M114.13,164 C116.71,180 116.96,201.45 114.9,218.53 " fill="none" id="LineInformation-&gt;GameObject-1" style="stroke: #A80036; stroke-width: 1.0;"/><polygon fill="#A80036" points="114.18,223.68,119.3788,215.315,114.8671,218.7274,111.4547,214.2157,114.18,223.68" style="stroke: #A80036; stroke-width: 1.0;"/><text fill="#000000" font-family="sans-serif" font-size="13" lengthAdjust="spacingAndGlyphs" textLength="65" x="124.8831" y="213.007">endObject</text><!--MD5=[38416920f958a6190eda9e9f63acb8e7]
@startuml
class LineInformation {
}
MonoBehaviour <|- - LineInformation
LineInformation - -> "startObject" GameObject
LineInformation - -> "endObject" GameObject
@enduml

PlantUML version 1.2020.02(Sun Mar 01 10:22:07 GMT 2020)
(GPL source distribution)
Java Runtime: OpenJDK Runtime Environment
JVM: OpenJDK 64-Bit Server VM
Java Version: 11.0.9+11-Ubuntu-0ubuntu1
Operating System: Linux
Default Encoding: ANSI_X3.4-1968
Language: en
Country: US
--></g></svg>