<?xml version="1.0" encoding="UTF-8" standalone="no"?><svg xmlns="http://www.w3.org/2000/svg" xmlns:xlink="http://www.w3.org/1999/xlink" contentScriptType="application/ecmascript" contentStyleType="text/css" height="245px" preserveAspectRatio="none" style="width:647px;height:245px;" version="1.1" viewBox="0 0 647 245" width="647px" zoomAndPan="magnify"><defs><filter height="300%" id="f1q3pre2hekox4" width="300%" x="-1" y="-1"><feGaussianBlur result="blurOut" stdDeviation="2.0"/><feColorMatrix in="blurOut" result="blurOut2" type="matrix" values="0 0 0 0 0 0 0 0 0 0 0 0 0 0 0 0 0 0 .4 0"/><feOffset dx="4.0" dy="4.0" in="blurOut2" result="blurOut3"/><feBlend in="SourceGraphic" in2="blurOut3" mode="normal"/></filter></defs><g><!--MD5=[542311d0e9e49b893847feb8cb2d30ef]
class WallsState--><rect fill="#FEFECE" filter="url(#f1q3pre2hekox4)" height="112.0234" id="WallsState" style="stroke: #A80036; stroke-width: 1.5;" width="98" x="18.31" y="122"/><ellipse cx="33.31" cy="138" fill="#EB937F" rx="11" ry="11" style="stroke: #A80036; stroke-width: 1.0;"/><path d="M37.4194,144 L29.7006,144 L29.7006,131.6094 L37.4194,131.6094 L37.4194,133.7656 L32.1538,133.7656 L32.1538,136.4375 L36.9194,136.4375 L36.9194,138.5938 L32.1538,138.5938 L32.1538,141.8438 L37.4194,141.8438 L37.4194,144 Z "/><text fill="#000000" font-family="sans-serif" font-size="12" lengthAdjust="spacingAndGlyphs" textLength="66" x="47.31" y="142.1543">WallsState</text><line style="stroke: #A80036; stroke-width: 1.5;" x1="19.31" x2="115.31" y1="154" y2="154"/><text fill="#000000" font-family="sans-serif" font-size="11" lengthAdjust="spacingAndGlyphs" textLength="50" x="24.31" y="168.2104">LEFT= 1,</text><text fill="#000000" font-family="sans-serif" font-size="11" lengthAdjust="spacingAndGlyphs" textLength="58" x="24.31" y="181.0151">RIGHT= 2,</text><text fill="#000000" font-family="sans-serif" font-size="11" lengthAdjust="spacingAndGlyphs" textLength="47" x="24.31" y="193.8198">TOP= 4,</text><text fill="#000000" font-family="sans-serif" font-size="11" lengthAdjust="spacingAndGlyphs" textLength="73" x="24.31" y="206.6245">BOTTOM= 8,</text><text fill="#000000" font-family="sans-serif" font-size="11" lengthAdjust="spacingAndGlyphs" textLength="81" x="24.31" y="219.4292">VISITED= 128,</text><line style="stroke: #A80036; stroke-width: 1.5;" x1="19.31" x2="115.31" y1="226.0234" y2="226.0234"/><!--MD5=[a64a835c3d62471a77f615251fdde58a]
class Position--><rect fill="#FEFECE" filter="url(#f1q3pre2hekox4)" height="79.5469" id="Position" style="stroke: #A80036; stroke-width: 1.5;" width="82" x="151.31" y="138"/><ellipse cx="166.31" cy="156.9688" fill="#ADD1B2" rx="11" ry="11" style="stroke: #A80036; stroke-width: 1.0;"/><path d="M169.2788,162.6094 Q168.7006,162.9063 168.06,163.0469 Q167.4194,163.2031 166.7163,163.2031 Q164.2163,163.2031 162.8881,161.5625 Q161.5756,159.9063 161.5756,156.7813 Q161.5756,153.6563 162.8881,152 Q164.2163,150.3438 166.7163,150.3438 Q167.4194,150.3438 168.06,150.5 Q168.7163,150.6563 169.2788,150.9531 L169.2788,153.6719 Q168.6538,153.0938 168.06,152.8281 Q167.4663,152.5469 166.8413,152.5469 Q165.4975,152.5469 164.81,153.625 Q164.1225,154.6875 164.1225,156.7813 Q164.1225,158.875 164.81,159.9531 Q165.4975,161.0156 166.8413,161.0156 Q167.4663,161.0156 168.06,160.75 Q168.6538,160.4688 169.2788,159.8906 L169.2788,162.6094 Z "/><text fill="#000000" font-family="sans-serif" font-size="12" font-style="italic" lengthAdjust="spacingAndGlyphs" textLength="50" x="180.31" y="154.1387">«struct»</text><text fill="#000000" font-family="sans-serif" font-size="12" lengthAdjust="spacingAndGlyphs" textLength="50" x="180.31" y="168.1074">Position</text><line style="stroke: #A80036; stroke-width: 1.5;" x1="152.31" x2="232.31" y1="175.9375" y2="175.9375"/><ellipse cx="162.31" cy="186.9375" fill="none" rx="3" ry="3" style="stroke: #038048; stroke-width: 1.0;"/><text fill="#000000" font-family="sans-serif" font-size="11" lengthAdjust="spacingAndGlyphs" textLength="33" x="171.31" y="190.1479">X : int</text><ellipse cx="162.31" cy="199.7422" fill="none" rx="3" ry="3" style="stroke: #038048; stroke-width: 1.0;"/><text fill="#000000" font-family="sans-serif" font-size="11" lengthAdjust="spacingAndGlyphs" textLength="33" x="171.31" y="202.9526">Y : int</text><line style="stroke: #A80036; stroke-width: 1.5;" x1="152.31" x2="232.31" y1="209.5469" y2="209.5469"/><!--MD5=[468f83ccc7231415bdd53089e4d352a7]
class Neighbour--><rect fill="#FEFECE" filter="url(#f1q3pre2hekox4)" height="53.9375" id="Neighbour" style="stroke: #A80036; stroke-width: 1.5;" width="97" x="81.81" y="8"/><ellipse cx="96.81" cy="26.9688" fill="#ADD1B2" rx="11" ry="11" style="stroke: #A80036; stroke-width: 1.0;"/><path d="M99.7788,32.6094 Q99.2006,32.9063 98.56,33.0469 Q97.9194,33.2031 97.2163,33.2031 Q94.7163,33.2031 93.3881,31.5625 Q92.0756,29.9063 92.0756,26.7813 Q92.0756,23.6563 93.3881,22 Q94.7163,20.3438 97.2163,20.3438 Q97.9194,20.3438 98.56,20.5 Q99.2163,20.6563 99.7788,20.9531 L99.7788,23.6719 Q99.1538,23.0938 98.56,22.8281 Q97.9663,22.5469 97.3413,22.5469 Q95.9975,22.5469 95.31,23.625 Q94.6225,24.6875 94.6225,26.7813 Q94.6225,28.875 95.31,29.9531 Q95.9975,31.0156 97.3413,31.0156 Q97.9663,31.0156 98.56,30.75 Q99.1538,30.4688 99.7788,29.8906 L99.7788,32.6094 Z "/><text fill="#000000" font-family="sans-serif" font-size="12" font-style="italic" lengthAdjust="spacingAndGlyphs" textLength="50" x="118.31" y="24.1387">«struct»</text><text fill="#000000" font-family="sans-serif" font-size="12" lengthAdjust="spacingAndGlyphs" textLength="65" x="110.81" y="38.1074">Neighbour</text><line style="stroke: #A80036; stroke-width: 1.5;" x1="82.81" x2="177.81" y1="45.9375" y2="45.9375"/><line style="stroke: #A80036; stroke-width: 1.5;" x1="82.81" x2="177.81" y1="53.9375" y2="53.9375"/><!--MD5=[8d2e6d923a9f5d46b3909f40d59757bf]
class MazeGenerator--><rect fill="#FEFECE" filter="url(#f1q3pre2hekox4)" height="86.4141" id="MazeGenerator" style="stroke: #A80036; stroke-width: 1.5;" width="368" x="268.31" y="135"/><ellipse cx="400.56" cy="151" fill="#ADD1B2" rx="11" ry="11" style="stroke: #A80036; stroke-width: 1.0;"/><path d="M403.5288,156.6406 Q402.9506,156.9375 402.31,157.0781 Q401.6694,157.2344 400.9663,157.2344 Q398.4663,157.2344 397.1381,155.5938 Q395.8256,153.9375 395.8256,150.8125 Q395.8256,147.6875 397.1381,146.0313 Q398.4663,144.375 400.9663,144.375 Q401.6694,144.375 402.31,144.5313 Q402.9663,144.6875 403.5288,144.9844 L403.5288,147.7031 Q402.9038,147.125 402.31,146.8594 Q401.7163,146.5781 401.0913,146.5781 Q399.7475,146.5781 399.06,147.6563 Q398.3725,148.7188 398.3725,150.8125 Q398.3725,152.9063 399.06,153.9844 Q399.7475,155.0469 401.0913,155.0469 Q401.7163,155.0469 402.31,154.7813 Q402.9038,154.5 403.5288,153.9219 L403.5288,156.6406 Z "/><text fill="#000000" font-family="sans-serif" font-size="12" lengthAdjust="spacingAndGlyphs" textLength="95" x="421.06" y="155.1543">MazeGenerator</text><line style="stroke: #A80036; stroke-width: 1.5;" x1="269.31" x2="635.31" y1="167" y2="167"/><line style="stroke: #A80036; stroke-width: 1.5;" x1="269.31" x2="635.31" y1="175" y2="175"/><text fill="#000000" font-family="sans-serif" font-size="11" lengthAdjust="spacingAndGlyphs" textLength="71" x="288.31" y="189.2104">Start() : void</text><text fill="#000000" font-family="sans-serif" font-size="11" lengthAdjust="spacingAndGlyphs" textLength="83" x="288.31" y="202.0151">Update() : void</text><ellipse cx="279.31" cy="211.6094" fill="#84BE84" rx="3" ry="3" style="stroke: #038048; stroke-width: 1.0;"/><text fill="#000000" font-family="sans-serif" font-size="11" lengthAdjust="spacingAndGlyphs" text-decoration="underline" textLength="342" x="288.31" y="214.8198">GenerateMaze(mazeWidth:int, mazeHeight:int) : WallsState[,]</text><!--MD5=[83b3cf3d23d77c6f1e1b5291a241bc2a]
class MonoBehaviour--><rect fill="#FEFECE" filter="url(#f1q3pre2hekox4)" height="48" id="MonoBehaviour" style="stroke: #A80036; stroke-width: 1.5;" width="128" x="388.31" y="11"/><ellipse cx="403.31" cy="27" fill="#ADD1B2" rx="11" ry="11" style="stroke: #A80036; stroke-width: 1.0;"/><path d="M406.2788,32.6406 Q405.7006,32.9375 405.06,33.0781 Q404.4194,33.2344 403.7163,33.2344 Q401.2163,33.2344 399.8881,31.5938 Q398.5756,29.9375 398.5756,26.8125 Q398.5756,23.6875 399.8881,22.0313 Q401.2163,20.375 403.7163,20.375 Q404.4194,20.375 405.06,20.5313 Q405.7163,20.6875 406.2788,20.9844 L406.2788,23.7031 Q405.6538,23.125 405.06,22.8594 Q404.4663,22.5781 403.8413,22.5781 Q402.4975,22.5781 401.81,23.6563 Q401.1225,24.7188 401.1225,26.8125 Q401.1225,28.9063 401.81,29.9844 Q402.4975,31.0469 403.8413,31.0469 Q404.4663,31.0469 405.06,30.7813 Q405.6538,30.5 406.2788,29.9219 L406.2788,32.6406 Z "/><text fill="#000000" font-family="sans-serif" font-size="12" lengthAdjust="spacingAndGlyphs" textLength="96" x="417.31" y="31.1543">MonoBehaviour</text><line style="stroke: #A80036; stroke-width: 1.5;" x1="389.31" x2="515.31" y1="43" y2="43"/><line style="stroke: #A80036; stroke-width: 1.5;" x1="389.31" x2="515.31" y1="51" y2="51"/><!--MD5=[68fa3342af9aad9c97cf3a1948103326]
link Neighbour to Position--><path d="M141.83,62.19 C150.59,82.13 162.85,110.01 173.1,133.31 " fill="none" id="Neighbour-&gt;Position" style="stroke: #A80036; stroke-width: 1.0;"/><polygon fill="#A80036" points="175.12,137.9,175.1628,128.0512,173.1092,133.3222,167.8382,131.2686,175.12,137.9" style="stroke: #A80036; stroke-width: 1.0;"/><text fill="#000000" font-family="sans-serif" font-size="13" lengthAdjust="spacingAndGlyphs" textLength="50" x="117.8686" y="126.836">Position</text><!--MD5=[2cef545a3491505e1d060f19104e0b6a]
link Neighbour to WallsState--><path d="M118.61,62.19 C111.72,77.61 102.71,97.78 94.16,116.91 " fill="none" id="Neighbour-&gt;WallsState" style="stroke: #A80036; stroke-width: 1.0;"/><polygon fill="#A80036" points="92,121.75,99.3067,115.146,94.028,117.1798,91.9943,111.9011,92,121.75" style="stroke: #A80036; stroke-width: 1.0;"/><text fill="#000000" font-family="sans-serif" font-size="13" lengthAdjust="spacingAndGlyphs" textLength="71" x="19.6825" y="111.054">SharedWall</text><!--MD5=[cb1a752a24d10891457e2ce0c7347b4a]
reverse link MonoBehaviour to MazeGenerator--><path d="M452.31,79.44 C452.31,97.08 452.31,117.37 452.31,134.87 " fill="none" id="MonoBehaviour&lt;-MazeGenerator" style="stroke: #A80036; stroke-width: 1.0;"/><polygon fill="none" points="445.31,79.28,452.31,59.28,459.31,79.28,445.31,79.28" style="stroke: #A80036; stroke-width: 1.0;"/><!--MD5=[72e9d71c4537218ac4d071f4cffb9d2a]
@startuml
enum WallsState {
    LEFT= 1,
    RIGHT= 2,
    TOP= 4,
    BOTTOM= 8,
    VISITED= 128,
}
class Position <<struct>> {
    + X : int
    + Y : int
}
class Neighbour <<struct>> {
}
class MazeGenerator {
    Start() : void
    Update() : void
    + {static} GenerateMaze(mazeWidth:int, mazeHeight:int) : WallsState[,]
}
Neighbour - -> "Position" Position
Neighbour - -> "SharedWall" WallsState
MonoBehaviour <|- - MazeGenerator
@enduml

PlantUML version 1.2020.02(Sun Mar 01 10:22:07 GMT 2020)
(GPL source distribution)
Java Runtime: OpenJDK Runtime Environment
JVM: OpenJDK 64-Bit Server VM
Java Version: 11.0.9+11-Ubuntu-0ubuntu1
Operating System: Linux
Default Encoding: ANSI_X3.4-1968
Language: en
Country: US
--></g></svg>