<?xml version="1.0" encoding="UTF-8" standalone="no"?><svg xmlns="http://www.w3.org/2000/svg" xmlns:xlink="http://www.w3.org/1999/xlink" contentScriptType="application/ecmascript" contentStyleType="text/css" height="334px" preserveAspectRatio="none" style="width:397px;height:334px;" version="1.1" viewBox="0 0 397 334" width="397px" zoomAndPan="magnify"><defs><filter height="300%" id="fnx6mnf5sciws" width="300%" x="-1" y="-1"><feGaussianBlur result="blurOut" stdDeviation="2.0"/><feColorMatrix in="blurOut" result="blurOut2" type="matrix" values="0 0 0 0 0 0 0 0 0 0 0 0 0 0 0 0 0 0 .4 0"/><feOffset dx="4.0" dy="4.0" in="blurOut2" result="blurOut3"/><feBlend in="SourceGraphic" in2="blurOut3" mode="normal"/></filter></defs><g><!--MD5=[8c5e31d6a7e6abcbe157ce057522c98a]
class NodeMover--><rect fill="#FEFECE" filter="url(#fnx6mnf5sciws)" height="99.2188" id="NodeMover" style="stroke: #A80036; stroke-width: 1.5;" width="134" x="67.49" y="116"/><ellipse cx="96.89" cy="132" fill="#ADD1B2" rx="11" ry="11" style="stroke: #A80036; stroke-width: 1.0;"/><path d="M99.8588,137.6406 Q99.2806,137.9375 98.64,138.0781 Q97.9994,138.2344 97.2963,138.2344 Q94.7963,138.2344 93.4681,136.5938 Q92.1556,134.9375 92.1556,131.8125 Q92.1556,128.6875 93.4681,127.0313 Q94.7963,125.375 97.2963,125.375 Q97.9994,125.375 98.64,125.5313 Q99.2963,125.6875 99.8588,125.9844 L99.8588,128.7031 Q99.2338,128.125 98.64,127.8594 Q98.0463,127.5781 97.4213,127.5781 Q96.0775,127.5781 95.39,128.6563 Q94.7025,129.7188 94.7025,131.8125 Q94.7025,133.9063 95.39,134.9844 Q96.0775,136.0469 97.4213,136.0469 Q98.0463,136.0469 98.64,135.7813 Q99.2338,135.5 99.8588,134.9219 L99.8588,137.6406 Z "/><text fill="#000000" font-family="sans-serif" font-size="12" lengthAdjust="spacingAndGlyphs" textLength="70" x="114.09" y="136.1543">NodeMover</text><line style="stroke: #A80036; stroke-width: 1.5;" x1="68.49" x2="200.49" y1="148" y2="148"/><line style="stroke: #A80036; stroke-width: 1.5;" x1="68.49" x2="200.49" y1="156" y2="156"/><text fill="#000000" font-family="sans-serif" font-size="11" lengthAdjust="spacingAndGlyphs" textLength="71" x="87.49" y="170.2104">Start() : void</text><text fill="#000000" font-family="sans-serif" font-size="11" lengthAdjust="spacingAndGlyphs" textLength="83" x="87.49" y="183.0151">Update() : void</text><ellipse cx="78.49" cy="192.6094" fill="#84BE84" rx="3" ry="3" style="stroke: #038048; stroke-width: 1.0;"/><text fill="#000000" font-family="sans-serif" font-size="11" lengthAdjust="spacingAndGlyphs" textLength="108" x="87.49" y="195.8198">DeleteNode() : void</text><ellipse cx="78.49" cy="205.4141" fill="#84BE84" rx="3" ry="3" style="stroke: #038048; stroke-width: 1.0;"/><text fill="#000000" font-family="sans-serif" font-size="11" lengthAdjust="spacingAndGlyphs" textLength="93" x="87.49" y="208.6245">AddNode() : void</text><!--MD5=[83b3cf3d23d77c6f1e1b5291a241bc2a]
class MonoBehaviour--><rect fill="#FEFECE" filter="url(#fnx6mnf5sciws)" height="48" id="MonoBehaviour" style="stroke: #A80036; stroke-width: 1.5;" width="128" x="70.49" y="8"/><ellipse cx="85.49" cy="24" fill="#ADD1B2" rx="11" ry="11" style="stroke: #A80036; stroke-width: 1.0;"/><path d="M88.4588,29.6406 Q87.8806,29.9375 87.24,30.0781 Q86.5994,30.2344 85.8963,30.2344 Q83.3963,30.2344 82.0681,28.5938 Q80.7556,26.9375 80.7556,23.8125 Q80.7556,20.6875 82.0681,19.0313 Q83.3963,17.375 85.8963,17.375 Q86.5994,17.375 87.24,17.5313 Q87.8963,17.6875 88.4588,17.9844 L88.4588,20.7031 Q87.8338,20.125 87.24,19.8594 Q86.6463,19.5781 86.0213,19.5781 Q84.6775,19.5781 83.99,20.6563 Q83.3025,21.7188 83.3025,23.8125 Q83.3025,25.9063 83.99,26.9844 Q84.6775,28.0469 86.0213,28.0469 Q86.6463,28.0469 87.24,27.7813 Q87.8338,27.5 88.4588,26.9219 L88.4588,29.6406 Z "/><text fill="#000000" font-family="sans-serif" font-size="12" lengthAdjust="spacingAndGlyphs" textLength="96" x="99.49" y="28.1543">MonoBehaviour</text><line style="stroke: #A80036; stroke-width: 1.5;" x1="71.49" x2="197.49" y1="40" y2="40"/><line style="stroke: #A80036; stroke-width: 1.5;" x1="71.49" x2="197.49" y1="48" y2="48"/><!--MD5=[064f7a74fee85463ec1a30143664ee17]
class GameObject--><rect fill="#FEFECE" filter="url(#fnx6mnf5sciws)" height="48" id="GameObject" style="stroke: #A80036; stroke-width: 1.5;" width="108" x="80.49" y="275"/><ellipse cx="95.49" cy="291" fill="#ADD1B2" rx="11" ry="11" style="stroke: #A80036; stroke-width: 1.0;"/><path d="M98.4588,296.6406 Q97.8806,296.9375 97.24,297.0781 Q96.5994,297.2344 95.8963,297.2344 Q93.3963,297.2344 92.0681,295.5938 Q90.7556,293.9375 90.7556,290.8125 Q90.7556,287.6875 92.0681,286.0313 Q93.3963,284.375 95.8963,284.375 Q96.5994,284.375 97.24,284.5313 Q97.8963,284.6875 98.4588,284.9844 L98.4588,287.7031 Q97.8338,287.125 97.24,286.8594 Q96.6463,286.5781 96.0213,286.5781 Q94.6775,286.5781 93.99,287.6563 Q93.3025,288.7188 93.3025,290.8125 Q93.3025,292.9063 93.99,293.9844 Q94.6775,295.0469 96.0213,295.0469 Q96.6463,295.0469 97.24,294.7813 Q97.8338,294.5 98.4588,293.9219 L98.4588,296.6406 Z "/><text fill="#000000" font-family="sans-serif" font-size="12" lengthAdjust="spacingAndGlyphs" textLength="76" x="109.49" y="295.1543">GameObject</text><line style="stroke: #A80036; stroke-width: 1.5;" x1="81.49" x2="187.49" y1="307" y2="307"/><line style="stroke: #A80036; stroke-width: 1.5;" x1="81.49" x2="187.49" y1="315" y2="315"/><!--MD5=[db462180693f7e61cf3217ec29875f93]
class LineRenderer--><rect fill="#FEFECE" filter="url(#fnx6mnf5sciws)" height="48" id="LineRenderer" style="stroke: #A80036; stroke-width: 1.5;" width="115" x="223.99" y="275"/><ellipse cx="238.99" cy="291" fill="#ADD1B2" rx="11" ry="11" style="stroke: #A80036; stroke-width: 1.0;"/><path d="M241.9588,296.6406 Q241.3806,296.9375 240.74,297.0781 Q240.0994,297.2344 239.3963,297.2344 Q236.8963,297.2344 235.5681,295.5938 Q234.2556,293.9375 234.2556,290.8125 Q234.2556,287.6875 235.5681,286.0313 Q236.8963,284.375 239.3963,284.375 Q240.0994,284.375 240.74,284.5313 Q241.3963,284.6875 241.9588,284.9844 L241.9588,287.7031 Q241.3338,287.125 240.74,286.8594 Q240.1463,286.5781 239.5213,286.5781 Q238.1775,286.5781 237.49,287.6563 Q236.8025,288.7188 236.8025,290.8125 Q236.8025,292.9063 237.49,293.9844 Q238.1775,295.0469 239.5213,295.0469 Q240.1463,295.0469 240.74,294.7813 Q241.3338,294.5 241.9588,293.9219 L241.9588,296.6406 Z "/><text fill="#000000" font-family="sans-serif" font-size="12" lengthAdjust="spacingAndGlyphs" textLength="83" x="252.99" y="295.1543">LineRenderer</text><line style="stroke: #A80036; stroke-width: 1.5;" x1="224.99" x2="337.99" y1="307" y2="307"/><line style="stroke: #A80036; stroke-width: 1.5;" x1="224.99" x2="337.99" y1="315" y2="315"/><!--MD5=[fe8b5ebc58e7d84297b5ef591ea36eb1]
reverse link MonoBehaviour to NodeMover--><path d="M134.49,76.51 C134.49,89.14 134.49,103.01 134.49,115.93 " fill="none" id="MonoBehaviour&lt;-NodeMover" style="stroke: #A80036; stroke-width: 1.0;"/><polygon fill="none" points="127.49,76.21,134.49,56.21,141.49,76.21,127.49,76.21" style="stroke: #A80036; stroke-width: 1.0;"/><!--MD5=[dcb2739d55235adee6b655bc43331817]
link NodeMover to GameObject--><path d="M96.69,215.09 C94.03,233.66 95.78,254.18 101.94,270.17 " fill="none" id="NodeMover-&gt;GameObject" style="stroke: #A80036; stroke-width: 1.0;"/><polygon fill="#A80036" points="104,274.98,104.1202,265.1319,102.0252,270.3865,96.7706,268.2915,104,274.98" style="stroke: #A80036; stroke-width: 1.0;"/><text fill="#000000" font-family="sans-serif" font-size="13" lengthAdjust="spacingAndGlyphs" textLength="83" x="2.5526" y="263.9869">deleteButton</text><!--MD5=[dcb2739d55235adee6b655bc43331817]
link NodeMover to GameObject--><path d="M122.13,215.09 C121.27,233.5 121.82,253.83 123.8,269.75 " fill="none" id="NodeMover-&gt;GameObject-1" style="stroke: #A80036; stroke-width: 1.0;"/><polygon fill="#A80036" points="124.52,274.98,127.2491,265.5168,123.8349,270.0272,119.3245,266.613,124.52,274.98" style="stroke: #A80036; stroke-width: 1.0;"/><text fill="#000000" font-family="sans-serif" font-size="13" lengthAdjust="spacingAndGlyphs" textLength="67" x="130.5496" y="263.9869">addButton</text><!--MD5=[dcb2739d55235adee6b655bc43331817]
link NodeMover to GameObject--><path d="M147.57,215.09 C148.48,233.5 147.9,253.83 145.81,269.75 " fill="none" id="NodeMover-&gt;GameObject-2" style="stroke: #A80036; stroke-width: 1.0;"/><polygon fill="#A80036" points="145.04,274.98,150.2827,266.6425,145.7531,270.0311,142.3645,265.5015,145.04,274.98" style="stroke: #A80036; stroke-width: 1.0;"/><text fill="#000000" font-family="sans-serif" font-size="13" lengthAdjust="spacingAndGlyphs" textLength="129" x="164.1892" y="263.9252">dialogueNodePrefab</text><!--MD5=[dcb2739d55235adee6b655bc43331817]
link NodeMover to GameObject--><path d="M173.01,215.09 C175.72,233.66 173.94,254.18 167.65,270.17 " fill="none" id="NodeMover-&gt;GameObject-3" style="stroke: #A80036; stroke-width: 1.0;"/><polygon fill="#A80036" points="165.56,274.98,172.8244,268.3295,167.5588,270.3969,165.4915,265.1314,165.56,274.98" style="stroke: #A80036; stroke-width: 1.0;"/><text fill="#000000" font-family="sans-serif" font-size="13" lengthAdjust="spacingAndGlyphs" textLength="106" x="187.9065" y="263.8962">replyNodePrefab</text><!--MD5=[c081f0654cd16bbee67ca0e431f22499]
link NodeMover to LineRenderer--><path d="M188.81,215.09 C210.1,234.14 233.69,255.25 251.75,271.4 " fill="none" id="NodeMover-&gt;LineRenderer" style="stroke: #A80036; stroke-width: 1.0;"/><polygon fill="#A80036" points="255.75,274.98,251.6999,266.0024,252.0201,271.6502,246.3723,271.9703,255.75,274.98" style="stroke: #A80036; stroke-width: 1.0;"/><text fill="#000000" font-family="sans-serif" font-size="13" lengthAdjust="spacingAndGlyphs" textLength="121" x="264.6573" y="263.9869">lineRendererPrefab</text><!--MD5=[9aebfe2b7af9ad2d44227f551df07ac0]
@startuml
class NodeMover {
    Start() : void
    Update() : void
    + DeleteNode() : void
    + AddNode() : void
}
MonoBehaviour <|- - NodeMover
NodeMover - -> "deleteButton" GameObject
NodeMover - -> "addButton" GameObject
NodeMover - -> "dialogueNodePrefab" GameObject
NodeMover - -> "replyNodePrefab" GameObject
NodeMover - -> "lineRendererPrefab" LineRenderer
@enduml

PlantUML version 1.2020.02(Sun Mar 01 10:22:07 GMT 2020)
(GPL source distribution)
Java Runtime: OpenJDK Runtime Environment
JVM: OpenJDK 64-Bit Server VM
Java Version: 11.0.9+11-Ubuntu-0ubuntu1
Operating System: Linux
Default Encoding: ANSI_X3.4-1968
Language: en
Country: US
--></g></svg>