<?xml version="1.0" encoding="UTF-8" standalone="no"?><svg xmlns="http://www.w3.org/2000/svg" xmlns:xlink="http://www.w3.org/1999/xlink" contentScriptType="application/ecmascript" contentStyleType="text/css" height="200px" preserveAspectRatio="none" style="width:146px;height:200px;" version="1.1" viewBox="0 0 146 200" width="146px" zoomAndPan="magnify"><defs><filter height="300%" id="f4791wedmrmc6" width="300%" x="-1" y="-1"><feGaussianBlur result="blurOut" stdDeviation="2.0"/><feColorMatrix in="blurOut" result="blurOut2" type="matrix" values="0 0 0 0 0 0 0 0 0 0 0 0 0 0 0 0 0 0 .4 0"/><feOffset dx="4.0" dy="4.0" in="blurOut2" result="blurOut3"/><feBlend in="SourceGraphic" in2="blurOut3" mode="normal"/></filter></defs><g><!--MD5=[1c849c3a04a93c56dc00a9212e7d3d06]
class ObjectGrabbing--><rect fill="#FEFECE" filter="url(#f4791wedmrmc6)" height="73.6094" id="ObjectGrabbing" style="stroke: #A80036; stroke-width: 1.5;" width="129" x="6" y="116"/><ellipse cx="21" cy="132" fill="#ADD1B2" rx="11" ry="11" style="stroke: #A80036; stroke-width: 1.0;"/><path d="M23.9688,137.6406 Q23.3906,137.9375 22.75,138.0781 Q22.1094,138.2344 21.4063,138.2344 Q18.9063,138.2344 17.5781,136.5938 Q16.2656,134.9375 16.2656,131.8125 Q16.2656,128.6875 17.5781,127.0313 Q18.9063,125.375 21.4063,125.375 Q22.1094,125.375 22.75,125.5313 Q23.4063,125.6875 23.9688,125.9844 L23.9688,128.7031 Q23.3438,128.125 22.75,127.8594 Q22.1563,127.5781 21.5313,127.5781 Q20.1875,127.5781 19.5,128.6563 Q18.8125,129.7188 18.8125,131.8125 Q18.8125,133.9063 19.5,134.9844 Q20.1875,136.0469 21.5313,136.0469 Q22.1563,136.0469 22.75,135.7813 Q23.3438,135.5 23.9688,134.9219 L23.9688,137.6406 Z "/><text fill="#000000" font-family="sans-serif" font-size="12" lengthAdjust="spacingAndGlyphs" textLength="97" x="35" y="136.1543">ObjectGrabbing</text><line style="stroke: #A80036; stroke-width: 1.5;" x1="7" x2="134" y1="148" y2="148"/><line style="stroke: #A80036; stroke-width: 1.5;" x1="7" x2="134" y1="156" y2="156"/><text fill="#000000" font-family="sans-serif" font-size="11" lengthAdjust="spacingAndGlyphs" textLength="71" x="12" y="170.2104">Start() : void</text><text fill="#000000" font-family="sans-serif" font-size="11" lengthAdjust="spacingAndGlyphs" textLength="83" x="12" y="183.0151">Update() : void</text><!--MD5=[83b3cf3d23d77c6f1e1b5291a241bc2a]
class MonoBehaviour--><rect fill="#FEFECE" filter="url(#f4791wedmrmc6)" height="48" id="MonoBehaviour" style="stroke: #A80036; stroke-width: 1.5;" width="128" x="6.5" y="8"/><ellipse cx="21.5" cy="24" fill="#ADD1B2" rx="11" ry="11" style="stroke: #A80036; stroke-width: 1.0;"/><path d="M24.4688,29.6406 Q23.8906,29.9375 23.25,30.0781 Q22.6094,30.2344 21.9063,30.2344 Q19.4063,30.2344 18.0781,28.5938 Q16.7656,26.9375 16.7656,23.8125 Q16.7656,20.6875 18.0781,19.0313 Q19.4063,17.375 21.9063,17.375 Q22.6094,17.375 23.25,17.5313 Q23.9063,17.6875 24.4688,17.9844 L24.4688,20.7031 Q23.8438,20.125 23.25,19.8594 Q22.6563,19.5781 22.0313,19.5781 Q20.6875,19.5781 20,20.6563 Q19.3125,21.7188 19.3125,23.8125 Q19.3125,25.9063 20,26.9844 Q20.6875,28.0469 22.0313,28.0469 Q22.6563,28.0469 23.25,27.7813 Q23.8438,27.5 24.4688,26.9219 L24.4688,29.6406 Z "/><text fill="#000000" font-family="sans-serif" font-size="12" lengthAdjust="spacingAndGlyphs" textLength="96" x="35.5" y="28.1543">MonoBehaviour</text><line style="stroke: #A80036; stroke-width: 1.5;" x1="7.5" x2="133.5" y1="40" y2="40"/><line style="stroke: #A80036; stroke-width: 1.5;" x1="7.5" x2="133.5" y1="48" y2="48"/><!--MD5=[5ffb45cf11fd3f52814f3f8e9b3a5772]
reverse link MonoBehaviour to ObjectGrabbing--><path d="M70.5,76.43 C70.5,89.33 70.5,103.32 70.5,115.71 " fill="none" id="MonoBehaviour&lt;-ObjectGrabbing" style="stroke: #A80036; stroke-width: 1.0;"/><polygon fill="none" points="63.5,76.23,70.5,56.23,77.5,76.23,63.5,76.23" style="stroke: #A80036; stroke-width: 1.0;"/><!--MD5=[4ec54f7a775fca3e8a3d2504fa829ccc]
@startuml
class ObjectGrabbing {
    Start() : void
    Update() : void
}
MonoBehaviour <|- - ObjectGrabbing
@enduml

PlantUML version 1.2020.02(Sun Mar 01 10:22:07 GMT 2020)
(GPL source distribution)
Java Runtime: OpenJDK Runtime Environment
JVM: OpenJDK 64-Bit Server VM
Java Version: 11.0.9+11-Ubuntu-0ubuntu1
Operating System: Linux
Default Encoding: ANSI_X3.4-1968
Language: en
Country: US
--></g></svg>