<?xml version="1.0" encoding="UTF-8" standalone="no"?><svg xmlns="http://www.w3.org/2000/svg" xmlns:xlink="http://www.w3.org/1999/xlink" contentScriptType="application/ecmascript" contentStyleType="text/css" height="373px" preserveAspectRatio="none" style="width:437px;height:373px;" version="1.1" viewBox="0 0 437 373" width="437px" zoomAndPan="magnify"><defs><filter height="300%" id="f1ka34y7l17ixr" width="300%" x="-1" y="-1"><feGaussianBlur result="blurOut" stdDeviation="2.0"/><feColorMatrix in="blurOut" result="blurOut2" type="matrix" values="0 0 0 0 0 0 0 0 0 0 0 0 0 0 0 0 0 0 .4 0"/><feOffset dx="4.0" dy="4.0" in="blurOut2" result="blurOut3"/><feBlend in="SourceGraphic" in2="blurOut3" mode="normal"/></filter></defs><g><!--MD5=[c94a7ce74e34a5469a880a6be2b83967]
class Dialogue--><rect fill="#FEFECE" filter="url(#f1ka34y7l17ixr)" height="92.3516" id="Dialogue" style="stroke: #A80036; stroke-width: 1.5;" width="125" x="6" y="139"/><ellipse cx="38.1" cy="157.9688" fill="#ADD1B2" rx="11" ry="11" style="stroke: #A80036; stroke-width: 1.0;"/><path d="M41.0688,163.6094 Q40.4906,163.9063 39.85,164.0469 Q39.2094,164.2031 38.5063,164.2031 Q36.0063,164.2031 34.6781,162.5625 Q33.3656,160.9063 33.3656,157.7813 Q33.3656,154.6563 34.6781,153 Q36.0063,151.3438 38.5063,151.3438 Q39.2094,151.3438 39.85,151.5 Q40.5063,151.6563 41.0688,151.9531 L41.0688,154.6719 Q40.4438,154.0938 39.85,153.8281 Q39.2563,153.5469 38.6313,153.5469 Q37.2875,153.5469 36.6,154.625 Q35.9125,155.6875 35.9125,157.7813 Q35.9125,159.875 36.6,160.9531 Q37.2875,162.0156 38.6313,162.0156 Q39.2563,162.0156 39.85,161.75 Q40.4438,161.4688 41.0688,160.8906 L41.0688,163.6094 Z "/><text fill="#000000" font-family="sans-serif" font-size="12" font-style="italic" lengthAdjust="spacingAndGlyphs" textLength="50" x="58.4" y="155.1387">«struct»</text><text fill="#000000" font-family="sans-serif" font-size="12" lengthAdjust="spacingAndGlyphs" textLength="55" x="55.9" y="169.1074">Dialogue</text><line style="stroke: #A80036; stroke-width: 1.5;" x1="7" x2="130" y1="176.9375" y2="176.9375"/><ellipse cx="17" cy="187.9375" fill="none" rx="3" ry="3" style="stroke: #038048; stroke-width: 1.0;"/><text fill="#000000" font-family="sans-serif" font-size="11" lengthAdjust="spacingAndGlyphs" textLength="99" x="26" y="191.1479">character : string</text><ellipse cx="17" cy="200.7422" fill="none" rx="3" ry="3" style="stroke: #038048; stroke-width: 1.0;"/><text fill="#000000" font-family="sans-serif" font-size="11" lengthAdjust="spacingAndGlyphs" textLength="58" x="26" y="203.9526">stage : int</text><ellipse cx="17" cy="213.5469" fill="none" rx="3" ry="3" style="stroke: #038048; stroke-width: 1.0;"/><text fill="#000000" font-family="sans-serif" font-size="11" lengthAdjust="spacingAndGlyphs" textLength="93" x="26" y="216.7573">dialogue : string</text><line style="stroke: #A80036; stroke-width: 1.5;" x1="7" x2="130" y1="223.3516" y2="223.3516"/><!--MD5=[628cc5a2753cca06eb1ffef55c386535]
class Parser--><rect fill="#FEFECE" filter="url(#f1ka34y7l17ixr)" height="137.6328" id="Parser" style="stroke: #A80036; stroke-width: 1.5;" width="260" x="166.5" y="116"/><ellipse cx="271.75" cy="132" fill="#ADD1B2" rx="11" ry="11" style="stroke: #A80036; stroke-width: 1.0;"/><path d="M274.7188,137.6406 Q274.1406,137.9375 273.5,138.0781 Q272.8594,138.2344 272.1563,138.2344 Q269.6563,138.2344 268.3281,136.5938 Q267.0156,134.9375 267.0156,131.8125 Q267.0156,128.6875 268.3281,127.0313 Q269.6563,125.375 272.1563,125.375 Q272.8594,125.375 273.5,125.5313 Q274.1563,125.6875 274.7188,125.9844 L274.7188,128.7031 Q274.0938,128.125 273.5,127.8594 Q272.9063,127.5781 272.2813,127.5781 Q270.9375,127.5781 270.25,128.6563 Q269.5625,129.7188 269.5625,131.8125 Q269.5625,133.9063 270.25,134.9844 Q270.9375,136.0469 272.2813,136.0469 Q272.9063,136.0469 273.5,135.7813 Q274.0938,135.5 274.7188,134.9219 L274.7188,137.6406 Z "/><text fill="#000000" font-family="sans-serif" font-size="12" lengthAdjust="spacingAndGlyphs" textLength="41" x="292.25" y="136.1543">Parser</text><line style="stroke: #A80036; stroke-width: 1.5;" x1="167.5" x2="425.5" y1="148" y2="148"/><ellipse cx="177.5" cy="159" fill="none" rx="3" ry="3" style="stroke: #038048; stroke-width: 1.0;"/><text fill="#000000" font-family="sans-serif" font-size="11" lengthAdjust="spacingAndGlyphs" textLength="97" x="186.5" y="162.2104">isChecking : bool</text><line style="stroke: #A80036; stroke-width: 1.5;" x1="167.5" x2="425.5" y1="168.8047" y2="168.8047"/><text fill="#000000" font-family="sans-serif" font-size="11" lengthAdjust="spacingAndGlyphs" textLength="71" x="186.5" y="183.0151">Start() : void</text><text fill="#000000" font-family="sans-serif" font-size="11" lengthAdjust="spacingAndGlyphs" textLength="83" x="186.5" y="195.8198">Update() : void</text><ellipse cx="177.5" cy="205.4141" fill="#84BE84" rx="3" ry="3" style="stroke: #038048; stroke-width: 1.0;"/><text fill="#000000" font-family="sans-serif" font-size="11" lengthAdjust="spacingAndGlyphs" textLength="234" x="186.5" y="208.6245">loadData(dataToLoad:List&lt;string&gt;) : void</text><ellipse cx="177.5" cy="218.2188" fill="#84BE84" rx="3" ry="3" style="stroke: #038048; stroke-width: 1.0;"/><text fill="#000000" font-family="sans-serif" font-size="11" lengthAdjust="spacingAndGlyphs" textLength="93" x="186.5" y="221.4292">splitData() : void</text><ellipse cx="177.5" cy="231.0234" fill="#84BE84" rx="3" ry="3" style="stroke: #038048; stroke-width: 1.0;"/><text fill="#000000" font-family="sans-serif" font-size="11" lengthAdjust="spacingAndGlyphs" textLength="138" x="186.5" y="234.2339">ReformatIntoXML() : void</text><ellipse cx="177.5" cy="243.8281" fill="#84BE84" rx="3" ry="3" style="stroke: #038048; stroke-width: 1.0;"/><text fill="#000000" font-family="sans-serif" font-size="11" lengthAdjust="spacingAndGlyphs" textLength="191" x="186.5" y="247.0386">returnDialogue() : List&lt;Dialogue&gt;</text><!--MD5=[e644022de7dea015dd09463c37421447]
class List`1--><rect fill="#FEFECE" filter="url(#f1ka34y7l17ixr)" height="48" id="List`1" style="stroke: #A80036; stroke-width: 1.5;" width="78" x="143.5" y="314"/><ellipse cx="158.5" cy="330" fill="#ADD1B2" rx="11" ry="11" style="stroke: #A80036; stroke-width: 1.0;"/><path d="M161.4688,335.6406 Q160.8906,335.9375 160.25,336.0781 Q159.6094,336.2344 158.9063,336.2344 Q156.4063,336.2344 155.0781,334.5938 Q153.7656,332.9375 153.7656,329.8125 Q153.7656,326.6875 155.0781,325.0313 Q156.4063,323.375 158.9063,323.375 Q159.6094,323.375 160.25,323.5313 Q160.9063,323.6875 161.4688,323.9844 L161.4688,326.7031 Q160.8438,326.125 160.25,325.8594 Q159.6563,325.5781 159.0313,325.5781 Q157.6875,325.5781 157,326.6563 Q156.3125,327.7188 156.3125,329.8125 Q156.3125,331.9063 157,332.9844 Q157.6875,334.0469 159.0313,334.0469 Q159.6563,334.0469 160.25,333.7813 Q160.8438,333.5 161.4688,332.9219 L161.4688,335.6406 Z "/><text fill="#000000" font-family="sans-serif" font-size="12" lengthAdjust="spacingAndGlyphs" textLength="35" x="172.5" y="334.1543">List`1</text><rect fill="#FFFFFF" height="15.9688" style="stroke: #000000; stroke-width: 1.0; stroke-dasharray: 2.0,2.0;" width="9" x="215.5" y="311"/><text fill="#000000" font-family="sans-serif" font-size="12" font-style="italic" lengthAdjust="spacingAndGlyphs" textLength="7" x="216.5" y="323.1387">T</text><line style="stroke: #A80036; stroke-width: 1.5;" x1="144.5" x2="220.5" y1="346" y2="346"/><line style="stroke: #A80036; stroke-width: 1.5;" x1="144.5" x2="220.5" y1="354" y2="354"/><!--MD5=[83b3cf3d23d77c6f1e1b5291a241bc2a]
class MonoBehaviour--><rect fill="#FEFECE" filter="url(#f1ka34y7l17ixr)" height="48" id="MonoBehaviour" style="stroke: #A80036; stroke-width: 1.5;" width="128" x="232.5" y="8"/><ellipse cx="247.5" cy="24" fill="#ADD1B2" rx="11" ry="11" style="stroke: #A80036; stroke-width: 1.0;"/><path d="M250.4688,29.6406 Q249.8906,29.9375 249.25,30.0781 Q248.6094,30.2344 247.9063,30.2344 Q245.4063,30.2344 244.0781,28.5938 Q242.7656,26.9375 242.7656,23.8125 Q242.7656,20.6875 244.0781,19.0313 Q245.4063,17.375 247.9063,17.375 Q248.6094,17.375 249.25,17.5313 Q249.9063,17.6875 250.4688,17.9844 L250.4688,20.7031 Q249.8438,20.125 249.25,19.8594 Q248.6563,19.5781 248.0313,19.5781 Q246.6875,19.5781 246,20.6563 Q245.3125,21.7188 245.3125,23.8125 Q245.3125,25.9063 246,26.9844 Q246.6875,28.0469 248.0313,28.0469 Q248.6563,28.0469 249.25,27.7813 Q249.8438,27.5 250.4688,26.9219 L250.4688,29.6406 Z "/><text fill="#000000" font-family="sans-serif" font-size="12" lengthAdjust="spacingAndGlyphs" textLength="96" x="261.5" y="28.1543">MonoBehaviour</text><line style="stroke: #A80036; stroke-width: 1.5;" x1="233.5" x2="359.5" y1="40" y2="40"/><line style="stroke: #A80036; stroke-width: 1.5;" x1="233.5" x2="359.5" y1="48" y2="48"/><!--MD5=[d76c870cd19d326c29d44bfbb2e86010]
link Dialogue to List`1--><path d="M90.91,231.3 C108.47,256.82 132.47,287.85 151.77,309.66 " fill="none" id="Dialogue-&gt;List`1" style="stroke: #A80036; stroke-width: 1.0;"/><polygon fill="#A80036" points="155.32,313.62,152.2904,304.2487,151.9823,309.8972,146.3338,309.5891,155.32,313.62" style="stroke: #A80036; stroke-width: 1.0;"/><text fill="#000000" font-family="sans-serif" font-size="13" lengthAdjust="spacingAndGlyphs" textLength="100" x="36.5074" y="302.9323">replies&lt;string&gt;</text><!--MD5=[d76c870cd19d326c29d44bfbb2e86010]
link Dialogue to List`1--><path d="M115.19,231.3 C136.08,256.61 158.7,287.33 172.2,309.12 " fill="none" id="Dialogue-&gt;List`1-1" style="stroke: #A80036; stroke-width: 1.0;"/><polygon fill="#A80036" points="174.94,313.62,173.6773,303.8524,172.3403,309.349,166.8437,308.012,174.94,313.62" style="stroke: #A80036; stroke-width: 1.0;"/><text fill="#000000" font-family="sans-serif" font-size="13" lengthAdjust="spacingAndGlyphs" textLength="104" x="185.7722" y="302.9323">nextStage&lt;int&gt;</text><!--MD5=[92636572fb0127017e020528b83d4137]
reverse link MonoBehaviour to Parser--><path d="M296.5,76.56 C296.5,88.87 296.5,102.57 296.5,115.96 " fill="none" id="MonoBehaviour&lt;-Parser" style="stroke: #A80036; stroke-width: 1.0;"/><polygon fill="none" points="289.5,76.26,296.5,56.26,303.5,76.26,289.5,76.26" style="stroke: #A80036; stroke-width: 1.0;"/><!--MD5=[665a739711e4220844be82655c173c3b]
link Parser to List`1--><path d="M232.14,254.43 C217.23,273.81 202.99,293.81 193.3,309.27 " fill="none" id="Parser-&gt;List`1" style="stroke: #A80036; stroke-width: 1.0;"/><polygon fill="#A80036" points="190.44,313.92,198.5583,308.3439,193.0565,309.6593,191.7411,304.1575,190.44,313.92" style="stroke: #A80036; stroke-width: 1.0;"/><text fill="#000000" font-family="sans-serif" font-size="13" lengthAdjust="spacingAndGlyphs" textLength="154" x="229.7248" y="318.3494">dialogueList&lt;Dialogue&gt;</text><!--MD5=[665a739711e4220844be82655c173c3b]
link Parser to List`1--><path d="M258.28,254.43 C243.7,274.14 227.39,294.5 213.45,310.07 " fill="none" id="Parser-&gt;List`1-1" style="stroke: #A80036; stroke-width: 1.0;"/><polygon fill="#A80036" points="209.96,313.92,218.9624,309.9253,213.3127,310.2106,213.0274,304.561,209.96,313.92" style="stroke: #A80036; stroke-width: 1.0;"/><text fill="#000000" font-family="sans-serif" font-size="13" lengthAdjust="spacingAndGlyphs" textLength="160" x="229.7729" y="305.1766">reformattingList&lt;string&gt;</text><!--MD5=[5dc7116806a7681ce2234f649927f27f]
@startuml
class Dialogue <<struct>> {
    + character : string
    + stage : int
    + dialogue : string
}
class Parser {
    + isChecking : bool
    Start() : void
    Update() : void
    + loadData(dataToLoad:List<string>) : void
    + splitData() : void
    + ReformatIntoXML() : void
    + returnDialogue() : List<Dialogue>
}
class "List`1"<T> {
}
Dialogue - -> "replies<string>" "List`1"
Dialogue - -> "nextStage<int>" "List`1"
MonoBehaviour <|- - Parser
Parser - -> "dialogueList<Dialogue>" "List`1"
Parser - -> "reformattingList<string>" "List`1"
@enduml

PlantUML version 1.2020.02(Sun Mar 01 10:22:07 GMT 2020)
(GPL source distribution)
Java Runtime: OpenJDK Runtime Environment
JVM: OpenJDK 64-Bit Server VM
Java Version: 11.0.9+11-Ubuntu-0ubuntu1
Operating System: Linux
Default Encoding: ANSI_X3.4-1968
Language: en
Country: US
--></g></svg>