<?xml version="1.0" encoding="UTF-8" standalone="no"?><svg xmlns="http://www.w3.org/2000/svg" xmlns:xlink="http://www.w3.org/1999/xlink" contentScriptType="application/ecmascript" contentStyleType="text/css" height="321px" preserveAspectRatio="none" style="width:592px;height:321px;" version="1.1" viewBox="0 0 592 321" width="592px" zoomAndPan="magnify"><defs><filter height="300%" id="f1qudro0vuatth" width="300%" x="-1" y="-1"><feGaussianBlur result="blurOut" stdDeviation="2.0"/><feColorMatrix in="blurOut" result="blurOut2" type="matrix" values="0 0 0 0 0 0 0 0 0 0 0 0 0 0 0 0 0 0 .4 0"/><feOffset dx="4.0" dy="4.0" in="blurOut2" result="blurOut3"/><feBlend in="SourceGraphic" in2="blurOut3" mode="normal"/></filter></defs><g><!--MD5=[91b737a0aa6758b352ed748d11ff2125]
class PlayerController--><rect fill="#FEFECE" filter="url(#f1qudro0vuatth)" height="86.4141" id="PlayerController" style="stroke: #A80036; stroke-width: 1.5;" width="153" x="206.5" y="116"/><ellipse cx="231.4" cy="132" fill="#ADD1B2" rx="11" ry="11" style="stroke: #A80036; stroke-width: 1.0;"/><path d="M234.3688,137.6406 Q233.7906,137.9375 233.15,138.0781 Q232.5094,138.2344 231.8063,138.2344 Q229.3063,138.2344 227.9781,136.5938 Q226.6656,134.9375 226.6656,131.8125 Q226.6656,128.6875 227.9781,127.0313 Q229.3063,125.375 231.8063,125.375 Q232.5094,125.375 233.15,125.5313 Q233.8063,125.6875 234.3688,125.9844 L234.3688,128.7031 Q233.7438,128.125 233.15,127.8594 Q232.5563,127.5781 231.9313,127.5781 Q230.5875,127.5781 229.9,128.6563 Q229.2125,129.7188 229.2125,131.8125 Q229.2125,133.9063 229.9,134.9844 Q230.5875,136.0469 231.9313,136.0469 Q232.5563,136.0469 233.15,135.7813 Q233.7438,135.5 234.3688,134.9219 L234.3688,137.6406 Z "/><text fill="#000000" font-family="sans-serif" font-size="12" lengthAdjust="spacingAndGlyphs" textLength="99" x="247.6" y="136.1543">PlayerController</text><line style="stroke: #A80036; stroke-width: 1.5;" x1="207.5" x2="358.5" y1="148" y2="148"/><ellipse cx="217.5" cy="159" fill="none" rx="3" ry="3" style="stroke: #038048; stroke-width: 1.0;"/><text fill="#000000" font-family="sans-serif" font-size="11" lengthAdjust="spacingAndGlyphs" textLength="127" x="226.5" y="162.2104">colliding : bool = false</text><line style="stroke: #A80036; stroke-width: 1.5;" x1="207.5" x2="358.5" y1="168.8047" y2="168.8047"/><text fill="#000000" font-family="sans-serif" font-size="11" lengthAdjust="spacingAndGlyphs" textLength="71" x="212.5" y="183.0151">Start() : void</text><text fill="#000000" font-family="sans-serif" font-size="11" lengthAdjust="spacingAndGlyphs" textLength="83" x="212.5" y="195.8198">Update() : void</text><!--MD5=[83b3cf3d23d77c6f1e1b5291a241bc2a]
class MonoBehaviour--><rect fill="#FEFECE" filter="url(#f1qudro0vuatth)" height="48" id="MonoBehaviour" style="stroke: #A80036; stroke-width: 1.5;" width="128" x="219" y="8"/><ellipse cx="234" cy="24" fill="#ADD1B2" rx="11" ry="11" style="stroke: #A80036; stroke-width: 1.0;"/><path d="M236.9688,29.6406 Q236.3906,29.9375 235.75,30.0781 Q235.1094,30.2344 234.4063,30.2344 Q231.9063,30.2344 230.5781,28.5938 Q229.2656,26.9375 229.2656,23.8125 Q229.2656,20.6875 230.5781,19.0313 Q231.9063,17.375 234.4063,17.375 Q235.1094,17.375 235.75,17.5313 Q236.4063,17.6875 236.9688,17.9844 L236.9688,20.7031 Q236.3438,20.125 235.75,19.8594 Q235.1563,19.5781 234.5313,19.5781 Q233.1875,19.5781 232.5,20.6563 Q231.8125,21.7188 231.8125,23.8125 Q231.8125,25.9063 232.5,26.9844 Q233.1875,28.0469 234.5313,28.0469 Q235.1563,28.0469 235.75,27.7813 Q236.3438,27.5 236.9688,26.9219 L236.9688,29.6406 Z "/><text fill="#000000" font-family="sans-serif" font-size="12" lengthAdjust="spacingAndGlyphs" textLength="96" x="248" y="28.1543">MonoBehaviour</text><line style="stroke: #A80036; stroke-width: 1.5;" x1="220" x2="346" y1="40" y2="40"/><line style="stroke: #A80036; stroke-width: 1.5;" x1="220" x2="346" y1="48" y2="48"/><!--MD5=[eca50e22099d7521313d3de69062419a]
class SteamVR_Action_Vector2--><rect fill="#FEFECE" filter="url(#f1qudro0vuatth)" height="48" id="SteamVR_Action_Vector2" style="stroke: #A80036; stroke-width: 1.5;" width="188" x="6" y="262"/><ellipse cx="21" cy="278" fill="#ADD1B2" rx="11" ry="11" style="stroke: #A80036; stroke-width: 1.0;"/><path d="M23.9688,283.6406 Q23.3906,283.9375 22.75,284.0781 Q22.1094,284.2344 21.4063,284.2344 Q18.9063,284.2344 17.5781,282.5938 Q16.2656,280.9375 16.2656,277.8125 Q16.2656,274.6875 17.5781,273.0313 Q18.9063,271.375 21.4063,271.375 Q22.1094,271.375 22.75,271.5313 Q23.4063,271.6875 23.9688,271.9844 L23.9688,274.7031 Q23.3438,274.125 22.75,273.8594 Q22.1563,273.5781 21.5313,273.5781 Q20.1875,273.5781 19.5,274.6563 Q18.8125,275.7188 18.8125,277.8125 Q18.8125,279.9063 19.5,280.9844 Q20.1875,282.0469 21.5313,282.0469 Q22.1563,282.0469 22.75,281.7813 Q23.3438,281.5 23.9688,280.9219 L23.9688,283.6406 Z "/><text fill="#000000" font-family="sans-serif" font-size="12" lengthAdjust="spacingAndGlyphs" textLength="156" x="35" y="282.1543">SteamVR_Action_Vector2</text><line style="stroke: #A80036; stroke-width: 1.5;" x1="7" x2="193" y1="294" y2="294"/><line style="stroke: #A80036; stroke-width: 1.5;" x1="7" x2="193" y1="302" y2="302"/><!--MD5=[064f7a74fee85463ec1a30143664ee17]
class GameObject--><rect fill="#FEFECE" filter="url(#f1qudro0vuatth)" height="48" id="GameObject" style="stroke: #A80036; stroke-width: 1.5;" width="108" x="229" y="262"/><ellipse cx="244" cy="278" fill="#ADD1B2" rx="11" ry="11" style="stroke: #A80036; stroke-width: 1.0;"/><path d="M246.9688,283.6406 Q246.3906,283.9375 245.75,284.0781 Q245.1094,284.2344 244.4063,284.2344 Q241.9063,284.2344 240.5781,282.5938 Q239.2656,280.9375 239.2656,277.8125 Q239.2656,274.6875 240.5781,273.0313 Q241.9063,271.375 244.4063,271.375 Q245.1094,271.375 245.75,271.5313 Q246.4063,271.6875 246.9688,271.9844 L246.9688,274.7031 Q246.3438,274.125 245.75,273.8594 Q245.1563,273.5781 244.5313,273.5781 Q243.1875,273.5781 242.5,274.6563 Q241.8125,275.7188 241.8125,277.8125 Q241.8125,279.9063 242.5,280.9844 Q243.1875,282.0469 244.5313,282.0469 Q245.1563,282.0469 245.75,281.7813 Q246.3438,281.5 246.9688,280.9219 L246.9688,283.6406 Z "/><text fill="#000000" font-family="sans-serif" font-size="12" lengthAdjust="spacingAndGlyphs" textLength="76" x="258" y="282.1543">GameObject</text><line style="stroke: #A80036; stroke-width: 1.5;" x1="230" x2="336" y1="294" y2="294"/><line style="stroke: #A80036; stroke-width: 1.5;" x1="230" x2="336" y1="302" y2="302"/><!--MD5=[904907aec70c3817983bd27a243dd750]
class TextMeshProUGUI--><rect fill="#FEFECE" filter="url(#f1qudro0vuatth)" height="48" id="TextMeshProUGUI" style="stroke: #A80036; stroke-width: 1.5;" width="142" x="372" y="262"/><ellipse cx="387" cy="278" fill="#ADD1B2" rx="11" ry="11" style="stroke: #A80036; stroke-width: 1.0;"/><path d="M389.9688,283.6406 Q389.3906,283.9375 388.75,284.0781 Q388.1094,284.2344 387.4063,284.2344 Q384.9063,284.2344 383.5781,282.5938 Q382.2656,280.9375 382.2656,277.8125 Q382.2656,274.6875 383.5781,273.0313 Q384.9063,271.375 387.4063,271.375 Q388.1094,271.375 388.75,271.5313 Q389.4063,271.6875 389.9688,271.9844 L389.9688,274.7031 Q389.3438,274.125 388.75,273.8594 Q388.1563,273.5781 387.5313,273.5781 Q386.1875,273.5781 385.5,274.6563 Q384.8125,275.7188 384.8125,277.8125 Q384.8125,279.9063 385.5,280.9844 Q386.1875,282.0469 387.5313,282.0469 Q388.1563,282.0469 388.75,281.7813 Q389.3438,281.5 389.9688,280.9219 L389.9688,283.6406 Z "/><text fill="#000000" font-family="sans-serif" font-size="12" lengthAdjust="spacingAndGlyphs" textLength="110" x="401" y="282.1543">TextMeshProUGUI</text><line style="stroke: #A80036; stroke-width: 1.5;" x1="373" x2="513" y1="294" y2="294"/><line style="stroke: #A80036; stroke-width: 1.5;" x1="373" x2="513" y1="302" y2="302"/><!--MD5=[9df70cf33be424c1b8543b3f439cae89]
class String--><rect fill="#FEFECE" filter="url(#f1qudro0vuatth)" height="48" id="String" style="stroke: #A80036; stroke-width: 1.5;" width="69" x="394.5" y="135"/><ellipse cx="409.5" cy="151" fill="#ADD1B2" rx="11" ry="11" style="stroke: #A80036; stroke-width: 1.0;"/><path d="M412.4688,156.6406 Q411.8906,156.9375 411.25,157.0781 Q410.6094,157.2344 409.9063,157.2344 Q407.4063,157.2344 406.0781,155.5938 Q404.7656,153.9375 404.7656,150.8125 Q404.7656,147.6875 406.0781,146.0313 Q407.4063,144.375 409.9063,144.375 Q410.6094,144.375 411.25,144.5313 Q411.9063,144.6875 412.4688,144.9844 L412.4688,147.7031 Q411.8438,147.125 411.25,146.8594 Q410.6563,146.5781 410.0313,146.5781 Q408.6875,146.5781 408,147.6563 Q407.3125,148.7188 407.3125,150.8125 Q407.3125,152.9063 408,153.9844 Q408.6875,155.0469 410.0313,155.0469 Q410.6563,155.0469 411.25,154.7813 Q411.8438,154.5 412.4688,153.9219 L412.4688,156.6406 Z "/><text fill="#000000" font-family="sans-serif" font-size="12" lengthAdjust="spacingAndGlyphs" textLength="37" x="423.5" y="155.1543">String</text><line style="stroke: #A80036; stroke-width: 1.5;" x1="395.5" x2="462.5" y1="167" y2="167"/><line style="stroke: #A80036; stroke-width: 1.5;" x1="395.5" x2="462.5" y1="175" y2="175"/><!--MD5=[2165a0a840a65325cb57faa5b6f31023]
reverse link MonoBehaviour to PlayerController--><path d="M283,76.27 C283,89.12 283,103.17 283,115.94 " fill="none" id="MonoBehaviour&lt;-PlayerController" style="stroke: #A80036; stroke-width: 1.0;"/><polygon fill="none" points="276,76.22,283,56.22,290,76.22,276,76.22" style="stroke: #A80036; stroke-width: 1.0;"/><!--MD5=[2aa66e59a6b87954357dde6ef7bd4958]
link PlayerController to SteamVR_Action_Vector2--><path d="M221.3,202.15 C193.75,220.96 162.16,242.54 138.12,258.96 " fill="none" id="PlayerController-&gt;SteamVR_Action_Vector2" style="stroke: #A80036; stroke-width: 1.0;"/><polygon fill="#A80036" points="133.73,261.96,143.4196,260.1959,137.8614,259.1438,138.9136,253.5856,133.73,261.96" style="stroke: #A80036; stroke-width: 1.0;"/><text fill="#000000" font-family="sans-serif" font-size="13" lengthAdjust="spacingAndGlyphs" textLength="32" x="106.2733" y="250.9618">input</text><!--MD5=[1e6b4f8406a750b843d9c2c6ca1ba76d]
link PlayerController to GameObject--><path d="M283,202.32 C283,220.14 283,240.41 283,256.42 " fill="none" id="PlayerController-&gt;GameObject" style="stroke: #A80036; stroke-width: 1.0;"/><polygon fill="#A80036" points="283,261.67,287,252.67,283,256.67,279,252.67,283,261.67" style="stroke: #A80036; stroke-width: 1.0;"/><text fill="#000000" font-family="sans-serif" font-size="13" lengthAdjust="spacingAndGlyphs" textLength="101" x="199.8816" y="250.9543">dialogueCanvas</text><!--MD5=[b2a8514c85ac2c59d551624af06d18ae]
link PlayerController to TextMeshProUGUI--><path d="M337.17,202.32 C360.97,220.91 388.18,242.17 409.05,258.48 " fill="none" id="PlayerController-&gt;TextMeshProUGUI" style="stroke: #A80036; stroke-width: 1.0;"/><polygon fill="#A80036" points="413.14,261.67,408.5177,252.9732,409.2025,258.5885,403.5872,259.2732,413.14,261.67" style="stroke: #A80036; stroke-width: 1.0;"/><text fill="#000000" font-family="sans-serif" font-size="13" lengthAdjust="spacingAndGlyphs" textLength="86" x="343.3116" y="250.9284">textToDisplay</text><!--MD5=[20095eae5317bc9d7884c69d4a82373f]
link PlayerController to String--><path d="M371.71,159 C371.71,159 378.54,159 381.32,159 " fill="none" id="PlayerController-String" style="stroke: #A80036; stroke-width: 1.0;"/><polygon fill="#A80036" points="394.35,159,385.35,155,389.35,159,385.35,163,394.35,159" style="stroke: #A80036; stroke-width: 1.0;"/><line style="stroke: #A80036; stroke-width: 1.0;" x1="389.35" x2="381.35" y1="159" y2="159"/><polygon fill="#FFFFFF" points="359.71,159,365.71,163,371.71,159,365.71,155,359.71,159" style="stroke: #A80036; stroke-width: 1.0;"/><text fill="#000000" font-family="sans-serif" font-size="13" lengthAdjust="spacingAndGlyphs" textLength="109" x="471.765" y="127.0759">currentCharacter</text><!--MD5=[3532ce842d8a22160bd8d3c4653898b3]
@startuml
class PlayerController {
    + colliding : bool = false
    Start() : void
    Update() : void
}
MonoBehaviour <|- - PlayerController
PlayerController - -> "input" SteamVR_Action_Vector2
PlayerController - -> "dialogueCanvas" GameObject
PlayerController - -> "textToDisplay" TextMeshProUGUI
PlayerController o-> "currentCharacter" String
@enduml

PlantUML version 1.2020.02(Sun Mar 01 10:22:07 GMT 2020)
(GPL source distribution)
Java Runtime: OpenJDK Runtime Environment
JVM: OpenJDK 64-Bit Server VM
Java Version: 11.0.9+11-Ubuntu-0ubuntu1
Operating System: Linux
Default Encoding: ANSI_X3.4-1968
Language: en
Country: US
--></g></svg>