<?xml version="1.0" encoding="UTF-8" standalone="no"?><svg xmlns="http://www.w3.org/2000/svg" xmlns:xlink="http://www.w3.org/1999/xlink" contentScriptType="application/ecmascript" contentStyleType="text/css" height="187px" preserveAspectRatio="none" style="width:264px;height:187px;" version="1.1" viewBox="0 0 264 187" width="264px" zoomAndPan="magnify"><defs><filter height="300%" id="f80dgc9poufgv" width="300%" x="-1" y="-1"><feGaussianBlur result="blurOut" stdDeviation="2.0"/><feColorMatrix in="blurOut" result="blurOut2" type="matrix" values="0 0 0 0 0 0 0 0 0 0 0 0 0 0 0 0 0 0 .4 0"/><feOffset dx="4.0" dy="4.0" in="blurOut2" result="blurOut3"/><feBlend in="SourceGraphic" in2="blurOut3" mode="normal"/></filter></defs><g><!--MD5=[4cd05f47d3524835081ac1d631be946e]
class SaveEditHandler--><rect fill="#FEFECE" filter="url(#f80dgc9poufgv)" height="60.8047" id="SaveEditHandler" style="stroke: #A80036; stroke-width: 1.5;" width="247" x="6" y="116"/><ellipse cx="73.75" cy="132" fill="#ADD1B2" rx="11" ry="11" style="stroke: #A80036; stroke-width: 1.0;"/><path d="M76.7188,137.6406 Q76.1406,137.9375 75.5,138.0781 Q74.8594,138.2344 74.1563,138.2344 Q71.6563,138.2344 70.3281,136.5938 Q69.0156,134.9375 69.0156,131.8125 Q69.0156,128.6875 70.3281,127.0313 Q71.6563,125.375 74.1563,125.375 Q74.8594,125.375 75.5,125.5313 Q76.1563,125.6875 76.7188,125.9844 L76.7188,128.7031 Q76.0938,128.125 75.5,127.8594 Q74.9063,127.5781 74.2813,127.5781 Q72.9375,127.5781 72.25,128.6563 Q71.5625,129.7188 71.5625,131.8125 Q71.5625,133.9063 72.25,134.9844 Q72.9375,136.0469 74.2813,136.0469 Q74.9063,136.0469 75.5,135.7813 Q76.0938,135.5 76.7188,134.9219 L76.7188,137.6406 Z "/><text fill="#000000" font-family="sans-serif" font-size="12" lengthAdjust="spacingAndGlyphs" textLength="103" x="94.25" y="136.1543">SaveEditHandler</text><line style="stroke: #A80036; stroke-width: 1.5;" x1="7" x2="252" y1="148" y2="148"/><line style="stroke: #A80036; stroke-width: 1.5;" x1="7" x2="252" y1="156" y2="156"/><ellipse cx="17" cy="167" fill="#84BE84" rx="3" ry="3" style="stroke: #038048; stroke-width: 1.0;"/><text fill="#000000" font-family="sans-serif" font-size="11" lengthAdjust="spacingAndGlyphs" textLength="221" x="26" y="170.2104">SaveAndDestroyDialogueNodes() : void</text><!--MD5=[83b3cf3d23d77c6f1e1b5291a241bc2a]
class MonoBehaviour--><rect fill="#FEFECE" filter="url(#f80dgc9poufgv)" height="48" id="MonoBehaviour" style="stroke: #A80036; stroke-width: 1.5;" width="128" x="65.5" y="8"/><ellipse cx="80.5" cy="24" fill="#ADD1B2" rx="11" ry="11" style="stroke: #A80036; stroke-width: 1.0;"/><path d="M83.4688,29.6406 Q82.8906,29.9375 82.25,30.0781 Q81.6094,30.2344 80.9063,30.2344 Q78.4063,30.2344 77.0781,28.5938 Q75.7656,26.9375 75.7656,23.8125 Q75.7656,20.6875 77.0781,19.0313 Q78.4063,17.375 80.9063,17.375 Q81.6094,17.375 82.25,17.5313 Q82.9063,17.6875 83.4688,17.9844 L83.4688,20.7031 Q82.8438,20.125 82.25,19.8594 Q81.6563,19.5781 81.0313,19.5781 Q79.6875,19.5781 79,20.6563 Q78.3125,21.7188 78.3125,23.8125 Q78.3125,25.9063 79,26.9844 Q79.6875,28.0469 81.0313,28.0469 Q81.6563,28.0469 82.25,27.7813 Q82.8438,27.5 83.4688,26.9219 L83.4688,29.6406 Z "/><text fill="#000000" font-family="sans-serif" font-size="12" lengthAdjust="spacingAndGlyphs" textLength="96" x="94.5" y="28.1543">MonoBehaviour</text><line style="stroke: #A80036; stroke-width: 1.5;" x1="66.5" x2="192.5" y1="40" y2="40"/><line style="stroke: #A80036; stroke-width: 1.5;" x1="66.5" x2="192.5" y1="48" y2="48"/><!--MD5=[e4344f7c16481cfc365c1c15b029b273]
reverse link MonoBehaviour to SaveEditHandler--><path d="M129.5,76.11 C129.5,89.31 129.5,103.54 129.5,115.65 " fill="none" id="MonoBehaviour&lt;-SaveEditHandler" style="stroke: #A80036; stroke-width: 1.0;"/><polygon fill="none" points="122.5,76.04,129.5,56.04,136.5,76.04,122.5,76.04" style="stroke: #A80036; stroke-width: 1.0;"/><!--MD5=[c65170916cbe9a993f63fd0150fa0b9a]
@startuml
class SaveEditHandler {
    + SaveAndDestroyDialogueNodes() : void
}
MonoBehaviour <|- - SaveEditHandler
@enduml

PlantUML version 1.2020.02(Sun Mar 01 10:22:07 GMT 2020)
(GPL source distribution)
Java Runtime: OpenJDK Runtime Environment
JVM: OpenJDK 64-Bit Server VM
Java Version: 11.0.9+11-Ubuntu-0ubuntu1
Operating System: Linux
Default Encoding: ANSI_X3.4-1968
Language: en
Country: US
--></g></svg>